<ttFont>
    <TTGlyph name=".notdef" xMin="33" yMin="0" xMax="298" yMax="666">
      <contour>
        <pt x="33" y="0" on="1"/>
        <pt x="33" y="666" on="1"/>
        <pt x="298" y="666" on="1"/>
        <pt x="298" y="0" on="1"/>
      </contour>
      <contour>
        <pt x="66" y="33" on="1"/>
        <pt x="265" y="33" on="1"/>
        <pt x="265" y="633" on="1"/>
        <pt x="66" y="633" on="1"/>
      </contour>
    </TTGlyph>
    <TTGlyph name="A" xMin="60" yMin="0" xMax="594" yMax="697">
      <contour>
        <pt x="581" y="1" on="1"/>
        <pt x="572" y="0" on="1"/>
        <pt x="555" y="0" on="0"/>
        <pt x="549" y="16" on="1"/>
        <pt x="487" y="181" on="1"/>
        <pt x="168" y="181" on="1"/>
        <pt x="106" y="16" on="1"/>
        <pt x="100" y="0" on="0"/>
        <pt x="83" y="0" on="1"/>
        <pt x="74" y="1" on="1"/>
        <pt x="65" y="5" on="0"/>
        <pt x="56" y="24" on="0"/>
        <pt x="60" y="33" on="1"/>
        <pt x="303" y="682" on="1"/>
        <pt x="310" y="697" on="0"/>
        <pt x="346" y="697" on="0"/>
        <pt x="351" y="682" on="1"/>
        <pt x="594" y="33" on="1"/>
        <pt x="598" y="24" on="0"/>
        <pt x="590" y="5" on="0"/>
      </contour>
      <contour>
        <pt x="328" y="606" on="1"/>
        <pt x="186" y="230" on="1"/>
        <pt x="469" y="230" on="1"/>
      </contour>
    </TTGlyph>
    <TTGlyph name="AE" xMin="35" yMin="-5" xMax="986" yMax="700">
      <contour>
        <pt x="49" y="-5" on="0"/>
        <pt x="35" y="9" on="0"/>
        <pt x="35" y="25" on="0"/>
        <pt x="40" y="33" on="1"/>
        <pt x="434" y="684" on="1"/>
        <pt x="444" y="700" on="0"/>
        <pt x="460" y="700" on="1"/>
        <pt x="957" y="700" on="1"/>
        <pt x="967" y="700" on="0"/>
        <pt x="981" y="686" on="0"/>
        <pt x="981" y="666" on="0"/>
        <pt x="967" y="652" on="0"/>
        <pt x="957" y="652" on="1"/>
        <pt x="546" y="652" on="1"/>
        <pt x="546" y="377" on="1"/>
        <pt x="912" y="377" on="1"/>
        <pt x="922" y="377" on="0"/>
        <pt x="936" y="363" on="0"/>
        <pt x="936" y="343" on="0"/>
        <pt x="922" y="329" on="0"/>
        <pt x="912" y="329" on="1"/>
        <pt x="546" y="329" on="1"/>
        <pt x="546" y="48" on="1"/>
        <pt x="962" y="48" on="1"/>
        <pt x="972" y="48" on="0"/>
        <pt x="986" y="34" on="0"/>
        <pt x="986" y="14" on="0"/>
        <pt x="972" y="0" on="0"/>
        <pt x="962" y="0" on="1"/>
        <pt x="520" y="0" on="1"/>
        <pt x="510" y="0" on="0"/>
        <pt x="494" y="16" on="0"/>
        <pt x="494" y="26" on="1"/>
        <pt x="494" y="196" on="1"/>
        <pt x="194" y="196" on="1"/>
        <pt x="81" y="8" on="1"/>
        <pt x="73" y="-5" on="0"/>
      </contour>
      <contour>
        <pt x="222" y="243" on="1"/>
        <pt x="494" y="243" on="1"/>
        <pt x="494" y="653" on="1"/>
        <pt x="468" y="653" on="1"/>
      </contour>
    </TTGlyph>
    <TTGlyph name="Aacute" xMin="60" yMin="0" xMax="594" yMax="923">
      <contour>
        <pt x="74" y="1" on="1"/>
        <pt x="83" y="0" on="1"/>
        <pt x="100" y="0" on="0"/>
        <pt x="106" y="16" on="1"/>
        <pt x="168" y="181" on="1"/>
        <pt x="487" y="181" on="1"/>
        <pt x="549" y="16" on="1"/>
        <pt x="555" y="0" on="0"/>
        <pt x="572" y="0" on="1"/>
        <pt x="581" y="1" on="1"/>
        <pt x="590" y="5" on="0"/>
        <pt x="598" y="24" on="0"/>
        <pt x="594" y="33" on="1"/>
        <pt x="351" y="682" on="1"/>
        <pt x="346" y="697" on="0"/>
        <pt x="310" y="697" on="0"/>
        <pt x="303" y="682" on="1"/>
        <pt x="60" y="33" on="1"/>
        <pt x="56" y="24" on="0"/>
        <pt x="65" y="5" on="0"/>
      </contour>
      <contour>
        <pt x="186" y="230" on="1"/>
        <pt x="328" y="606" on="1"/>
        <pt x="469" y="230" on="1"/>
      </contour>
      <contour>
        <pt x="305" y="805" on="1"/>
        <pt x="291" y="792" on="0"/>
        <pt x="260" y="792" on="0"/>
        <pt x="260" y="801" on="1"/>
        <pt x="260" y="806" on="0"/>
        <pt x="264" y="812" on="1"/>
        <pt x="326" y="905" on="1"/>
        <pt x="338" y="923" on="0"/>
        <pt x="368" y="923" on="0"/>
        <pt x="396" y="908" on="0"/>
        <pt x="396" y="893" on="0"/>
        <pt x="385" y="882" on="1"/>
      </contour>
    </TTGlyph>
    <TTGlyph name="Acircumflex" xMin="61" yMin="0" xMax="595" yMax="920">
      <contour>
        <pt x="75" y="1" on="1"/>
        <pt x="84" y="0" on="1"/>
        <pt x="101" y="0" on="0"/>
        <pt x="107" y="16" on="1"/>
        <pt x="169" y="181" on="1"/>
        <pt x="488" y="181" on="1"/>
        <pt x="550" y="16" on="1"/>
        <pt x="556" y="0" on="0"/>
        <pt x="573" y="0" on="1"/>
        <pt x="582" y="1" on="1"/>
        <pt x="591" y="5" on="0"/>
        <pt x="599" y="24" on="0"/>
        <pt x="595" y="33" on="1"/>
        <pt x="352" y="682" on="1"/>
        <pt x="347" y="697" on="0"/>
        <pt x="311" y="697" on="0"/>
        <pt x="304" y="682" on="1"/>
        <pt x="61" y="33" on="1"/>
        <pt x="57" y="24" on="0"/>
        <pt x="66" y="5" on="0"/>
      </contour>
      <contour>
        <pt x="187" y="230" on="1"/>
        <pt x="329" y="606" on="1"/>
        <pt x="470" y="230" on="1"/>
      </contour>
      <contour>
        <pt x="328" y="863" on="1"/>
        <pt x="265" y="805" on="1"/>
        <pt x="251" y="792" on="0"/>
        <pt x="220" y="792" on="0"/>
        <pt x="220" y="802" on="1"/>
        <pt x="220" y="808" on="0"/>
        <pt x="225" y="814" on="1"/>
        <pt x="297" y="902" on="1"/>
        <pt x="312" y="920" on="0"/>
        <pt x="325" y="920" on="1"/>
        <pt x="333" y="920" on="1"/>
        <pt x="346" y="920" on="0"/>
        <pt x="361" y="902" on="1"/>
        <pt x="433" y="814" on="1"/>
        <pt x="438" y="808" on="0"/>
        <pt x="438" y="802" on="1"/>
        <pt x="438" y="792" on="0"/>
        <pt x="405" y="792" on="0"/>
        <pt x="391" y="805" on="1"/>
      </contour>
    </TTGlyph>
    <TTGlyph name="Adieresis" xMin="61" yMin="0" xMax="595" yMax="880">
      <contour>
        <pt x="75" y="1" on="1"/>
        <pt x="84" y="0" on="1"/>
        <pt x="101" y="0" on="0"/>
        <pt x="107" y="16" on="1"/>
        <pt x="169" y="181" on="1"/>
        <pt x="488" y="181" on="1"/>
        <pt x="550" y="16" on="1"/>
        <pt x="556" y="0" on="0"/>
        <pt x="573" y="0" on="1"/>
        <pt x="582" y="1" on="1"/>
        <pt x="591" y="5" on="0"/>
        <pt x="599" y="24" on="0"/>
        <pt x="595" y="33" on="1"/>
        <pt x="352" y="682" on="1"/>
        <pt x="347" y="697" on="0"/>
        <pt x="311" y="697" on="0"/>
        <pt x="304" y="682" on="1"/>
        <pt x="61" y="33" on="1"/>
        <pt x="57" y="24" on="0"/>
        <pt x="66" y="5" on="0"/>
      </contour>
      <contour>
        <pt x="187" y="230" on="1"/>
        <pt x="329" y="606" on="1"/>
        <pt x="470" y="230" on="1"/>
      </contour>
      <contour>
        <pt x="204" y="819" on="0"/>
        <pt x="204" y="855" on="0"/>
        <pt x="229" y="880" on="0"/>
        <pt x="265" y="880" on="0"/>
        <pt x="290" y="855" on="0"/>
        <pt x="290" y="819" on="0"/>
        <pt x="265" y="794" on="0"/>
        <pt x="229" y="794" on="0"/>
      </contour>
      <contour>
        <pt x="369" y="819" on="0"/>
        <pt x="369" y="855" on="0"/>
        <pt x="394" y="880" on="0"/>
        <pt x="430" y="880" on="0"/>
        <pt x="455" y="855" on="0"/>
        <pt x="455" y="819" on="0"/>
        <pt x="430" y="794" on="0"/>
        <pt x="394" y="794" on="0"/>
      </contour>
    </TTGlyph>
    <TTGlyph name="Agrave" xMin="60" yMin="0" xMax="594" yMax="923">
      <contour>
        <pt x="74" y="1" on="1"/>
        <pt x="83" y="0" on="1"/>
        <pt x="100" y="0" on="0"/>
        <pt x="106" y="16" on="1"/>
        <pt x="168" y="181" on="1"/>
        <pt x="487" y="181" on="1"/>
        <pt x="549" y="16" on="1"/>
        <pt x="555" y="0" on="0"/>
        <pt x="572" y="0" on="1"/>
        <pt x="581" y="1" on="1"/>
        <pt x="590" y="5" on="0"/>
        <pt x="598" y="24" on="0"/>
        <pt x="594" y="33" on="1"/>
        <pt x="351" y="682" on="1"/>
        <pt x="346" y="697" on="0"/>
        <pt x="310" y="697" on="0"/>
        <pt x="303" y="682" on="1"/>
        <pt x="60" y="33" on="1"/>
        <pt x="56" y="24" on="0"/>
        <pt x="65" y="5" on="0"/>
      </contour>
      <contour>
        <pt x="186" y="230" on="1"/>
        <pt x="328" y="606" on="1"/>
        <pt x="469" y="230" on="1"/>
      </contour>
      <contour>
        <pt x="395" y="801" on="1"/>
        <pt x="395" y="792" on="0"/>
        <pt x="364" y="792" on="0"/>
        <pt x="350" y="805" on="1"/>
        <pt x="270" y="882" on="1"/>
        <pt x="259" y="893" on="0"/>
        <pt x="259" y="908" on="0"/>
        <pt x="287" y="923" on="0"/>
        <pt x="317" y="923" on="0"/>
        <pt x="329" y="905" on="1"/>
        <pt x="391" y="812" on="1"/>
        <pt x="395" y="806" on="0"/>
      </contour>
    </TTGlyph>
    <TTGlyph name="Aring" xMin="48" yMin="0" xMax="582" yMax="796">
      <contour>
        <pt x="71" y="0" on="1"/>
        <pt x="62" y="1" on="1"/>
        <pt x="53" y="5" on="0"/>
        <pt x="44" y="24" on="0"/>
        <pt x="48" y="33" on="1"/>
        <pt x="273" y="633" on="1"/>
        <pt x="228" y="659" on="0"/>
        <pt x="228" y="707" on="1"/>
        <pt x="228" y="708" on="1"/>
        <pt x="228" y="744" on="0"/>
        <pt x="282" y="796" on="0"/>
        <pt x="354" y="796" on="0"/>
        <pt x="409" y="744" on="0"/>
        <pt x="409" y="708" on="1"/>
        <pt x="409" y="707" on="1"/>
        <pt x="409" y="656" on="0"/>
        <pt x="358" y="630" on="1"/>
        <pt x="582" y="33" on="1"/>
        <pt x="586" y="24" on="0"/>
        <pt x="578" y="5" on="0"/>
        <pt x="569" y="1" on="1"/>
        <pt x="560" y="0" on="1"/>
        <pt x="543" y="0" on="0"/>
        <pt x="537" y="16" on="1"/>
        <pt x="475" y="181" on="1"/>
        <pt x="156" y="181" on="1"/>
        <pt x="94" y="16" on="1"/>
        <pt x="88" y="0" on="0"/>
      </contour>
      <contour>
        <pt x="271" y="707" on="1"/>
        <pt x="271" y="686" on="0"/>
        <pt x="301" y="661" on="0"/>
        <pt x="331" y="661" on="0"/>
        <pt x="344" y="669" on="1"/>
        <pt x="366" y="682" on="0"/>
        <pt x="366" y="707" on="1"/>
        <pt x="366" y="708" on="1"/>
        <pt x="366" y="727" on="0"/>
        <pt x="338" y="757" on="0"/>
        <pt x="299" y="757" on="0"/>
        <pt x="271" y="727" on="0"/>
        <pt x="271" y="708" on="1"/>
      </contour>
      <contour>
        <pt x="174" y="230" on="1"/>
        <pt x="457" y="230" on="1"/>
        <pt x="316" y="606" on="1"/>
      </contour>
    </TTGlyph>
    <TTGlyph name="Atilde" xMin="61" yMin="0" xMax="595" yMax="899">
      <contour>
        <pt x="75" y="1" on="1"/>
        <pt x="84" y="0" on="1"/>
        <pt x="101" y="0" on="0"/>
        <pt x="107" y="16" on="1"/>
        <pt x="169" y="181" on="1"/>
        <pt x="488" y="181" on="1"/>
        <pt x="550" y="16" on="1"/>
        <pt x="556" y="0" on="0"/>
        <pt x="573" y="0" on="1"/>
        <pt x="582" y="1" on="1"/>
        <pt x="591" y="5" on="0"/>
        <pt x="599" y="24" on="0"/>
        <pt x="595" y="33" on="1"/>
        <pt x="352" y="682" on="1"/>
        <pt x="347" y="697" on="0"/>
        <pt x="311" y="697" on="0"/>
        <pt x="304" y="682" on="1"/>
        <pt x="61" y="33" on="1"/>
        <pt x="57" y="24" on="0"/>
        <pt x="66" y="5" on="0"/>
      </contour>
      <contour>
        <pt x="187" y="230" on="1"/>
        <pt x="329" y="606" on="1"/>
        <pt x="470" y="230" on="1"/>
      </contour>
      <contour>
        <pt x="220" y="798" on="1"/>
        <pt x="213" y="784" on="0"/>
        <pt x="202" y="784" on="1"/>
        <pt x="184" y="784" on="0"/>
        <pt x="184" y="801" on="1"/>
        <pt x="184" y="807" on="0"/>
        <pt x="186" y="813" on="1"/>
        <pt x="200" y="855" on="0"/>
        <pt x="237" y="888" on="0"/>
        <pt x="284" y="888" on="0"/>
        <pt x="376" y="847" on="0"/>
        <pt x="409" y="847" on="0"/>
        <pt x="429" y="864" on="0"/>
        <pt x="438" y="885" on="1"/>
        <pt x="445" y="899" on="0"/>
        <pt x="456" y="899" on="1"/>
        <pt x="474" y="899" on="0"/>
        <pt x="474" y="882" on="1"/>
        <pt x="474" y="876" on="0"/>
        <pt x="472" y="870" on="1"/>
        <pt x="458" y="828" on="0"/>
        <pt x="421" y="795" on="0"/>
        <pt x="374" y="795" on="0"/>
        <pt x="281" y="836" on="0"/>
        <pt x="249" y="836" on="0"/>
        <pt x="229" y="819" on="0"/>
      </contour>
    </TTGlyph>
    <TTGlyph name="B" xMin="104" yMin="0" xMax="528" yMax="700">
      <contour>
        <pt x="104" y="24" on="1"/>
        <pt x="104" y="676" on="1"/>
        <pt x="104" y="686" on="0"/>
        <pt x="118" y="700" on="0"/>
        <pt x="128" y="700" on="1"/>
        <pt x="284" y="700" on="1"/>
        <pt x="356" y="700" on="0"/>
        <pt x="458" y="598" on="0"/>
        <pt x="458" y="443" on="0"/>
        <pt x="391" y="389" on="1"/>
        <pt x="451" y="368" on="0"/>
        <pt x="528" y="265" on="0"/>
        <pt x="528" y="200" on="1"/>
        <pt x="528" y="117" on="0"/>
        <pt x="411" y="0" on="0"/>
        <pt x="328" y="0" on="1"/>
        <pt x="127" y="0" on="1"/>
        <pt x="117" y="0" on="0"/>
        <pt x="104" y="14" on="0"/>
      </contour>
      <contour>
        <pt x="153" y="49" on="1"/>
        <pt x="328" y="49" on="1"/>
        <pt x="390" y="49" on="0"/>
        <pt x="478" y="137" on="0"/>
        <pt x="479" y="200" on="1"/>
        <pt x="478" y="262" on="0"/>
        <pt x="390" y="351" on="0"/>
        <pt x="328" y="351" on="1"/>
        <pt x="153" y="351" on="1"/>
      </contour>
      <contour>
        <pt x="153" y="401" on="1"/>
        <pt x="284" y="401" on="1"/>
        <pt x="336" y="401" on="0"/>
        <pt x="409" y="474" on="0"/>
        <pt x="409" y="577" on="0"/>
        <pt x="336" y="651" on="0"/>
        <pt x="284" y="651" on="1"/>
        <pt x="153" y="651" on="1"/>
      </contour>
    </TTGlyph>
    <TTGlyph name="C" xMin="73" yMin="0" xMax="673" yMax="710">
      <contour>
        <pt x="286" y="0" on="0"/>
        <pt x="73" y="207" on="0"/>
        <pt x="73" y="502" on="0"/>
        <pt x="286" y="709" on="0"/>
        <pt x="437" y="710" on="1"/>
        <pt x="563" y="710" on="0"/>
        <pt x="663" y="633" on="1"/>
        <pt x="671" y="626" on="0"/>
        <pt x="674" y="605" on="0"/>
        <pt x="667" y="598" on="1"/>
        <pt x="661" y="589" on="0"/>
        <pt x="640" y="587" on="0"/>
        <pt x="633" y="593" on="1"/>
        <pt x="546" y="661" on="0"/>
        <pt x="437" y="661" on="1"/>
        <pt x="306" y="661" on="0"/>
        <pt x="122" y="481" on="0"/>
        <pt x="122" y="227" on="0"/>
        <pt x="306" y="49" on="0"/>
        <pt x="551" y="49" on="0"/>
        <pt x="631" y="117" on="1"/>
        <pt x="640" y="123" on="0"/>
        <pt x="661" y="120" on="0"/>
        <pt x="666" y="111" on="1"/>
        <pt x="673" y="104" on="0"/>
        <pt x="671" y="82" on="0"/>
        <pt x="663" y="76" on="1"/>
        <pt x="564" y="0" on="0"/>
        <pt x="437" y="0" on="1"/>
      </contour>
    </TTGlyph>
    <TTGlyph name="Ccedilla" xMin="73" yMin="-142" xMax="673" yMax="710">
      <component glyphName="C" x="0" y="0" flags="0x1004"/>
      <component glyphName="cedilla" x="153" y="0" flags="0x1004"/>
    </TTGlyph>
    <TTGlyph name="D" xMin="104" yMin="0" xMax="609" yMax="700">
      <contour>
        <pt x="259" y="0" on="1"/>
        <pt x="126" y="0" on="1"/>
        <pt x="117" y="1" on="0"/>
        <pt x="104" y="14" on="0"/>
        <pt x="104" y="24" on="1"/>
        <pt x="104" y="676" on="1"/>
        <pt x="104" y="686" on="0"/>
        <pt x="118" y="700" on="0"/>
        <pt x="128" y="700" on="1"/>
        <pt x="259" y="700" on="1"/>
        <pt x="404" y="700" on="0"/>
        <pt x="609" y="494" on="0"/>
        <pt x="609" y="204" on="0"/>
        <pt x="404" y="0" on="0"/>
      </contour>
      <contour>
        <pt x="153" y="49" on="1"/>
        <pt x="259" y="49" on="1"/>
        <pt x="384" y="49" on="0"/>
        <pt x="560" y="225" on="0"/>
        <pt x="560" y="474" on="0"/>
        <pt x="384" y="650" on="0"/>
        <pt x="259" y="651" on="1"/>
        <pt x="153" y="651" on="1"/>
      </contour>
    </TTGlyph>
    <TTGlyph name="E" xMin="104" yMin="0" xMax="512" yMax="700">
      <contour>
        <pt x="104" y="24" on="1"/>
        <pt x="104" y="676" on="1"/>
        <pt x="104" y="686" on="0"/>
        <pt x="118" y="700" on="0"/>
        <pt x="128" y="700" on="1"/>
        <pt x="488" y="700" on="1"/>
        <pt x="498" y="700" on="0"/>
        <pt x="512" y="686" on="0"/>
        <pt x="512" y="665" on="0"/>
        <pt x="498" y="651" on="0"/>
        <pt x="488" y="651" on="1"/>
        <pt x="153" y="651" on="1"/>
        <pt x="153" y="374" on="1"/>
        <pt x="446" y="374" on="1"/>
        <pt x="456" y="374" on="0"/>
        <pt x="470" y="359" on="0"/>
        <pt x="470" y="339" on="0"/>
        <pt x="456" y="325" on="0"/>
        <pt x="446" y="325" on="1"/>
        <pt x="153" y="325" on="1"/>
        <pt x="153" y="49" on="1"/>
        <pt x="488" y="49" on="1"/>
        <pt x="498" y="49" on="0"/>
        <pt x="512" y="35" on="0"/>
        <pt x="512" y="14" on="0"/>
        <pt x="498" y="0" on="0"/>
        <pt x="488" y="0" on="1"/>
        <pt x="126" y="0" on="1"/>
        <pt x="117" y="1" on="0"/>
        <pt x="104" y="14" on="0"/>
      </contour>
    </TTGlyph>
    <TTGlyph name="Eacute" xMin="104" yMin="0" xMax="512" yMax="923">
      <contour>
        <pt x="104" y="24" on="1"/>
        <pt x="104" y="14" on="0"/>
        <pt x="117" y="1" on="0"/>
        <pt x="126" y="0" on="1"/>
        <pt x="488" y="0" on="1"/>
        <pt x="498" y="0" on="0"/>
        <pt x="512" y="14" on="0"/>
        <pt x="512" y="35" on="0"/>
        <pt x="498" y="49" on="0"/>
        <pt x="488" y="49" on="1"/>
        <pt x="153" y="49" on="1"/>
        <pt x="153" y="325" on="1"/>
        <pt x="446" y="325" on="1"/>
        <pt x="456" y="325" on="0"/>
        <pt x="470" y="339" on="0"/>
        <pt x="470" y="359" on="0"/>
        <pt x="456" y="374" on="0"/>
        <pt x="446" y="374" on="1"/>
        <pt x="153" y="374" on="1"/>
        <pt x="153" y="651" on="1"/>
        <pt x="488" y="651" on="1"/>
        <pt x="498" y="651" on="0"/>
        <pt x="512" y="665" on="0"/>
        <pt x="512" y="686" on="0"/>
        <pt x="498" y="700" on="0"/>
        <pt x="488" y="700" on="1"/>
        <pt x="128" y="700" on="1"/>
        <pt x="118" y="700" on="0"/>
        <pt x="104" y="686" on="0"/>
        <pt x="104" y="676" on="1"/>
      </contour>
      <contour>
        <pt x="283" y="805" on="1"/>
        <pt x="269" y="792" on="0"/>
        <pt x="238" y="792" on="0"/>
        <pt x="238" y="801" on="1"/>
        <pt x="238" y="806" on="0"/>
        <pt x="242" y="812" on="1"/>
        <pt x="304" y="905" on="1"/>
        <pt x="316" y="923" on="0"/>
        <pt x="346" y="923" on="0"/>
        <pt x="374" y="908" on="0"/>
        <pt x="374" y="893" on="0"/>
        <pt x="363" y="882" on="1"/>
      </contour>
    </TTGlyph>
    <TTGlyph name="Ecircumflex" xMin="104" yMin="0" xMax="512" yMax="920">
      <component glyphName="E" x="0" y="0" flags="0x1004"/>
      <component glyphName="circumflex" x="56" y="200" flags="0x1004"/>
    </TTGlyph>
    <TTGlyph name="Edieresis" xMin="104" yMin="0" xMax="512" yMax="880">
      <contour>
        <pt x="104" y="24" on="1"/>
        <pt x="104" y="14" on="0"/>
        <pt x="117" y="1" on="0"/>
        <pt x="126" y="0" on="1"/>
        <pt x="488" y="0" on="1"/>
        <pt x="498" y="0" on="0"/>
        <pt x="512" y="14" on="0"/>
        <pt x="512" y="35" on="0"/>
        <pt x="498" y="49" on="0"/>
        <pt x="488" y="49" on="1"/>
        <pt x="153" y="49" on="1"/>
        <pt x="153" y="325" on="1"/>
        <pt x="446" y="325" on="1"/>
        <pt x="456" y="325" on="0"/>
        <pt x="470" y="339" on="0"/>
        <pt x="470" y="359" on="0"/>
        <pt x="456" y="374" on="0"/>
        <pt x="446" y="374" on="1"/>
        <pt x="153" y="374" on="1"/>
        <pt x="153" y="651" on="1"/>
        <pt x="488" y="651" on="1"/>
        <pt x="498" y="651" on="0"/>
        <pt x="512" y="665" on="0"/>
        <pt x="512" y="686" on="0"/>
        <pt x="498" y="700" on="0"/>
        <pt x="488" y="700" on="1"/>
        <pt x="128" y="700" on="1"/>
        <pt x="118" y="700" on="0"/>
        <pt x="104" y="686" on="0"/>
        <pt x="104" y="676" on="1"/>
      </contour>
      <contour>
        <pt x="181" y="819" on="0"/>
        <pt x="181" y="855" on="0"/>
        <pt x="206" y="880" on="0"/>
        <pt x="242" y="880" on="0"/>
        <pt x="267" y="855" on="0"/>
        <pt x="267" y="819" on="0"/>
        <pt x="242" y="794" on="0"/>
        <pt x="206" y="794" on="0"/>
      </contour>
      <contour>
        <pt x="346" y="819" on="0"/>
        <pt x="346" y="855" on="0"/>
        <pt x="371" y="880" on="0"/>
        <pt x="407" y="880" on="0"/>
        <pt x="432" y="855" on="0"/>
        <pt x="432" y="819" on="0"/>
        <pt x="407" y="794" on="0"/>
        <pt x="371" y="794" on="0"/>
      </contour>
    </TTGlyph>
    <TTGlyph name="Egrave" xMin="104" yMin="0" xMax="512" yMax="923">
      <contour>
        <pt x="104" y="24" on="1"/>
        <pt x="104" y="14" on="0"/>
        <pt x="117" y="1" on="0"/>
        <pt x="126" y="0" on="1"/>
        <pt x="488" y="0" on="1"/>
        <pt x="498" y="0" on="0"/>
        <pt x="512" y="14" on="0"/>
        <pt x="512" y="35" on="0"/>
        <pt x="498" y="49" on="0"/>
        <pt x="488" y="49" on="1"/>
        <pt x="153" y="49" on="1"/>
        <pt x="153" y="325" on="1"/>
        <pt x="446" y="325" on="1"/>
        <pt x="456" y="325" on="0"/>
        <pt x="470" y="339" on="0"/>
        <pt x="470" y="359" on="0"/>
        <pt x="456" y="374" on="0"/>
        <pt x="446" y="374" on="1"/>
        <pt x="153" y="374" on="1"/>
        <pt x="153" y="651" on="1"/>
        <pt x="488" y="651" on="1"/>
        <pt x="498" y="651" on="0"/>
        <pt x="512" y="665" on="0"/>
        <pt x="512" y="686" on="0"/>
        <pt x="498" y="700" on="0"/>
        <pt x="488" y="700" on="1"/>
        <pt x="128" y="700" on="1"/>
        <pt x="118" y="700" on="0"/>
        <pt x="104" y="686" on="0"/>
        <pt x="104" y="676" on="1"/>
      </contour>
      <contour>
        <pt x="377" y="801" on="1"/>
        <pt x="377" y="792" on="0"/>
        <pt x="346" y="792" on="0"/>
        <pt x="332" y="805" on="1"/>
        <pt x="252" y="882" on="1"/>
        <pt x="241" y="893" on="0"/>
        <pt x="241" y="908" on="0"/>
        <pt x="269" y="923" on="0"/>
        <pt x="299" y="923" on="0"/>
        <pt x="311" y="905" on="1"/>
        <pt x="373" y="812" on="1"/>
        <pt x="377" y="806" on="0"/>
      </contour>
    </TTGlyph>
    <TTGlyph name="Eth" xMin="55" yMin="0" xMax="663" yMax="700">
      <contour>
        <pt x="158" y="330" on="1"/>
        <pt x="74" y="330" on="1"/>
        <pt x="55" y="330" on="0"/>
        <pt x="55" y="368" on="0"/>
        <pt x="74" y="368" on="1"/>
        <pt x="158" y="368" on="1"/>
        <pt x="158" y="676" on="1"/>
        <pt x="158" y="686" on="0"/>
        <pt x="172" y="700" on="0"/>
        <pt x="182" y="700" on="1"/>
        <pt x="313" y="700" on="1"/>
        <pt x="458" y="700" on="0"/>
        <pt x="663" y="494" on="0"/>
        <pt x="663" y="204" on="0"/>
        <pt x="458" y="0" on="0"/>
        <pt x="313" y="0" on="1"/>
        <pt x="180" y="0" on="1"/>
        <pt x="171" y="1" on="0"/>
        <pt x="158" y="14" on="0"/>
        <pt x="158" y="24" on="1"/>
      </contour>
      <contour>
        <pt x="207" y="49" on="1"/>
        <pt x="313" y="49" on="1"/>
        <pt x="438" y="49" on="0"/>
        <pt x="614" y="225" on="0"/>
        <pt x="614" y="474" on="0"/>
        <pt x="438" y="650" on="0"/>
        <pt x="313" y="651" on="1"/>
        <pt x="207" y="651" on="1"/>
        <pt x="207" y="368" on="1"/>
        <pt x="287" y="368" on="1"/>
        <pt x="306" y="368" on="0"/>
        <pt x="306" y="350" on="1"/>
        <pt x="306" y="341" on="0"/>
        <pt x="295" y="330" on="0"/>
        <pt x="287" y="330" on="1"/>
        <pt x="207" y="330" on="1"/>
      </contour>
    </TTGlyph>
    <TTGlyph name="F" xMin="104" yMin="0" xMax="513" yMax="700">
      <contour>
        <pt x="104" y="24" on="1"/>
        <pt x="104" y="676" on="1"/>
        <pt x="104" y="698" on="0"/>
        <pt x="127" y="700" on="1"/>
        <pt x="489" y="700" on="1"/>
        <pt x="499" y="700" on="0"/>
        <pt x="513" y="686" on="0"/>
        <pt x="513" y="666" on="0"/>
        <pt x="499" y="651" on="0"/>
        <pt x="489" y="651" on="1"/>
        <pt x="153" y="651" on="1"/>
        <pt x="153" y="374" on="1"/>
        <pt x="447" y="374" on="1"/>
        <pt x="458" y="374" on="0"/>
        <pt x="472" y="360" on="0"/>
        <pt x="472" y="339" on="0"/>
        <pt x="457" y="325" on="0"/>
        <pt x="447" y="325" on="1"/>
        <pt x="153" y="325" on="1"/>
        <pt x="153" y="24" on="1"/>
        <pt x="153" y="14" on="0"/>
        <pt x="138" y="0" on="0"/>
        <pt x="118" y="0" on="0"/>
        <pt x="104" y="14" on="0"/>
      </contour>
    </TTGlyph>
    <TTGlyph name="G" xMin="73" yMin="0" xMax="672" yMax="710">
      <contour>
        <pt x="622" y="315" on="1"/>
        <pt x="431" y="315" on="1"/>
        <pt x="420" y="315" on="0"/>
        <pt x="406" y="329" on="0"/>
        <pt x="406" y="350" on="0"/>
        <pt x="420" y="364" on="0"/>
        <pt x="431" y="364" on="1"/>
        <pt x="650" y="364" on="1"/>
        <pt x="659" y="363" on="0"/>
        <pt x="672" y="349" on="0"/>
        <pt x="672" y="339" on="1"/>
        <pt x="672" y="95" on="1"/>
        <pt x="670" y="83" on="0"/>
        <pt x="663" y="77" on="1"/>
        <pt x="566" y="0" on="0"/>
        <pt x="437" y="0" on="1"/>
        <pt x="286" y="1" on="0"/>
        <pt x="73" y="208" on="0"/>
        <pt x="73" y="502" on="0"/>
        <pt x="286" y="710" on="0"/>
        <pt x="437" y="710" on="1"/>
        <pt x="562" y="710" on="0"/>
        <pt x="664" y="631" on="1"/>
        <pt x="671" y="626" on="0"/>
        <pt x="673" y="605" on="0"/>
        <pt x="667" y="597" on="1"/>
        <pt x="653" y="579" on="0"/>
        <pt x="632" y="593" on="1"/>
        <pt x="549" y="661" on="0"/>
        <pt x="437" y="661" on="1"/>
        <pt x="306" y="661" on="0"/>
        <pt x="122" y="482" on="0"/>
        <pt x="122" y="228" on="0"/>
        <pt x="306" y="49" on="0"/>
        <pt x="437" y="49" on="1"/>
        <pt x="540" y="49" on="0"/>
        <pt x="622" y="109" on="1"/>
      </contour>
    </TTGlyph>
    <TTGlyph name="H" xMin="104" yMin="0" xMax="562" yMax="700">
      <contour>
        <pt x="513" y="24" on="1"/>
        <pt x="513" y="326" on="1"/>
        <pt x="153" y="326" on="1"/>
        <pt x="153" y="24" on="1"/>
        <pt x="153" y="14" on="0"/>
        <pt x="138" y="0" on="0"/>
        <pt x="118" y="0" on="0"/>
        <pt x="104" y="14" on="0"/>
        <pt x="104" y="24" on="1"/>
        <pt x="104" y="676" on="1"/>
        <pt x="104" y="686" on="0"/>
        <pt x="118" y="700" on="0"/>
        <pt x="138" y="700" on="0"/>
        <pt x="153" y="686" on="0"/>
        <pt x="153" y="676" on="1"/>
        <pt x="153" y="374" on="1"/>
        <pt x="513" y="374" on="1"/>
        <pt x="513" y="676" on="1"/>
        <pt x="513" y="686" on="0"/>
        <pt x="527" y="700" on="0"/>
        <pt x="547" y="700" on="0"/>
        <pt x="562" y="686" on="0"/>
        <pt x="562" y="676" on="1"/>
        <pt x="562" y="24" on="1"/>
        <pt x="562" y="14" on="0"/>
        <pt x="547" y="0" on="0"/>
        <pt x="527" y="0" on="0"/>
        <pt x="513" y="14" on="0"/>
      </contour>
    </TTGlyph>
    <TTGlyph name="I" xMin="111" yMin="0" xMax="160" yMax="700">
      <contour>
        <pt x="111" y="24" on="1"/>
        <pt x="111" y="676" on="1"/>
        <pt x="111" y="686" on="0"/>
        <pt x="125" y="700" on="0"/>
        <pt x="145" y="700" on="0"/>
        <pt x="160" y="686" on="0"/>
        <pt x="160" y="676" on="1"/>
        <pt x="160" y="24" on="1"/>
        <pt x="160" y="14" on="0"/>
        <pt x="145" y="0" on="0"/>
        <pt x="125" y="0" on="0"/>
        <pt x="111" y="14" on="0"/>
      </contour>
    </TTGlyph>
    <TTGlyph name="Iacute" xMin="83" yMin="0" xMax="219" yMax="923">
      <contour>
        <pt x="127" y="24" on="1"/>
        <pt x="127" y="14" on="0"/>
        <pt x="141" y="0" on="0"/>
        <pt x="161" y="0" on="0"/>
        <pt x="176" y="14" on="0"/>
        <pt x="176" y="24" on="1"/>
        <pt x="176" y="676" on="1"/>
        <pt x="176" y="686" on="0"/>
        <pt x="161" y="700" on="0"/>
        <pt x="141" y="700" on="0"/>
        <pt x="127" y="686" on="0"/>
        <pt x="127" y="676" on="1"/>
      </contour>
      <contour>
        <pt x="128" y="805" on="1"/>
        <pt x="114" y="792" on="0"/>
        <pt x="83" y="792" on="0"/>
        <pt x="83" y="801" on="1"/>
        <pt x="83" y="806" on="0"/>
        <pt x="87" y="812" on="1"/>
        <pt x="149" y="905" on="1"/>
        <pt x="161" y="923" on="0"/>
        <pt x="191" y="923" on="0"/>
        <pt x="219" y="908" on="0"/>
        <pt x="219" y="893" on="0"/>
        <pt x="208" y="882" on="1"/>
      </contour>
    </TTGlyph>
    <TTGlyph name="Icircumflex" xMin="1" yMin="0" xMax="219" yMax="920">
      <contour>
        <pt x="86" y="24" on="1"/>
        <pt x="86" y="14" on="0"/>
        <pt x="100" y="0" on="0"/>
        <pt x="120" y="0" on="0"/>
        <pt x="135" y="14" on="0"/>
        <pt x="135" y="24" on="1"/>
        <pt x="135" y="676" on="1"/>
        <pt x="135" y="686" on="0"/>
        <pt x="120" y="700" on="0"/>
        <pt x="100" y="700" on="0"/>
        <pt x="86" y="686" on="0"/>
        <pt x="86" y="676" on="1"/>
      </contour>
      <contour>
        <pt x="109" y="863" on="1"/>
        <pt x="46" y="805" on="1"/>
        <pt x="32" y="792" on="0"/>
        <pt x="1" y="792" on="0"/>
        <pt x="1" y="802" on="1"/>
        <pt x="1" y="808" on="0"/>
        <pt x="6" y="814" on="1"/>
        <pt x="78" y="902" on="1"/>
        <pt x="93" y="920" on="0"/>
        <pt x="106" y="920" on="1"/>
        <pt x="114" y="920" on="1"/>
        <pt x="127" y="920" on="0"/>
        <pt x="142" y="902" on="1"/>
        <pt x="214" y="814" on="1"/>
        <pt x="219" y="808" on="0"/>
        <pt x="219" y="802" on="1"/>
        <pt x="219" y="792" on="0"/>
        <pt x="186" y="792" on="0"/>
        <pt x="172" y="805" on="1"/>
      </contour>
    </TTGlyph>
    <TTGlyph name="Idieresis" xMin="-8" yMin="0" xMax="243" yMax="880">
      <contour>
        <pt x="93" y="24" on="1"/>
        <pt x="93" y="14" on="0"/>
        <pt x="107" y="0" on="0"/>
        <pt x="127" y="0" on="0"/>
        <pt x="142" y="14" on="0"/>
        <pt x="142" y="24" on="1"/>
        <pt x="142" y="676" on="1"/>
        <pt x="142" y="686" on="0"/>
        <pt x="127" y="700" on="0"/>
        <pt x="107" y="700" on="0"/>
        <pt x="93" y="686" on="0"/>
        <pt x="93" y="676" on="1"/>
      </contour>
      <contour>
        <pt x="-8" y="819" on="0"/>
        <pt x="-8" y="855" on="0"/>
        <pt x="17" y="880" on="0"/>
        <pt x="53" y="880" on="0"/>
        <pt x="78" y="855" on="0"/>
        <pt x="78" y="819" on="0"/>
        <pt x="53" y="794" on="0"/>
        <pt x="17" y="794" on="0"/>
      </contour>
      <contour>
        <pt x="157" y="819" on="0"/>
        <pt x="157" y="855" on="0"/>
        <pt x="182" y="880" on="0"/>
        <pt x="218" y="880" on="0"/>
        <pt x="243" y="855" on="0"/>
        <pt x="243" y="819" on="0"/>
        <pt x="218" y="794" on="0"/>
        <pt x="182" y="794" on="0"/>
      </contour>
    </TTGlyph>
    <TTGlyph name="Igrave" xMin="148" yMin="0" xMax="284" yMax="923">
      <contour>
        <pt x="191" y="24" on="1"/>
        <pt x="191" y="14" on="0"/>
        <pt x="205" y="0" on="0"/>
        <pt x="225" y="0" on="0"/>
        <pt x="240" y="14" on="0"/>
        <pt x="240" y="24" on="1"/>
        <pt x="240" y="676" on="1"/>
        <pt x="240" y="686" on="0"/>
        <pt x="225" y="700" on="0"/>
        <pt x="205" y="700" on="0"/>
        <pt x="191" y="686" on="0"/>
        <pt x="191" y="676" on="1"/>
      </contour>
      <contour>
        <pt x="284" y="801" on="1"/>
        <pt x="284" y="792" on="0"/>
        <pt x="253" y="792" on="0"/>
        <pt x="239" y="805" on="1"/>
        <pt x="159" y="882" on="1"/>
        <pt x="148" y="893" on="0"/>
        <pt x="148" y="908" on="0"/>
        <pt x="176" y="923" on="0"/>
        <pt x="206" y="923" on="0"/>
        <pt x="218" y="905" on="1"/>
        <pt x="280" y="812" on="1"/>
        <pt x="284" y="806" on="0"/>
      </contour>
    </TTGlyph>
    <TTGlyph name="J" xMin="46" yMin="0" xMax="509" yMax="700">
      <contour>
        <pt x="46" y="164" on="1"/>
        <pt x="43" y="174" on="0"/>
        <pt x="52" y="192" on="0"/>
        <pt x="72" y="198" on="0"/>
        <pt x="90" y="189" on="0"/>
        <pt x="92" y="180" on="1"/>
        <pt x="111" y="121" on="0"/>
        <pt x="210" y="48" on="0"/>
        <pt x="272" y="49" on="1"/>
        <pt x="350" y="49" on="0"/>
        <pt x="461" y="159" on="0"/>
        <pt x="461" y="237" on="1"/>
        <pt x="461" y="676" on="1"/>
        <pt x="461" y="686" on="0"/>
        <pt x="475" y="700" on="0"/>
        <pt x="495" y="700" on="0"/>
        <pt x="509" y="686" on="0"/>
        <pt x="509" y="676" on="1"/>
        <pt x="509" y="237" on="1"/>
        <pt x="509" y="138" on="0"/>
        <pt x="370" y="0" on="0"/>
        <pt x="272" y="0" on="1"/>
        <pt x="194" y="0" on="0"/>
        <pt x="69" y="92" on="0"/>
      </contour>
    </TTGlyph>
    <TTGlyph name="K" xMin="104" yMin="0" xMax="618" yMax="698">
      <contour>
        <pt x="104" y="24" on="1"/>
        <pt x="104" y="673" on="1"/>
        <pt x="104" y="683" on="0"/>
        <pt x="118" y="698" on="0"/>
        <pt x="138" y="698" on="0"/>
        <pt x="153" y="684" on="0"/>
        <pt x="153" y="673" on="1"/>
        <pt x="153" y="268" on="1"/>
        <pt x="576" y="691" on="1"/>
        <pt x="584" y="698" on="0"/>
        <pt x="604" y="698" on="0"/>
        <pt x="618" y="684" on="0"/>
        <pt x="618" y="664" on="0"/>
        <pt x="610" y="656" on="1"/>
        <pt x="342" y="388" on="1"/>
        <pt x="616" y="40" on="1"/>
        <pt x="629" y="22" on="0"/>
        <pt x="612" y="5" on="1"/>
        <pt x="606" y="0" on="0"/>
        <pt x="584" y="0" on="0"/>
        <pt x="578" y="9" on="1"/>
        <pt x="307" y="353" on="1"/>
        <pt x="153" y="199" on="1"/>
        <pt x="153" y="24" on="1"/>
        <pt x="153" y="14" on="0"/>
        <pt x="138" y="0" on="0"/>
        <pt x="118" y="0" on="0"/>
        <pt x="104" y="14" on="0"/>
      </contour>
    </TTGlyph>
    <TTGlyph name="L" xMin="104" yMin="0" xMax="513" yMax="700">
      <contour>
        <pt x="488" y="0" on="1"/>
        <pt x="128" y="0" on="1"/>
        <pt x="118" y="0" on="0"/>
        <pt x="104" y="14" on="0"/>
        <pt x="104" y="24" on="1"/>
        <pt x="104" y="676" on="1"/>
        <pt x="104" y="686" on="0"/>
        <pt x="118" y="700" on="0"/>
        <pt x="138" y="700" on="0"/>
        <pt x="153" y="686" on="0"/>
        <pt x="153" y="676" on="1"/>
        <pt x="153" y="49" on="1"/>
        <pt x="488" y="49" on="1"/>
        <pt x="498" y="49" on="0"/>
        <pt x="513" y="34" on="0"/>
        <pt x="513" y="14" on="0"/>
        <pt x="498" y="0" on="0"/>
      </contour>
    </TTGlyph>
    <TTGlyph name="M" xMin="104" yMin="0" xMax="692" yMax="697">
      <contour>
        <pt x="644" y="24" on="1"/>
        <pt x="644" y="600" on="1"/>
        <pt x="420" y="289" on="1"/>
        <pt x="413" y="278" on="0"/>
        <pt x="400" y="278" on="1"/>
        <pt x="398" y="278" on="1"/>
        <pt x="384" y="278" on="0"/>
        <pt x="377" y="289" on="1"/>
        <pt x="153" y="599" on="1"/>
        <pt x="153" y="24" on="1"/>
        <pt x="153" y="14" on="0"/>
        <pt x="139" y="0" on="0"/>
        <pt x="119" y="0" on="0"/>
        <pt x="104" y="14" on="0"/>
        <pt x="104" y="24" on="1"/>
        <pt x="104" y="672" on="1"/>
        <pt x="104" y="684" on="0"/>
        <pt x="114" y="691" on="1"/>
        <pt x="116" y="693" on="1"/>
        <pt x="136" y="706" on="0"/>
        <pt x="150" y="687" on="1"/>
        <pt x="399" y="342" on="1"/>
        <pt x="647" y="687" on="1"/>
        <pt x="652" y="695" on="0"/>
        <pt x="673" y="698" on="0"/>
        <pt x="681" y="693" on="1"/>
        <pt x="692" y="682" on="0"/>
        <pt x="692" y="672" on="1"/>
        <pt x="692" y="24" on="1"/>
        <pt x="692" y="14" on="0"/>
        <pt x="678" y="0" on="0"/>
        <pt x="658" y="0" on="0"/>
        <pt x="644" y="14" on="0"/>
      </contour>
    </TTGlyph>
    <TTGlyph name="N" xMin="107" yMin="0" xMax="623" yMax="697">
      <contour>
        <pt x="575" y="13" on="1"/>
        <pt x="155" y="597" on="1"/>
        <pt x="155" y="24" on="1"/>
        <pt x="155" y="14" on="0"/>
        <pt x="141" y="0" on="0"/>
        <pt x="121" y="0" on="0"/>
        <pt x="107" y="14" on="0"/>
        <pt x="107" y="24" on="1"/>
        <pt x="107" y="666" on="1"/>
        <pt x="102" y="682" on="0"/>
        <pt x="124" y="698" on="0"/>
        <pt x="145" y="695" on="0"/>
        <pt x="150" y="687" on="1"/>
        <pt x="574" y="99" on="1"/>
        <pt x="574" y="669" on="1"/>
        <pt x="574" y="679" on="0"/>
        <pt x="588" y="693" on="0"/>
        <pt x="608" y="693" on="0"/>
        <pt x="623" y="679" on="0"/>
        <pt x="623" y="669" on="1"/>
        <pt x="623" y="24" on="1"/>
        <pt x="623" y="14" on="0"/>
        <pt x="608" y="0" on="0"/>
        <pt x="586" y="0" on="0"/>
        <pt x="579" y="9" on="1"/>
      </contour>
    </TTGlyph>
    <TTGlyph name="Ntilde" xMin="107" yMin="0" xMax="623" yMax="899">
      <contour>
        <pt x="575" y="13" on="1"/>
        <pt x="579" y="9" on="1"/>
        <pt x="586" y="0" on="0"/>
        <pt x="608" y="0" on="0"/>
        <pt x="623" y="14" on="0"/>
        <pt x="623" y="24" on="1"/>
        <pt x="623" y="669" on="1"/>
        <pt x="623" y="679" on="0"/>
        <pt x="608" y="693" on="0"/>
        <pt x="588" y="693" on="0"/>
        <pt x="574" y="679" on="0"/>
        <pt x="574" y="669" on="1"/>
        <pt x="574" y="99" on="1"/>
        <pt x="150" y="687" on="1"/>
        <pt x="145" y="695" on="0"/>
        <pt x="124" y="698" on="0"/>
        <pt x="102" y="682" on="0"/>
        <pt x="107" y="666" on="1"/>
        <pt x="107" y="24" on="1"/>
        <pt x="107" y="14" on="0"/>
        <pt x="121" y="0" on="0"/>
        <pt x="141" y="0" on="0"/>
        <pt x="155" y="14" on="0"/>
        <pt x="155" y="24" on="1"/>
        <pt x="155" y="597" on="1"/>
      </contour>
      <contour>
        <pt x="255" y="798" on="1"/>
        <pt x="248" y="784" on="0"/>
        <pt x="237" y="784" on="1"/>
        <pt x="219" y="784" on="0"/>
        <pt x="219" y="801" on="1"/>
        <pt x="219" y="807" on="0"/>
        <pt x="221" y="813" on="1"/>
        <pt x="235" y="855" on="0"/>
        <pt x="272" y="888" on="0"/>
        <pt x="320" y="888" on="0"/>
        <pt x="412" y="847" on="0"/>
        <pt x="444" y="847" on="0"/>
        <pt x="464" y="864" on="0"/>
        <pt x="473" y="885" on="1"/>
        <pt x="480" y="899" on="0"/>
        <pt x="491" y="899" on="1"/>
        <pt x="509" y="899" on="0"/>
        <pt x="509" y="882" on="1"/>
        <pt x="509" y="876" on="0"/>
        <pt x="507" y="870" on="1"/>
        <pt x="493" y="828" on="0"/>
        <pt x="456" y="795" on="0"/>
        <pt x="408" y="795" on="0"/>
        <pt x="316" y="836" on="0"/>
        <pt x="284" y="836" on="0"/>
        <pt x="264" y="819" on="0"/>
      </contour>
    </TTGlyph>
    <TTGlyph name="O" xMin="73" yMin="0" xMax="746" yMax="710">
      <contour>
        <pt x="73" y="355" on="1"/>
        <pt x="74" y="503" on="0"/>
        <pt x="270" y="710" on="0"/>
        <pt x="551" y="710" on="0"/>
        <pt x="745" y="503" on="0"/>
        <pt x="746" y="355" on="1"/>
        <pt x="745" y="207" on="0"/>
        <pt x="551" y="0" on="0"/>
        <pt x="270" y="0" on="0"/>
        <pt x="74" y="207" on="0"/>
      </contour>
      <contour>
        <pt x="291" y="660" on="0"/>
        <pt x="122" y="484" on="0"/>
        <pt x="122" y="227" on="0"/>
        <pt x="291" y="49" on="0"/>
        <pt x="527" y="49" on="0"/>
        <pt x="695" y="228" on="0"/>
        <pt x="696" y="355" on="1"/>
        <pt x="695" y="484" on="0"/>
        <pt x="528" y="660" on="0"/>
      </contour>
    </TTGlyph>
    <TTGlyph name="OE" xMin="73" yMin="0" xMax="1115" yMax="710">
      <contour>
        <pt x="707" y="24" on="1"/>
        <pt x="707" y="189" on="1"/>
        <pt x="664" y="103" on="0"/>
        <pt x="506" y="0" on="0"/>
        <pt x="411" y="0" on="1"/>
        <pt x="270" y="0" on="0"/>
        <pt x="74" y="207" on="0"/>
        <pt x="73" y="355" on="1"/>
        <pt x="74" y="503" on="0"/>
        <pt x="270" y="710" on="0"/>
        <pt x="411" y="710" on="1"/>
        <pt x="506" y="710" on="0"/>
        <pt x="664" y="607" on="0"/>
        <pt x="707" y="521" on="1"/>
        <pt x="707" y="676" on="1"/>
        <pt x="707" y="686" on="0"/>
        <pt x="721" y="700" on="0"/>
        <pt x="731" y="700" on="1"/>
        <pt x="1091" y="700" on="1"/>
        <pt x="1101" y="700" on="0"/>
        <pt x="1115" y="686" on="0"/>
        <pt x="1115" y="665" on="0"/>
        <pt x="1101" y="651" on="0"/>
        <pt x="1091" y="651" on="1"/>
        <pt x="756" y="651" on="1"/>
        <pt x="756" y="374" on="1"/>
        <pt x="1049" y="374" on="1"/>
        <pt x="1059" y="374" on="0"/>
        <pt x="1073" y="359" on="0"/>
        <pt x="1073" y="339" on="0"/>
        <pt x="1059" y="325" on="0"/>
        <pt x="1049" y="325" on="1"/>
        <pt x="756" y="325" on="1"/>
        <pt x="756" y="49" on="1"/>
        <pt x="1091" y="49" on="1"/>
        <pt x="1101" y="49" on="0"/>
        <pt x="1115" y="35" on="0"/>
        <pt x="1115" y="14" on="0"/>
        <pt x="1101" y="0" on="0"/>
        <pt x="1091" y="0" on="1"/>
        <pt x="729" y="0" on="1"/>
        <pt x="720" y="1" on="0"/>
        <pt x="707" y="14" on="0"/>
      </contour>
      <contour>
        <pt x="291" y="660" on="0"/>
        <pt x="122" y="484" on="0"/>
        <pt x="122" y="227" on="0"/>
        <pt x="291" y="49" on="0"/>
        <pt x="527" y="49" on="0"/>
        <pt x="695" y="228" on="0"/>
        <pt x="696" y="355" on="1"/>
        <pt x="695" y="484" on="0"/>
        <pt x="528" y="660" on="0"/>
      </contour>
    </TTGlyph>
    <TTGlyph name="Oacute" xMin="73" yMin="0" xMax="746" yMax="923">
      <contour>
        <pt x="73" y="355" on="1"/>
        <pt x="74" y="207" on="0"/>
        <pt x="270" y="0" on="0"/>
        <pt x="551" y="0" on="0"/>
        <pt x="745" y="207" on="0"/>
        <pt x="746" y="355" on="1"/>
        <pt x="745" y="503" on="0"/>
        <pt x="551" y="710" on="0"/>
        <pt x="270" y="710" on="0"/>
        <pt x="74" y="503" on="0"/>
      </contour>
      <contour>
        <pt x="291" y="49" on="0"/>
        <pt x="122" y="227" on="0"/>
        <pt x="122" y="484" on="0"/>
        <pt x="291" y="660" on="0"/>
        <pt x="528" y="660" on="0"/>
        <pt x="695" y="484" on="0"/>
        <pt x="696" y="355" on="1"/>
        <pt x="695" y="228" on="0"/>
        <pt x="527" y="49" on="0"/>
      </contour>
      <contour>
        <pt x="385" y="805" on="1"/>
        <pt x="371" y="792" on="0"/>
        <pt x="340" y="792" on="0"/>
        <pt x="340" y="801" on="1"/>
        <pt x="340" y="806" on="0"/>
        <pt x="344" y="812" on="1"/>
        <pt x="406" y="905" on="1"/>
        <pt x="418" y="923" on="0"/>
        <pt x="448" y="923" on="0"/>
        <pt x="476" y="908" on="0"/>
        <pt x="476" y="893" on="0"/>
        <pt x="465" y="882" on="1"/>
      </contour>
    </TTGlyph>
    <TTGlyph name="Ocircumflex" xMin="73" yMin="0" xMax="746" yMax="920">
      <component glyphName="O" x="0" y="0" flags="0x1004"/>
      <component glyphName="circumflex" x="160" y="200" flags="0x1004"/>
    </TTGlyph>
    <TTGlyph name="Odieresis" xMin="73" yMin="0" xMax="746" yMax="880">
      <component glyphName="O" x="0" y="0" flags="0x1004"/>
      <component glyphName="dieresis" x="151" y="200" flags="0x1004"/>
    </TTGlyph>
    <TTGlyph name="Ograve" xMin="73" yMin="0" xMax="746" yMax="923">
      <component glyphName="O" x="0" y="0" flags="0x1004"/>
      <component glyphName="grave" x="179" y="200" flags="0x1004"/>
    </TTGlyph>
    <TTGlyph name="Oslash" xMin="73" yMin="-12" xMax="777" yMax="712">
      <contour>
        <pt x="424" y="-12" on="1"/>
        <pt x="291" y="-12" on="0"/>
        <pt x="196" y="70" on="1"/>
        <pt x="129" y="-1" on="1"/>
        <pt x="121" y="-9" on="0"/>
        <pt x="102" y="-9" on="0"/>
        <pt x="90" y="3" on="0"/>
        <pt x="90" y="22" on="0"/>
        <pt x="96" y="28" on="1"/>
        <pt x="164" y="101" on="1"/>
        <pt x="73" y="205" on="0"/>
        <pt x="73" y="348" on="1"/>
        <pt x="73" y="350" on="1"/>
        <pt x="73" y="498" on="0"/>
        <pt x="271" y="712" on="0"/>
        <pt x="426" y="712" on="1"/>
        <pt x="558" y="712" on="0"/>
        <pt x="654" y="629" on="1"/>
        <pt x="721" y="701" on="1"/>
        <pt x="729" y="709" on="0"/>
        <pt x="748" y="709" on="0"/>
        <pt x="760" y="697" on="0"/>
        <pt x="760" y="678" on="0"/>
        <pt x="754" y="672" on="1"/>
        <pt x="685" y="598" on="1"/>
        <pt x="777" y="497" on="0"/>
        <pt x="777" y="352" on="1"/>
        <pt x="777" y="350" on="1"/>
        <pt x="777" y="202" on="0"/>
        <pt x="579" y="-12" on="0"/>
      </contour>
      <contour>
        <pt x="127" y="350" on="1"/>
        <pt x="127" y="228" on="0"/>
        <pt x="201" y="140" on="1"/>
        <pt x="620" y="590" on="1"/>
        <pt x="537" y="665" on="0"/>
        <pt x="296" y="665" on="0"/>
        <pt x="127" y="483" on="0"/>
        <pt x="127" y="352" on="1"/>
      </contour>
      <contour>
        <pt x="229" y="110" on="1"/>
        <pt x="312" y="35" on="0"/>
        <pt x="554" y="35" on="0"/>
        <pt x="723" y="217" on="0"/>
        <pt x="723" y="348" on="1"/>
        <pt x="723" y="350" on="1"/>
        <pt x="723" y="469" on="0"/>
        <pt x="649" y="559" on="1"/>
      </contour>
    </TTGlyph>
    <TTGlyph name="Otilde" xMin="73" yMin="0" xMax="746" yMax="899">
      <contour>
        <pt x="73" y="355" on="1"/>
        <pt x="74" y="207" on="0"/>
        <pt x="270" y="0" on="0"/>
        <pt x="551" y="0" on="0"/>
        <pt x="745" y="207" on="0"/>
        <pt x="746" y="355" on="1"/>
        <pt x="745" y="503" on="0"/>
        <pt x="551" y="710" on="0"/>
        <pt x="270" y="710" on="0"/>
        <pt x="74" y="503" on="0"/>
      </contour>
      <contour>
        <pt x="291" y="49" on="0"/>
        <pt x="122" y="227" on="0"/>
        <pt x="122" y="484" on="0"/>
        <pt x="291" y="660" on="0"/>
        <pt x="528" y="660" on="0"/>
        <pt x="695" y="484" on="0"/>
        <pt x="696" y="355" on="1"/>
        <pt x="695" y="228" on="0"/>
        <pt x="527" y="49" on="0"/>
      </contour>
      <contour>
        <pt x="300" y="798" on="1"/>
        <pt x="293" y="784" on="0"/>
        <pt x="282" y="784" on="1"/>
        <pt x="264" y="784" on="0"/>
        <pt x="264" y="801" on="1"/>
        <pt x="264" y="807" on="0"/>
        <pt x="266" y="813" on="1"/>
        <pt x="280" y="855" on="0"/>
        <pt x="317" y="888" on="0"/>
        <pt x="364" y="888" on="0"/>
        <pt x="456" y="847" on="0"/>
        <pt x="489" y="847" on="0"/>
        <pt x="509" y="864" on="0"/>
        <pt x="518" y="885" on="1"/>
        <pt x="525" y="899" on="0"/>
        <pt x="536" y="899" on="1"/>
        <pt x="554" y="899" on="0"/>
        <pt x="554" y="882" on="1"/>
        <pt x="554" y="876" on="0"/>
        <pt x="552" y="870" on="1"/>
        <pt x="538" y="828" on="0"/>
        <pt x="501" y="795" on="0"/>
        <pt x="454" y="795" on="0"/>
        <pt x="362" y="836" on="0"/>
        <pt x="329" y="836" on="0"/>
        <pt x="309" y="819" on="0"/>
      </contour>
    </TTGlyph>
    <TTGlyph name="P" xMin="104" yMin="0" xMax="525" yMax="700">
      <contour>
        <pt x="104" y="24" on="1"/>
        <pt x="104" y="676" on="1"/>
        <pt x="104" y="686" on="0"/>
        <pt x="118" y="700" on="0"/>
        <pt x="128" y="700" on="1"/>
        <pt x="326" y="700" on="1"/>
        <pt x="408" y="700" on="0"/>
        <pt x="525" y="583" on="0"/>
        <pt x="525" y="418" on="0"/>
        <pt x="408" y="301" on="0"/>
        <pt x="326" y="301" on="1"/>
        <pt x="153" y="299" on="1"/>
        <pt x="153" y="24" on="1"/>
        <pt x="153" y="14" on="0"/>
        <pt x="138" y="0" on="0"/>
        <pt x="118" y="0" on="0"/>
        <pt x="104" y="14" on="0"/>
      </contour>
      <contour>
        <pt x="153" y="348" on="1"/>
        <pt x="326" y="348" on="1"/>
        <pt x="388" y="349" on="0"/>
        <pt x="477" y="438" on="0"/>
        <pt x="477" y="562" on="0"/>
        <pt x="388" y="651" on="0"/>
        <pt x="326" y="651" on="1"/>
        <pt x="153" y="651" on="1"/>
      </contour>
    </TTGlyph>
    <TTGlyph name="Q" xMin="66" yMin="-144" xMax="809" yMax="710">
      <contour>
        <pt x="804" y="-49" on="1"/>
        <pt x="810" y="-57" on="0"/>
        <pt x="808" y="-78" on="0"/>
        <pt x="801" y="-85" on="1"/>
        <pt x="724" y="-144" on="0"/>
        <pt x="643" y="-144" on="1"/>
        <pt x="642" y="-144" on="1"/>
        <pt x="565" y="-144" on="0"/>
        <pt x="468" y="-87" on="1"/>
        <pt x="429" y="-65" on="0"/>
        <pt x="354" y="-65" on="0"/>
        <pt x="298" y="-81" on="0"/>
        <pt x="291" y="-87" on="1"/>
        <pt x="290" y="-87" on="1"/>
        <pt x="276" y="-94" on="0"/>
        <pt x="262" y="-85" on="1"/>
        <pt x="261" y="-85" on="1"/>
        <pt x="255" y="-76" on="0"/>
        <pt x="250" y="-65" on="0"/>
        <pt x="256" y="-46" on="0"/>
        <pt x="265" y="-41" on="1"/>
        <pt x="358" y="1" on="1"/>
        <pt x="233" y="18" on="0"/>
        <pt x="66" y="220" on="0"/>
        <pt x="66" y="501" on="0"/>
        <pt x="262" y="709" on="0"/>
        <pt x="402" y="710" on="1"/>
        <pt x="542" y="709" on="0"/>
        <pt x="738" y="501" on="0"/>
        <pt x="738" y="354" on="1"/>
        <pt x="738" y="245" on="0"/>
        <pt x="624" y="68" on="0"/>
        <pt x="532" y="26" on="1"/>
        <pt x="431" y="-21" on="1"/>
        <pt x="466" y="-28" on="0"/>
        <pt x="492" y="-43" on="1"/>
        <pt x="578" y="-95" on="0"/>
        <pt x="704" y="-95" on="0"/>
        <pt x="769" y="-45" on="1"/>
        <pt x="789" y="-31" on="0"/>
      </contour>
      <contour>
        <pt x="116" y="481" on="0"/>
        <pt x="116" y="227" on="0"/>
        <pt x="284" y="48" on="0"/>
        <pt x="520" y="48" on="0"/>
        <pt x="688" y="227" on="0"/>
        <pt x="688" y="481" on="0"/>
        <pt x="520" y="659" on="0"/>
        <pt x="284" y="659" on="0"/>
      </contour>
    </TTGlyph>
    <TTGlyph name="R" xMin="90" yMin="0" xMax="546" yMax="700">
      <contour>
        <pt x="516" y="11" on="1"/>
        <pt x="452" y="11" on="0"/>
        <pt x="452" y="158" on="1"/>
        <pt x="452" y="222" on="0"/>
        <pt x="395" y="264" on="1"/>
        <pt x="354" y="293" on="0"/>
        <pt x="311" y="300" on="1"/>
        <pt x="310" y="301" on="0"/>
        <pt x="309" y="301" on="1"/>
        <pt x="139" y="301" on="1"/>
        <pt x="139" y="24" on="1"/>
        <pt x="139" y="14" on="0"/>
        <pt x="124" y="0" on="0"/>
        <pt x="104" y="0" on="0"/>
        <pt x="90" y="14" on="0"/>
        <pt x="90" y="24" on="1"/>
        <pt x="90" y="676" on="1"/>
        <pt x="90" y="685" on="0"/>
        <pt x="103" y="699" on="0"/>
        <pt x="112" y="700" on="1"/>
        <pt x="312" y="700" on="1"/>
        <pt x="395" y="700" on="0"/>
        <pt x="511" y="583" on="0"/>
        <pt x="511" y="500" on="1"/>
        <pt x="511" y="441" on="0"/>
        <pt x="448" y="343" on="0"/>
        <pt x="396" y="319" on="1"/>
        <pt x="406" y="314" on="1"/>
        <pt x="446" y="291" on="0"/>
        <pt x="500" y="213" on="0"/>
        <pt x="500" y="79" on="0"/>
        <pt x="519" y="60" on="1"/>
        <pt x="540" y="62" on="0"/>
        <pt x="546" y="44" on="1"/>
        <pt x="551" y="20" on="0"/>
        <pt x="530" y="12" on="1"/>
        <pt x="528" y="12" on="1"/>
        <pt x="518" y="11" on="1"/>
      </contour>
      <contour>
        <pt x="377" y="351" on="0"/>
        <pt x="463" y="439" on="0"/>
        <pt x="463" y="563" on="0"/>
        <pt x="374" y="651" on="0"/>
        <pt x="312" y="651" on="1"/>
        <pt x="139" y="651" on="1"/>
        <pt x="139" y="349" on="1"/>
        <pt x="316" y="349" on="1"/>
      </contour>
    </TTGlyph>
    <TTGlyph name="S" xMin="72" yMin="-1" xMax="592" yMax="710">
      <contour>
        <pt x="133" y="528" on="1"/>
        <pt x="135" y="428" on="0"/>
        <pt x="335" y="390" on="1"/>
        <pt x="337" y="390" on="1"/>
        <pt x="452" y="369" on="0"/>
        <pt x="515" y="326" on="1"/>
        <pt x="592" y="276" on="0"/>
        <pt x="592" y="111" on="0"/>
        <pt x="437" y="-1" on="0"/>
        <pt x="333" y="-1" on="1"/>
        <pt x="201" y="0" on="0"/>
        <pt x="75" y="100" on="1"/>
        <pt x="59" y="114" on="0"/>
        <pt x="72" y="131" on="1"/>
        <pt x="78" y="138" on="0"/>
        <pt x="96" y="140" on="0"/>
        <pt x="103" y="134" on="1"/>
        <pt x="216" y="43" on="0"/>
        <pt x="333" y="44" on="1"/>
        <pt x="425" y="44" on="0"/>
        <pt x="487" y="90" on="1"/>
        <pt x="547" y="133" on="0"/>
        <pt x="547" y="194" on="1"/>
        <pt x="547" y="306" on="0"/>
        <pt x="328" y="347" on="1"/>
        <pt x="326" y="347" on="1"/>
        <pt x="89" y="391" on="0"/>
        <pt x="89" y="528" on="1"/>
        <pt x="89" y="606" on="0"/>
        <pt x="232" y="710" on="0"/>
        <pt x="331" y="710" on="1"/>
        <pt x="374" y="710" on="0"/>
        <pt x="461" y="681" on="0"/>
        <pt x="509" y="654" on="0"/>
        <pt x="547" y="629" on="1"/>
        <pt x="565" y="617" on="0"/>
        <pt x="553" y="598" on="1"/>
        <pt x="542" y="580" on="0"/>
        <pt x="523" y="592" on="1"/>
        <pt x="487" y="615" on="0"/>
        <pt x="442" y="641" on="0"/>
        <pt x="367" y="666" on="0"/>
        <pt x="331" y="666" on="1"/>
        <pt x="247" y="666" on="0"/>
        <pt x="188" y="624" on="1"/>
        <pt x="133" y="583" on="0"/>
      </contour>
    </TTGlyph>
    <TTGlyph name="Scaron" xMin="72" yMin="-1" xMax="592" yMax="900">
      <contour>
        <pt x="329" y="829" on="1"/>
        <pt x="392" y="887" on="1"/>
        <pt x="406" y="900" on="0"/>
        <pt x="437" y="900" on="0"/>
        <pt x="437" y="890" on="1"/>
        <pt x="437" y="884" on="0"/>
        <pt x="432" y="878" on="1"/>
        <pt x="360" y="790" on="1"/>
        <pt x="345" y="772" on="0"/>
        <pt x="332" y="772" on="1"/>
        <pt x="324" y="772" on="1"/>
        <pt x="311" y="772" on="0"/>
        <pt x="296" y="790" on="1"/>
        <pt x="224" y="878" on="1"/>
        <pt x="219" y="884" on="0"/>
        <pt x="219" y="890" on="1"/>
        <pt x="219" y="900" on="0"/>
        <pt x="252" y="900" on="0"/>
        <pt x="266" y="887" on="1"/>
      </contour>
      <contour>
        <pt x="328" y="347" on="1"/>
        <pt x="547" y="306" on="0"/>
        <pt x="547" y="194" on="1"/>
        <pt x="547" y="133" on="0"/>
        <pt x="487" y="90" on="1"/>
        <pt x="425" y="44" on="0"/>
        <pt x="333" y="44" on="1"/>
        <pt x="216" y="43" on="0"/>
        <pt x="103" y="134" on="1"/>
        <pt x="96" y="140" on="0"/>
        <pt x="78" y="138" on="0"/>
        <pt x="72" y="131" on="1"/>
        <pt x="59" y="114" on="0"/>
        <pt x="75" y="100" on="1"/>
        <pt x="201" y="0" on="0"/>
        <pt x="333" y="-1" on="1"/>
        <pt x="437" y="-1" on="0"/>
        <pt x="592" y="111" on="0"/>
        <pt x="592" y="276" on="0"/>
        <pt x="515" y="326" on="1"/>
        <pt x="452" y="369" on="0"/>
        <pt x="337" y="390" on="1"/>
        <pt x="335" y="390" on="1"/>
        <pt x="135" y="428" on="0"/>
        <pt x="133" y="528" on="1"/>
        <pt x="133" y="583" on="0"/>
        <pt x="188" y="624" on="1"/>
        <pt x="247" y="666" on="0"/>
        <pt x="331" y="666" on="1"/>
        <pt x="367" y="666" on="0"/>
        <pt x="442" y="641" on="0"/>
        <pt x="487" y="615" on="0"/>
        <pt x="523" y="592" on="1"/>
        <pt x="542" y="580" on="0"/>
        <pt x="565" y="617" on="0"/>
        <pt x="547" y="629" on="1"/>
        <pt x="509" y="654" on="0"/>
        <pt x="461" y="681" on="0"/>
        <pt x="374" y="710" on="0"/>
        <pt x="331" y="710" on="1"/>
        <pt x="232" y="710" on="0"/>
        <pt x="89" y="606" on="0"/>
        <pt x="89" y="528" on="1"/>
        <pt x="89" y="391" on="0"/>
        <pt x="326" y="347" on="1"/>
      </contour>
    </TTGlyph>
    <TTGlyph name="T" xMin="50" yMin="0" xMax="568" yMax="700">
      <contour>
        <pt x="285" y="24" on="1"/>
        <pt x="285" y="651" on="1"/>
        <pt x="74" y="651" on="1"/>
        <pt x="64" y="651" on="0"/>
        <pt x="50" y="666" on="0"/>
        <pt x="50" y="686" on="0"/>
        <pt x="64" y="700" on="0"/>
        <pt x="74" y="700" on="1"/>
        <pt x="544" y="700" on="1"/>
        <pt x="554" y="700" on="0"/>
        <pt x="568" y="686" on="0"/>
        <pt x="568" y="666" on="0"/>
        <pt x="554" y="651" on="0"/>
        <pt x="544" y="651" on="1"/>
        <pt x="333" y="651" on="1"/>
        <pt x="333" y="24" on="1"/>
        <pt x="333" y="14" on="0"/>
        <pt x="319" y="0" on="0"/>
        <pt x="299" y="0" on="0"/>
        <pt x="285" y="14" on="0"/>
      </contour>
    </TTGlyph>
    <TTGlyph name="Thorn" xMin="104" yMin="-4" xMax="618" yMax="704">
      <contour>
        <pt x="104" y="22" on="1"/>
        <pt x="104" y="678" on="1"/>
        <pt x="104" y="688" on="0"/>
        <pt x="120" y="704" on="0"/>
        <pt x="140" y="704" on="0"/>
        <pt x="156" y="688" on="0"/>
        <pt x="156" y="678" on="1"/>
        <pt x="156" y="573" on="1"/>
        <pt x="358" y="573" on="1"/>
        <pt x="475" y="573" on="0"/>
        <pt x="618" y="459" on="0"/>
        <pt x="618" y="359" on="1"/>
        <pt x="618" y="357" on="1"/>
        <pt x="618" y="251" on="0"/>
        <pt x="461" y="133" on="0"/>
        <pt x="345" y="133" on="1"/>
        <pt x="156" y="133" on="1"/>
        <pt x="156" y="22" on="1"/>
        <pt x="156" y="12" on="0"/>
        <pt x="140" y="-4" on="0"/>
        <pt x="120" y="-4" on="0"/>
        <pt x="104" y="12" on="0"/>
      </contour>
      <contour>
        <pt x="156" y="181" on="1"/>
        <pt x="348" y="181" on="1"/>
        <pt x="446" y="181" on="0"/>
        <pt x="566" y="276" on="0"/>
        <pt x="566" y="354" on="1"/>
        <pt x="566" y="356" on="1"/>
        <pt x="566" y="437" on="0"/>
        <pt x="451" y="525" on="0"/>
        <pt x="354" y="525" on="1"/>
        <pt x="156" y="525" on="1"/>
      </contour>
    </TTGlyph>
    <TTGlyph name="U" xMin="105" yMin="0" xMax="671" yMax="700">
      <contour>
        <pt x="105" y="283" on="1"/>
        <pt x="105" y="676" on="1"/>
        <pt x="105" y="686" on="0"/>
        <pt x="119" y="700" on="0"/>
        <pt x="139" y="700" on="0"/>
        <pt x="154" y="686" on="0"/>
        <pt x="154" y="676" on="1"/>
        <pt x="154" y="283" on="1"/>
        <pt x="154" y="186" on="0"/>
        <pt x="291" y="50" on="0"/>
        <pt x="387" y="49" on="1"/>
        <pt x="485" y="50" on="0"/>
        <pt x="622" y="186" on="0"/>
        <pt x="622" y="283" on="1"/>
        <pt x="622" y="676" on="1"/>
        <pt x="622" y="686" on="0"/>
        <pt x="636" y="700" on="0"/>
        <pt x="656" y="700" on="0"/>
        <pt x="671" y="686" on="0"/>
        <pt x="671" y="676" on="1"/>
        <pt x="671" y="283" on="1"/>
        <pt x="671" y="166" on="0"/>
        <pt x="505" y="0" on="0"/>
        <pt x="271" y="0" on="0"/>
        <pt x="105" y="166" on="0"/>
      </contour>
    </TTGlyph>
    <TTGlyph name="Uacute" xMin="93" yMin="0" xMax="659" yMax="923">
      <contour>
        <pt x="93" y="283" on="1"/>
        <pt x="93" y="166" on="0"/>
        <pt x="259" y="0" on="0"/>
        <pt x="493" y="0" on="0"/>
        <pt x="659" y="166" on="0"/>
        <pt x="659" y="283" on="1"/>
        <pt x="659" y="676" on="1"/>
        <pt x="659" y="686" on="0"/>
        <pt x="644" y="700" on="0"/>
        <pt x="624" y="700" on="0"/>
        <pt x="610" y="686" on="0"/>
        <pt x="610" y="676" on="1"/>
        <pt x="610" y="283" on="1"/>
        <pt x="610" y="186" on="0"/>
        <pt x="473" y="50" on="0"/>
        <pt x="375" y="49" on="1"/>
        <pt x="279" y="50" on="0"/>
        <pt x="142" y="186" on="0"/>
        <pt x="142" y="283" on="1"/>
        <pt x="142" y="676" on="1"/>
        <pt x="142" y="686" on="0"/>
        <pt x="127" y="700" on="0"/>
        <pt x="107" y="700" on="0"/>
        <pt x="93" y="686" on="0"/>
        <pt x="93" y="676" on="1"/>
      </contour>
      <contour>
        <pt x="353" y="805" on="1"/>
        <pt x="339" y="792" on="0"/>
        <pt x="308" y="792" on="0"/>
        <pt x="308" y="801" on="1"/>
        <pt x="308" y="806" on="0"/>
        <pt x="312" y="812" on="1"/>
        <pt x="374" y="905" on="1"/>
        <pt x="386" y="923" on="0"/>
        <pt x="416" y="923" on="0"/>
        <pt x="444" y="908" on="0"/>
        <pt x="444" y="893" on="0"/>
        <pt x="433" y="882" on="1"/>
      </contour>
    </TTGlyph>
    <TTGlyph name="Ucircumflex" xMin="93" yMin="0" xMax="659" yMax="920">
      <contour>
        <pt x="93" y="283" on="1"/>
        <pt x="93" y="166" on="0"/>
        <pt x="259" y="0" on="0"/>
        <pt x="493" y="0" on="0"/>
        <pt x="659" y="166" on="0"/>
        <pt x="659" y="283" on="1"/>
        <pt x="659" y="676" on="1"/>
        <pt x="659" y="686" on="0"/>
        <pt x="644" y="700" on="0"/>
        <pt x="624" y="700" on="0"/>
        <pt x="610" y="686" on="0"/>
        <pt x="610" y="676" on="1"/>
        <pt x="610" y="283" on="1"/>
        <pt x="610" y="186" on="0"/>
        <pt x="473" y="50" on="0"/>
        <pt x="375" y="49" on="1"/>
        <pt x="279" y="50" on="0"/>
        <pt x="142" y="186" on="0"/>
        <pt x="142" y="283" on="1"/>
        <pt x="142" y="676" on="1"/>
        <pt x="142" y="686" on="0"/>
        <pt x="127" y="700" on="0"/>
        <pt x="107" y="700" on="0"/>
        <pt x="93" y="686" on="0"/>
        <pt x="93" y="676" on="1"/>
      </contour>
      <contour>
        <pt x="376" y="863" on="1"/>
        <pt x="313" y="805" on="1"/>
        <pt x="299" y="792" on="0"/>
        <pt x="268" y="792" on="0"/>
        <pt x="268" y="802" on="1"/>
        <pt x="268" y="808" on="0"/>
        <pt x="273" y="814" on="1"/>
        <pt x="345" y="902" on="1"/>
        <pt x="360" y="920" on="0"/>
        <pt x="373" y="920" on="1"/>
        <pt x="381" y="920" on="1"/>
        <pt x="394" y="920" on="0"/>
        <pt x="409" y="902" on="1"/>
        <pt x="481" y="814" on="1"/>
        <pt x="486" y="808" on="0"/>
        <pt x="486" y="802" on="1"/>
        <pt x="486" y="792" on="0"/>
        <pt x="453" y="792" on="0"/>
        <pt x="439" y="805" on="1"/>
      </contour>
    </TTGlyph>
    <TTGlyph name="Udieresis" xMin="93" yMin="0" xMax="659" yMax="880">
      <contour>
        <pt x="93" y="283" on="1"/>
        <pt x="93" y="166" on="0"/>
        <pt x="259" y="0" on="0"/>
        <pt x="493" y="0" on="0"/>
        <pt x="659" y="166" on="0"/>
        <pt x="659" y="283" on="1"/>
        <pt x="659" y="676" on="1"/>
        <pt x="659" y="686" on="0"/>
        <pt x="644" y="700" on="0"/>
        <pt x="624" y="700" on="0"/>
        <pt x="610" y="686" on="0"/>
        <pt x="610" y="676" on="1"/>
        <pt x="610" y="283" on="1"/>
        <pt x="610" y="186" on="0"/>
        <pt x="473" y="50" on="0"/>
        <pt x="375" y="49" on="1"/>
        <pt x="279" y="50" on="0"/>
        <pt x="142" y="186" on="0"/>
        <pt x="142" y="283" on="1"/>
        <pt x="142" y="676" on="1"/>
        <pt x="142" y="686" on="0"/>
        <pt x="127" y="700" on="0"/>
        <pt x="107" y="700" on="0"/>
        <pt x="93" y="686" on="0"/>
        <pt x="93" y="676" on="1"/>
      </contour>
      <contour>
        <pt x="251" y="819" on="0"/>
        <pt x="251" y="855" on="0"/>
        <pt x="276" y="880" on="0"/>
        <pt x="312" y="880" on="0"/>
        <pt x="337" y="855" on="0"/>
        <pt x="337" y="819" on="0"/>
        <pt x="312" y="794" on="0"/>
        <pt x="276" y="794" on="0"/>
      </contour>
      <contour>
        <pt x="416" y="819" on="0"/>
        <pt x="416" y="855" on="0"/>
        <pt x="441" y="880" on="0"/>
        <pt x="477" y="880" on="0"/>
        <pt x="502" y="855" on="0"/>
        <pt x="502" y="819" on="0"/>
        <pt x="477" y="794" on="0"/>
        <pt x="441" y="794" on="0"/>
      </contour>
    </TTGlyph>
    <TTGlyph name="Ugrave" xMin="93" yMin="0" xMax="659" yMax="923">
      <contour>
        <pt x="93" y="283" on="1"/>
        <pt x="93" y="166" on="0"/>
        <pt x="259" y="0" on="0"/>
        <pt x="493" y="0" on="0"/>
        <pt x="659" y="166" on="0"/>
        <pt x="659" y="283" on="1"/>
        <pt x="659" y="676" on="1"/>
        <pt x="659" y="686" on="0"/>
        <pt x="644" y="700" on="0"/>
        <pt x="624" y="700" on="0"/>
        <pt x="610" y="686" on="0"/>
        <pt x="610" y="676" on="1"/>
        <pt x="610" y="283" on="1"/>
        <pt x="610" y="186" on="0"/>
        <pt x="473" y="50" on="0"/>
        <pt x="375" y="49" on="1"/>
        <pt x="279" y="50" on="0"/>
        <pt x="142" y="186" on="0"/>
        <pt x="142" y="283" on="1"/>
        <pt x="142" y="676" on="1"/>
        <pt x="142" y="686" on="0"/>
        <pt x="127" y="700" on="0"/>
        <pt x="107" y="700" on="0"/>
        <pt x="93" y="686" on="0"/>
        <pt x="93" y="676" on="1"/>
      </contour>
      <contour>
        <pt x="444" y="801" on="1"/>
        <pt x="444" y="792" on="0"/>
        <pt x="413" y="792" on="0"/>
        <pt x="399" y="805" on="1"/>
        <pt x="319" y="882" on="1"/>
        <pt x="308" y="893" on="0"/>
        <pt x="308" y="908" on="0"/>
        <pt x="336" y="923" on="0"/>
        <pt x="366" y="923" on="0"/>
        <pt x="378" y="905" on="1"/>
        <pt x="440" y="812" on="1"/>
        <pt x="444" y="806" on="0"/>
      </contour>
    </TTGlyph>
    <TTGlyph name="V" xMin="61" yMin="0" xMax="651" yMax="695">
      <contour>
        <pt x="365" y="2" on="1"/>
        <pt x="359" y="0" on="0"/>
        <pt x="348" y="0" on="0"/>
        <pt x="346" y="2" on="1"/>
        <pt x="337" y="5" on="0"/>
        <pt x="334" y="14" on="1"/>
        <pt x="333" y="14" on="0"/>
        <pt x="333" y="16" on="1"/>
        <pt x="332" y="17" on="1"/>
        <pt x="61" y="662" on="1"/>
        <pt x="57" y="671" on="0"/>
        <pt x="65" y="690" on="0"/>
        <pt x="83" y="698" on="0"/>
        <pt x="102" y="691" on="0"/>
        <pt x="106" y="682" on="1"/>
        <pt x="356" y="86" on="1"/>
        <pt x="607" y="682" on="1"/>
        <pt x="610" y="691" on="0"/>
        <pt x="629" y="698" on="0"/>
        <pt x="647" y="690" on="0"/>
        <pt x="655" y="671" on="0"/>
        <pt x="651" y="662" on="1"/>
        <pt x="380" y="22" on="1"/>
        <pt x="378" y="7" on="0"/>
        <pt x="366" y="2" on="1"/>
      </contour>
    </TTGlyph>
    <TTGlyph name="W" xMin="65" yMin="0" xMax="1059" yMax="695">
      <contour>
        <pt x="761" y="0" on="1"/>
        <pt x="748" y="0" on="0"/>
        <pt x="741" y="14" on="1"/>
        <pt x="741" y="16" on="0"/>
        <pt x="740" y="17" on="1"/>
        <pt x="562" y="440" on="1"/>
        <pt x="383" y="17" on="1"/>
        <pt x="383" y="12" on="0"/>
        <pt x="376" y="5" on="1"/>
        <pt x="366" y="0" on="0"/>
        <pt x="359" y="0" on="1"/>
        <pt x="350" y="0" on="0"/>
        <pt x="337" y="13" on="0"/>
        <pt x="336" y="20" on="1"/>
        <pt x="66" y="662" on="1"/>
        <pt x="62" y="671" on="0"/>
        <pt x="69" y="690" on="0"/>
        <pt x="87" y="698" on="0"/>
        <pt x="106" y="691" on="0"/>
        <pt x="110" y="682" on="1"/>
        <pt x="360" y="87" on="1"/>
        <pt x="538" y="508" on="1"/>
        <pt x="546" y="523" on="0"/>
        <pt x="578" y="523" on="0"/>
        <pt x="586" y="508" on="1"/>
        <pt x="763" y="87" on="1"/>
        <pt x="1013" y="682" on="1"/>
        <pt x="1024" y="704" on="0"/>
        <pt x="1046" y="694" on="1"/>
        <pt x="1055" y="690" on="0"/>
        <pt x="1062" y="671" on="0"/>
        <pt x="1058" y="662" on="1"/>
        <pt x="786" y="16" on="1"/>
        <pt x="780" y="2" on="0"/>
        <pt x="766" y="0" on="1"/>
      </contour>
    </TTGlyph>
    <TTGlyph name="X" xMin="76" yMin="0" xMax="598" yMax="697">
      <contour>
        <pt x="86" y="5" on="1"/>
        <pt x="66" y="20" on="0"/>
        <pt x="82" y="39" on="1"/>
        <pt x="307" y="348" on="1"/>
        <pt x="82" y="657" on="1"/>
        <pt x="75" y="665" on="0"/>
        <pt x="78" y="686" on="0"/>
        <pt x="86" y="691" on="1"/>
        <pt x="94" y="698" on="0"/>
        <pt x="115" y="695" on="0"/>
        <pt x="120" y="687" on="1"/>
        <pt x="337" y="389" on="1"/>
        <pt x="554" y="687" on="1"/>
        <pt x="570" y="706" on="0"/>
        <pt x="588" y="691" on="1"/>
        <pt x="596" y="686" on="0"/>
        <pt x="600" y="665" on="0"/>
        <pt x="593" y="657" on="1"/>
        <pt x="367" y="348" on="1"/>
        <pt x="593" y="39" on="1"/>
        <pt x="600" y="31" on="0"/>
        <pt x="596" y="11" on="0"/>
        <pt x="580" y="0" on="0"/>
        <pt x="562" y="0" on="0"/>
        <pt x="554" y="11" on="1"/>
        <pt x="337" y="308" on="1"/>
        <pt x="120" y="11" on="1"/>
        <pt x="114" y="0" on="0"/>
        <pt x="94" y="0" on="0"/>
      </contour>
    </TTGlyph>
    <TTGlyph name="Y" xMin="61" yMin="0" xMax="583" yMax="697">
      <contour>
        <pt x="296" y="24" on="1"/>
        <pt x="296" y="336" on="1"/>
        <pt x="61" y="657" on="1"/>
        <pt x="48" y="678" on="0"/>
        <pt x="66" y="691" on="1"/>
        <pt x="74" y="698" on="0"/>
        <pt x="95" y="695" on="0"/>
        <pt x="100" y="687" on="1"/>
        <pt x="319" y="386" on="1"/>
        <pt x="539" y="687" on="1"/>
        <pt x="544" y="695" on="0"/>
        <pt x="565" y="698" on="0"/>
        <pt x="573" y="691" on="1"/>
        <pt x="581" y="686" on="0"/>
        <pt x="584" y="665" on="0"/>
        <pt x="578" y="657" on="1"/>
        <pt x="344" y="338" on="1"/>
        <pt x="344" y="24" on="1"/>
        <pt x="344" y="14" on="0"/>
        <pt x="330" y="0" on="0"/>
        <pt x="310" y="0" on="0"/>
        <pt x="296" y="14" on="0"/>
      </contour>
    </TTGlyph>
    <TTGlyph name="Yacute" xMin="61" yMin="0" xMax="583" yMax="923">
      <contour>
        <pt x="296" y="24" on="1"/>
        <pt x="296" y="14" on="0"/>
        <pt x="310" y="0" on="0"/>
        <pt x="330" y="0" on="0"/>
        <pt x="344" y="14" on="0"/>
        <pt x="344" y="24" on="1"/>
        <pt x="344" y="338" on="1"/>
        <pt x="578" y="657" on="1"/>
        <pt x="584" y="665" on="0"/>
        <pt x="581" y="686" on="0"/>
        <pt x="573" y="691" on="1"/>
        <pt x="565" y="698" on="0"/>
        <pt x="544" y="695" on="0"/>
        <pt x="539" y="687" on="1"/>
        <pt x="319" y="386" on="1"/>
        <pt x="100" y="687" on="1"/>
        <pt x="95" y="695" on="0"/>
        <pt x="74" y="698" on="0"/>
        <pt x="66" y="691" on="1"/>
        <pt x="48" y="678" on="0"/>
        <pt x="61" y="657" on="1"/>
        <pt x="296" y="336" on="1"/>
      </contour>
      <contour>
        <pt x="297" y="805" on="1"/>
        <pt x="283" y="792" on="0"/>
        <pt x="252" y="792" on="0"/>
        <pt x="252" y="801" on="1"/>
        <pt x="252" y="806" on="0"/>
        <pt x="256" y="812" on="1"/>
        <pt x="318" y="905" on="1"/>
        <pt x="330" y="923" on="0"/>
        <pt x="360" y="923" on="0"/>
        <pt x="388" y="908" on="0"/>
        <pt x="388" y="893" on="0"/>
        <pt x="377" y="882" on="1"/>
      </contour>
    </TTGlyph>
    <TTGlyph name="Ydieresis" xMin="61" yMin="0" xMax="583" yMax="880">
      <contour>
        <pt x="296" y="24" on="1"/>
        <pt x="296" y="14" on="0"/>
        <pt x="310" y="0" on="0"/>
        <pt x="330" y="0" on="0"/>
        <pt x="344" y="14" on="0"/>
        <pt x="344" y="24" on="1"/>
        <pt x="344" y="338" on="1"/>
        <pt x="578" y="657" on="1"/>
        <pt x="584" y="665" on="0"/>
        <pt x="581" y="686" on="0"/>
        <pt x="573" y="691" on="1"/>
        <pt x="565" y="698" on="0"/>
        <pt x="544" y="695" on="0"/>
        <pt x="539" y="687" on="1"/>
        <pt x="319" y="386" on="1"/>
        <pt x="100" y="687" on="1"/>
        <pt x="95" y="695" on="0"/>
        <pt x="74" y="698" on="0"/>
        <pt x="66" y="691" on="1"/>
        <pt x="48" y="678" on="0"/>
        <pt x="61" y="657" on="1"/>
        <pt x="296" y="336" on="1"/>
      </contour>
      <contour>
        <pt x="195" y="819" on="0"/>
        <pt x="195" y="855" on="0"/>
        <pt x="220" y="880" on="0"/>
        <pt x="256" y="880" on="0"/>
        <pt x="281" y="855" on="0"/>
        <pt x="281" y="819" on="0"/>
        <pt x="256" y="794" on="0"/>
        <pt x="220" y="794" on="0"/>
      </contour>
      <contour>
        <pt x="360" y="819" on="0"/>
        <pt x="360" y="855" on="0"/>
        <pt x="385" y="880" on="0"/>
        <pt x="421" y="880" on="0"/>
        <pt x="446" y="855" on="0"/>
        <pt x="446" y="819" on="0"/>
        <pt x="421" y="794" on="0"/>
        <pt x="385" y="794" on="0"/>
      </contour>
    </TTGlyph>
    <TTGlyph name="Z" xMin="74" yMin="0" xMax="595" yMax="696">
      <contour>
        <pt x="96" y="0" on="1"/>
        <pt x="89" y="1" on="1"/>
        <pt x="67" y="12" on="0"/>
        <pt x="75" y="33" on="1"/>
        <pt x="78" y="39" on="0"/>
        <pt x="81" y="42" on="1"/>
        <pt x="522" y="648" on="1"/>
        <pt x="98" y="648" on="1"/>
        <pt x="88" y="648" on="0"/>
        <pt x="74" y="662" on="0"/>
        <pt x="74" y="682" on="0"/>
        <pt x="88" y="696" on="0"/>
        <pt x="98" y="696" on="1"/>
        <pt x="563" y="696" on="1"/>
        <pt x="577" y="700" on="0"/>
        <pt x="590" y="687" on="1"/>
        <pt x="602" y="673" on="0"/>
        <pt x="590" y="657" on="1"/>
        <pt x="145" y="49" on="1"/>
        <pt x="571" y="49" on="1"/>
        <pt x="581" y="49" on="0"/>
        <pt x="595" y="35" on="0"/>
        <pt x="595" y="14" on="0"/>
        <pt x="581" y="0" on="0"/>
        <pt x="571" y="0" on="1"/>
      </contour>
    </TTGlyph>
    <TTGlyph name="a" xMin="40" yMin="0" xMax="504" yMax="490">
      <contour>
        <pt x="470" y="490" on="0"/>
        <pt x="490" y="490" on="0"/>
        <pt x="504" y="476" on="0"/>
        <pt x="504" y="466" on="1"/>
        <pt x="504" y="24" on="1"/>
        <pt x="504" y="14" on="0"/>
        <pt x="490" y="0" on="0"/>
        <pt x="470" y="0" on="0"/>
        <pt x="456" y="14" on="0"/>
        <pt x="456" y="24" on="1"/>
        <pt x="456" y="97" on="1"/>
        <pt x="424" y="52" on="0"/>
        <pt x="327" y="0" on="0"/>
        <pt x="272" y="0" on="1"/>
        <pt x="176" y="0" on="0"/>
        <pt x="40" y="144" on="0"/>
        <pt x="40" y="346" on="0"/>
        <pt x="176" y="490" on="0"/>
        <pt x="272" y="490" on="1"/>
        <pt x="327" y="490" on="0"/>
        <pt x="424" y="438" on="0"/>
        <pt x="456" y="394" on="1"/>
        <pt x="456" y="466" on="1"/>
        <pt x="456" y="476" on="0"/>
      </contour>
      <contour>
        <pt x="88" y="163" on="0"/>
        <pt x="197" y="48" on="0"/>
        <pt x="348" y="48" on="0"/>
        <pt x="456" y="163" on="0"/>
        <pt x="456" y="327" on="0"/>
        <pt x="348" y="443" on="0"/>
        <pt x="197" y="443" on="0"/>
        <pt x="88" y="327" on="0"/>
      </contour>
    </TTGlyph>
    <TTGlyph name="aacute" xMin="63" yMin="0" xMax="527" yMax="701">
      <contour>
        <pt x="493" y="490" on="0"/>
        <pt x="513" y="490" on="0"/>
        <pt x="527" y="476" on="0"/>
        <pt x="527" y="466" on="1"/>
        <pt x="527" y="24" on="1"/>
        <pt x="527" y="14" on="0"/>
        <pt x="513" y="0" on="0"/>
        <pt x="493" y="0" on="0"/>
        <pt x="479" y="14" on="0"/>
        <pt x="479" y="24" on="1"/>
        <pt x="479" y="97" on="1"/>
        <pt x="447" y="52" on="0"/>
        <pt x="350" y="0" on="0"/>
        <pt x="295" y="0" on="1"/>
        <pt x="199" y="0" on="0"/>
        <pt x="63" y="144" on="0"/>
        <pt x="63" y="346" on="0"/>
        <pt x="199" y="490" on="0"/>
        <pt x="295" y="490" on="1"/>
        <pt x="350" y="490" on="0"/>
        <pt x="447" y="438" on="0"/>
        <pt x="479" y="394" on="1"/>
        <pt x="479" y="466" on="1"/>
        <pt x="479" y="476" on="0"/>
      </contour>
      <contour>
        <pt x="111" y="163" on="0"/>
        <pt x="220" y="48" on="0"/>
        <pt x="371" y="48" on="0"/>
        <pt x="479" y="163" on="0"/>
        <pt x="479" y="327" on="0"/>
        <pt x="371" y="443" on="0"/>
        <pt x="220" y="443" on="0"/>
        <pt x="111" y="327" on="0"/>
      </contour>
      <contour>
        <pt x="272" y="583" on="1"/>
        <pt x="258" y="570" on="0"/>
        <pt x="227" y="570" on="0"/>
        <pt x="227" y="579" on="1"/>
        <pt x="227" y="584" on="0"/>
        <pt x="231" y="590" on="1"/>
        <pt x="293" y="683" on="1"/>
        <pt x="305" y="701" on="0"/>
        <pt x="335" y="701" on="0"/>
        <pt x="363" y="686" on="0"/>
        <pt x="363" y="671" on="0"/>
        <pt x="352" y="660" on="1"/>
      </contour>
    </TTGlyph>
    <TTGlyph name="acircumflex" xMin="63" yMin="0" xMax="527" yMax="698">
      <contour>
        <pt x="493" y="490" on="0"/>
        <pt x="513" y="490" on="0"/>
        <pt x="527" y="476" on="0"/>
        <pt x="527" y="466" on="1"/>
        <pt x="527" y="24" on="1"/>
        <pt x="527" y="14" on="0"/>
        <pt x="513" y="0" on="0"/>
        <pt x="493" y="0" on="0"/>
        <pt x="479" y="14" on="0"/>
        <pt x="479" y="24" on="1"/>
        <pt x="479" y="97" on="1"/>
        <pt x="447" y="52" on="0"/>
        <pt x="350" y="0" on="0"/>
        <pt x="295" y="0" on="1"/>
        <pt x="199" y="0" on="0"/>
        <pt x="63" y="144" on="0"/>
        <pt x="63" y="346" on="0"/>
        <pt x="199" y="490" on="0"/>
        <pt x="295" y="490" on="1"/>
        <pt x="350" y="490" on="0"/>
        <pt x="447" y="438" on="0"/>
        <pt x="479" y="394" on="1"/>
        <pt x="479" y="466" on="1"/>
        <pt x="479" y="476" on="0"/>
      </contour>
      <contour>
        <pt x="111" y="163" on="0"/>
        <pt x="220" y="48" on="0"/>
        <pt x="371" y="48" on="0"/>
        <pt x="479" y="163" on="0"/>
        <pt x="479" y="327" on="0"/>
        <pt x="371" y="443" on="0"/>
        <pt x="220" y="443" on="0"/>
        <pt x="111" y="327" on="0"/>
      </contour>
      <contour>
        <pt x="294" y="641" on="1"/>
        <pt x="231" y="583" on="1"/>
        <pt x="217" y="570" on="0"/>
        <pt x="186" y="570" on="0"/>
        <pt x="186" y="580" on="1"/>
        <pt x="186" y="586" on="0"/>
        <pt x="191" y="592" on="1"/>
        <pt x="263" y="680" on="1"/>
        <pt x="278" y="698" on="0"/>
        <pt x="291" y="698" on="1"/>
        <pt x="299" y="698" on="1"/>
        <pt x="312" y="698" on="0"/>
        <pt x="327" y="680" on="1"/>
        <pt x="399" y="592" on="1"/>
        <pt x="404" y="586" on="0"/>
        <pt x="404" y="580" on="1"/>
        <pt x="404" y="570" on="0"/>
        <pt x="371" y="570" on="0"/>
        <pt x="357" y="583" on="1"/>
      </contour>
    </TTGlyph>
    <TTGlyph name="acute" xMin="201" yMin="592" xMax="337" yMax="723">
      <contour>
        <pt x="246" y="605" on="1"/>
        <pt x="232" y="592" on="0"/>
        <pt x="201" y="592" on="0"/>
        <pt x="201" y="601" on="1"/>
        <pt x="201" y="606" on="0"/>
        <pt x="205" y="612" on="1"/>
        <pt x="267" y="705" on="1"/>
        <pt x="279" y="723" on="0"/>
        <pt x="309" y="723" on="0"/>
        <pt x="337" y="708" on="0"/>
        <pt x="337" y="693" on="0"/>
        <pt x="326" y="682" on="1"/>
      </contour>
    </TTGlyph>
    <TTGlyph name="adieresis" xMin="63" yMin="0" xMax="527" yMax="656">
      <contour>
        <pt x="493" y="490" on="0"/>
        <pt x="513" y="490" on="0"/>
        <pt x="527" y="476" on="0"/>
        <pt x="527" y="466" on="1"/>
        <pt x="527" y="24" on="1"/>
        <pt x="527" y="14" on="0"/>
        <pt x="513" y="0" on="0"/>
        <pt x="493" y="0" on="0"/>
        <pt x="479" y="14" on="0"/>
        <pt x="479" y="24" on="1"/>
        <pt x="479" y="97" on="1"/>
        <pt x="447" y="52" on="0"/>
        <pt x="350" y="0" on="0"/>
        <pt x="295" y="0" on="1"/>
        <pt x="199" y="0" on="0"/>
        <pt x="63" y="144" on="0"/>
        <pt x="63" y="346" on="0"/>
        <pt x="199" y="490" on="0"/>
        <pt x="295" y="490" on="1"/>
        <pt x="350" y="490" on="0"/>
        <pt x="447" y="438" on="0"/>
        <pt x="479" y="394" on="1"/>
        <pt x="479" y="466" on="1"/>
        <pt x="479" y="476" on="0"/>
      </contour>
      <contour>
        <pt x="111" y="163" on="0"/>
        <pt x="220" y="48" on="0"/>
        <pt x="371" y="48" on="0"/>
        <pt x="479" y="163" on="0"/>
        <pt x="479" y="327" on="0"/>
        <pt x="371" y="443" on="0"/>
        <pt x="220" y="443" on="0"/>
        <pt x="111" y="327" on="0"/>
      </contour>
      <contour>
        <pt x="171" y="595" on="0"/>
        <pt x="171" y="631" on="0"/>
        <pt x="196" y="656" on="0"/>
        <pt x="232" y="656" on="0"/>
        <pt x="257" y="631" on="0"/>
        <pt x="257" y="595" on="0"/>
        <pt x="232" y="570" on="0"/>
        <pt x="196" y="570" on="0"/>
      </contour>
      <contour>
        <pt x="336" y="595" on="0"/>
        <pt x="336" y="631" on="0"/>
        <pt x="361" y="656" on="0"/>
        <pt x="397" y="656" on="0"/>
        <pt x="422" y="631" on="0"/>
        <pt x="422" y="595" on="0"/>
        <pt x="397" y="570" on="0"/>
        <pt x="361" y="570" on="0"/>
      </contour>
    </TTGlyph>
    <TTGlyph name="ae" xMin="51" yMin="0" xMax="949" yMax="492">
      <contour>
        <pt x="949" y="264" on="1"/>
        <pt x="949" y="260" on="1"/>
        <pt x="949" y="250" on="0"/>
        <pt x="935" y="236" on="0"/>
        <pt x="925" y="236" on="1"/>
        <pt x="521" y="236" on="1"/>
        <pt x="525" y="156" on="0"/>
        <pt x="635" y="48" on="0"/>
        <pt x="712" y="48" on="1"/>
        <pt x="761" y="48" on="0"/>
        <pt x="845" y="96" on="0"/>
        <pt x="870" y="137" on="1"/>
        <pt x="875" y="146" on="0"/>
        <pt x="896" y="150" on="0"/>
        <pt x="903" y="145" on="1"/>
        <pt x="923" y="131" on="0"/>
        <pt x="911" y="112" on="1"/>
        <pt x="878" y="60" on="0"/>
        <pt x="774" y="0" on="0"/>
        <pt x="652" y="0" on="0"/>
        <pt x="548" y="58" on="0"/>
        <pt x="515" y="107" on="1"/>
        <pt x="515" y="24" on="1"/>
        <pt x="515" y="14" on="0"/>
        <pt x="501" y="0" on="0"/>
        <pt x="481" y="0" on="0"/>
        <pt x="467" y="14" on="0"/>
        <pt x="467" y="24" on="1"/>
        <pt x="467" y="97" on="1"/>
        <pt x="435" y="52" on="0"/>
        <pt x="338" y="0" on="0"/>
        <pt x="283" y="0" on="1"/>
        <pt x="187" y="0" on="0"/>
        <pt x="51" y="144" on="0"/>
        <pt x="51" y="346" on="0"/>
        <pt x="187" y="490" on="0"/>
        <pt x="283" y="490" on="1"/>
        <pt x="338" y="490" on="0"/>
        <pt x="435" y="438" on="0"/>
        <pt x="467" y="394" on="1"/>
        <pt x="467" y="466" on="1"/>
        <pt x="467" y="476" on="0"/>
        <pt x="481" y="490" on="0"/>
        <pt x="501" y="490" on="0"/>
        <pt x="515" y="476" on="0"/>
        <pt x="515" y="466" on="1"/>
        <pt x="515" y="385" on="1"/>
        <pt x="548" y="434" on="0"/>
        <pt x="652" y="492" on="0"/>
        <pt x="712" y="492" on="1"/>
        <pt x="806" y="492" on="0"/>
        <pt x="941" y="360" on="0"/>
      </contour>
      <contour>
        <pt x="99" y="163" on="0"/>
        <pt x="208" y="48" on="0"/>
        <pt x="359" y="48" on="0"/>
        <pt x="467" y="163" on="0"/>
        <pt x="467" y="327" on="0"/>
        <pt x="359" y="443" on="0"/>
        <pt x="208" y="443" on="0"/>
        <pt x="99" y="327" on="0"/>
      </contour>
      <contour>
        <pt x="524" y="285" on="1"/>
        <pt x="897" y="285" on="1"/>
        <pt x="884" y="354" on="0"/>
        <pt x="780" y="444" on="0"/>
        <pt x="643" y="444" on="0"/>
        <pt x="538" y="354" on="0"/>
      </contour>
    </TTGlyph>
    <TTGlyph name="agrave" xMin="63" yMin="0" xMax="527" yMax="701">
      <contour>
        <pt x="493" y="490" on="0"/>
        <pt x="513" y="490" on="0"/>
        <pt x="527" y="476" on="0"/>
        <pt x="527" y="466" on="1"/>
        <pt x="527" y="24" on="1"/>
        <pt x="527" y="14" on="0"/>
        <pt x="513" y="0" on="0"/>
        <pt x="493" y="0" on="0"/>
        <pt x="479" y="14" on="0"/>
        <pt x="479" y="24" on="1"/>
        <pt x="479" y="97" on="1"/>
        <pt x="447" y="52" on="0"/>
        <pt x="350" y="0" on="0"/>
        <pt x="295" y="0" on="1"/>
        <pt x="199" y="0" on="0"/>
        <pt x="63" y="144" on="0"/>
        <pt x="63" y="346" on="0"/>
        <pt x="199" y="490" on="0"/>
        <pt x="295" y="490" on="1"/>
        <pt x="350" y="490" on="0"/>
        <pt x="447" y="438" on="0"/>
        <pt x="479" y="394" on="1"/>
        <pt x="479" y="466" on="1"/>
        <pt x="479" y="476" on="0"/>
      </contour>
      <contour>
        <pt x="111" y="163" on="0"/>
        <pt x="220" y="48" on="0"/>
        <pt x="371" y="48" on="0"/>
        <pt x="479" y="163" on="0"/>
        <pt x="479" y="327" on="0"/>
        <pt x="371" y="443" on="0"/>
        <pt x="220" y="443" on="0"/>
        <pt x="111" y="327" on="0"/>
      </contour>
      <contour>
        <pt x="364" y="579" on="1"/>
        <pt x="364" y="570" on="0"/>
        <pt x="333" y="570" on="0"/>
        <pt x="319" y="583" on="1"/>
        <pt x="239" y="660" on="1"/>
        <pt x="228" y="671" on="0"/>
        <pt x="228" y="686" on="0"/>
        <pt x="256" y="701" on="0"/>
        <pt x="286" y="701" on="0"/>
        <pt x="298" y="683" on="1"/>
        <pt x="360" y="590" on="1"/>
        <pt x="364" y="584" on="0"/>
      </contour>
    </TTGlyph>
    <TTGlyph name="ampersand" xMin="49" yMin="0" xMax="565" yMax="700">
      <contour>
        <pt x="565" y="367" on="1"/>
        <pt x="569" y="305" on="0"/>
        <pt x="502" y="276" on="1"/>
        <pt x="507" y="251" on="0"/>
        <pt x="507" y="229" on="1"/>
        <pt x="507" y="134" on="0"/>
        <pt x="372" y="0" on="0"/>
        <pt x="184" y="0" on="0"/>
        <pt x="49" y="134" on="0"/>
        <pt x="49" y="229" on="1"/>
        <pt x="49" y="286" on="0"/>
        <pt x="102" y="386" on="0"/>
        <pt x="148" y="418" on="1"/>
        <pt x="104" y="465" on="0"/>
        <pt x="104" y="601" on="0"/>
        <pt x="203" y="700" on="0"/>
        <pt x="343" y="700" on="0"/>
        <pt x="442" y="601" on="0"/>
        <pt x="442" y="531" on="1"/>
        <pt x="442" y="521" on="0"/>
        <pt x="427" y="507" on="0"/>
        <pt x="407" y="507" on="0"/>
        <pt x="393" y="521" on="0"/>
        <pt x="393" y="531" on="1"/>
        <pt x="393" y="581" on="0"/>
        <pt x="323" y="651" on="0"/>
        <pt x="223" y="651" on="0"/>
        <pt x="153" y="581" on="0"/>
        <pt x="153" y="470" on="0"/>
        <pt x="204" y="434" on="1"/>
        <pt x="220" y="421" on="0"/>
        <pt x="212" y="405" on="1"/>
        <pt x="211" y="399" on="0"/>
        <pt x="199" y="390" on="0"/>
        <pt x="195" y="389" on="1"/>
        <pt x="151" y="365" on="0"/>
        <pt x="98" y="281" on="0"/>
        <pt x="98" y="229" on="1"/>
        <pt x="98" y="155" on="0"/>
        <pt x="204" y="49" on="0"/>
        <pt x="352" y="49" on="0"/>
        <pt x="458" y="155" on="0"/>
        <pt x="458" y="229" on="1"/>
        <pt x="458" y="248" on="0"/>
        <pt x="453" y="270" on="1"/>
        <pt x="442" y="272" on="0"/>
        <pt x="423" y="272" on="1"/>
        <pt x="291" y="272" on="0"/>
        <pt x="291" y="190" on="1"/>
        <pt x="291" y="181" on="0"/>
        <pt x="294" y="169" on="1"/>
        <pt x="299" y="145" on="0"/>
        <pt x="278" y="138" on="1"/>
        <pt x="275" y="137" on="0"/>
        <pt x="271" y="137" on="1"/>
        <pt x="252" y="137" on="0"/>
        <pt x="247" y="154" on="1"/>
        <pt x="242" y="159" on="0"/>
        <pt x="242" y="190" on="1"/>
        <pt x="242" y="242" on="0"/>
        <pt x="277" y="275" on="1"/>
        <pt x="323" y="321" on="0"/>
        <pt x="423" y="321" on="1"/>
        <pt x="447" y="321" on="0"/>
        <pt x="458" y="319" on="1"/>
        <pt x="474" y="319" on="1"/>
        <pt x="491" y="322" on="0"/>
        <pt x="502" y="330" on="1"/>
        <pt x="516" y="344" on="0"/>
        <pt x="516" y="383" on="0"/>
        <pt x="514" y="393" on="1"/>
        <pt x="511" y="403" on="0"/>
        <pt x="522" y="420" on="0"/>
        <pt x="532" y="422" on="1"/>
        <pt x="554" y="427" on="0"/>
        <pt x="562" y="404" on="1"/>
        <pt x="565" y="383" on="0"/>
      </contour>
    </TTGlyph>
    <TTGlyph name="aring" xMin="51" yMin="0" xMax="515" yMax="736">
      <contour>
        <pt x="481" y="490" on="0"/>
        <pt x="501" y="490" on="0"/>
        <pt x="515" y="476" on="0"/>
        <pt x="515" y="466" on="1"/>
        <pt x="515" y="24" on="1"/>
        <pt x="515" y="14" on="0"/>
        <pt x="501" y="0" on="0"/>
        <pt x="481" y="0" on="0"/>
        <pt x="467" y="14" on="0"/>
        <pt x="467" y="24" on="1"/>
        <pt x="467" y="97" on="1"/>
        <pt x="435" y="52" on="0"/>
        <pt x="338" y="0" on="0"/>
        <pt x="283" y="0" on="1"/>
        <pt x="187" y="0" on="0"/>
        <pt x="51" y="144" on="0"/>
        <pt x="51" y="346" on="0"/>
        <pt x="187" y="490" on="0"/>
        <pt x="283" y="490" on="1"/>
        <pt x="338" y="490" on="0"/>
        <pt x="435" y="438" on="0"/>
        <pt x="467" y="394" on="1"/>
        <pt x="467" y="466" on="1"/>
        <pt x="467" y="476" on="0"/>
      </contour>
      <contour>
        <pt x="99" y="163" on="0"/>
        <pt x="208" y="48" on="0"/>
        <pt x="359" y="48" on="0"/>
        <pt x="467" y="163" on="0"/>
        <pt x="467" y="327" on="0"/>
        <pt x="359" y="443" on="0"/>
        <pt x="208" y="443" on="0"/>
        <pt x="99" y="327" on="0"/>
      </contour>
      <contour>
        <pt x="375" y="612" on="0"/>
        <pt x="320" y="560" on="0"/>
        <pt x="248" y="560" on="0"/>
        <pt x="194" y="613" on="0"/>
        <pt x="194" y="647" on="1"/>
        <pt x="194" y="648" on="1"/>
        <pt x="194" y="684" on="0"/>
        <pt x="248" y="736" on="0"/>
        <pt x="320" y="736" on="0"/>
        <pt x="375" y="684" on="0"/>
        <pt x="375" y="648" on="1"/>
        <pt x="375" y="647" on="1"/>
      </contour>
      <contour>
        <pt x="237" y="629" on="0"/>
        <pt x="265" y="601" on="0"/>
        <pt x="304" y="601" on="0"/>
        <pt x="332" y="629" on="0"/>
        <pt x="332" y="647" on="1"/>
        <pt x="332" y="648" on="1"/>
        <pt x="332" y="667" on="0"/>
        <pt x="304" y="697" on="0"/>
        <pt x="265" y="697" on="0"/>
        <pt x="237" y="667" on="0"/>
        <pt x="237" y="648" on="1"/>
        <pt x="237" y="647" on="1"/>
      </contour>
    </TTGlyph>
    <TTGlyph name="asciicircum" xMin="80" yMin="489" xMax="420" yMax="707">
      <contour>
        <pt x="249" y="660" on="1"/>
        <pt x="129" y="503" on="1"/>
        <pt x="119" y="489" on="0"/>
        <pt x="80" y="489" on="0"/>
        <pt x="80" y="500" on="1"/>
        <pt x="80" y="506" on="0"/>
        <pt x="85" y="513" on="1"/>
        <pt x="218" y="689" on="1"/>
        <pt x="233" y="707" on="0"/>
        <pt x="246" y="707" on="1"/>
        <pt x="254" y="707" on="1"/>
        <pt x="267" y="707" on="0"/>
        <pt x="282" y="689" on="1"/>
        <pt x="415" y="513" on="1"/>
        <pt x="420" y="506" on="0"/>
        <pt x="420" y="500" on="1"/>
        <pt x="420" y="489" on="0"/>
        <pt x="379" y="489" on="0"/>
        <pt x="369" y="503" on="1"/>
      </contour>
    </TTGlyph>
    <TTGlyph name="asciitilde" xMin="85" yMin="240" xMax="375" yMax="355">
      <contour>
        <pt x="121" y="254" on="1"/>
        <pt x="114" y="240" on="0"/>
        <pt x="103" y="240" on="1"/>
        <pt x="85" y="240" on="0"/>
        <pt x="85" y="257" on="1"/>
        <pt x="85" y="263" on="0"/>
        <pt x="87" y="269" on="1"/>
        <pt x="101" y="311" on="0"/>
        <pt x="138" y="344" on="0"/>
        <pt x="186" y="344" on="0"/>
        <pt x="278" y="303" on="0"/>
        <pt x="310" y="303" on="0"/>
        <pt x="330" y="320" on="0"/>
        <pt x="339" y="341" on="1"/>
        <pt x="346" y="355" on="0"/>
        <pt x="357" y="355" on="1"/>
        <pt x="375" y="355" on="0"/>
        <pt x="375" y="338" on="1"/>
        <pt x="375" y="332" on="0"/>
        <pt x="373" y="326" on="1"/>
        <pt x="359" y="284" on="0"/>
        <pt x="322" y="251" on="0"/>
        <pt x="274" y="251" on="0"/>
        <pt x="182" y="292" on="0"/>
        <pt x="150" y="292" on="0"/>
        <pt x="130" y="275" on="0"/>
      </contour>
    </TTGlyph>
    <TTGlyph name="asterisk" xMin="76" yMin="402" xMax="354" yMax="706">
      <contour>
        <pt x="195" y="424" on="1"/>
        <pt x="203" y="533" on="1"/>
        <pt x="112" y="471" on="1"/>
        <pt x="103" y="465" on="0"/>
        <pt x="88" y="465" on="0"/>
        <pt x="76" y="478" on="0"/>
        <pt x="76" y="499" on="0"/>
        <pt x="90" y="505" on="1"/>
        <pt x="193" y="554" on="1"/>
        <pt x="90" y="603" on="1"/>
        <pt x="76" y="610" on="0"/>
        <pt x="76" y="622" on="1"/>
        <pt x="76" y="641" on="0"/>
        <pt x="96" y="643" on="1"/>
        <pt x="103" y="643" on="0"/>
        <pt x="112" y="637" on="1"/>
        <pt x="203" y="575" on="1"/>
        <pt x="195" y="684" on="1"/>
        <pt x="194" y="693" on="0"/>
        <pt x="206" y="706" on="0"/>
        <pt x="224" y="706" on="0"/>
        <pt x="236" y="693" on="0"/>
        <pt x="235" y="684" on="1"/>
        <pt x="227" y="575" on="1"/>
        <pt x="318" y="637" on="1"/>
        <pt x="327" y="643" on="0"/>
        <pt x="342" y="643" on="0"/>
        <pt x="354" y="630" on="0"/>
        <pt x="354" y="609" on="0"/>
        <pt x="340" y="603" on="1"/>
        <pt x="237" y="554" on="1"/>
        <pt x="340" y="505" on="1"/>
        <pt x="354" y="499" on="0"/>
        <pt x="354" y="478" on="0"/>
        <pt x="342" y="465" on="0"/>
        <pt x="327" y="465" on="0"/>
        <pt x="318" y="471" on="1"/>
        <pt x="227" y="533" on="1"/>
        <pt x="235" y="424" on="1"/>
        <pt x="236" y="415" on="0"/>
        <pt x="224" y="402" on="0"/>
        <pt x="206" y="402" on="0"/>
        <pt x="194" y="415" on="0"/>
      </contour>
    </TTGlyph>
    <TTGlyph name="at" xMin="53" yMin="0" xMax="754" yMax="701">
      <contour>
        <pt x="53" y="205" on="0"/>
        <pt x="53" y="497" on="0"/>
        <pt x="258" y="701" on="0"/>
        <pt x="550" y="701" on="0"/>
        <pt x="754" y="496" on="0"/>
        <pt x="754" y="351" on="1"/>
        <pt x="754" y="263" on="0"/>
        <pt x="717" y="191" on="1"/>
        <pt x="678" y="130" on="0"/>
        <pt x="626" y="115" on="1"/>
        <pt x="619" y="113" on="0"/>
        <pt x="606" y="113" on="1"/>
        <pt x="569" y="113" on="0"/>
        <pt x="533" y="164" on="0"/>
        <pt x="533" y="188" on="1"/>
        <pt x="533" y="222" on="1"/>
        <pt x="479" y="162" on="0"/>
        <pt x="330" y="162" on="0"/>
        <pt x="225" y="273" on="0"/>
        <pt x="225" y="428" on="0"/>
        <pt x="330" y="538" on="0"/>
        <pt x="478" y="538" on="0"/>
        <pt x="581" y="428" on="0"/>
        <pt x="581" y="351" on="1"/>
        <pt x="581" y="191" on="1"/>
        <pt x="582" y="191" on="1"/>
        <pt x="581" y="184" on="0"/>
        <pt x="588" y="169" on="1"/>
        <pt x="593" y="162" on="0"/>
        <pt x="606" y="162" on="1"/>
        <pt x="614" y="162" on="1"/>
        <pt x="634" y="167" on="0"/>
        <pt x="667" y="202" on="0"/>
        <pt x="672" y="214" on="1"/>
        <pt x="705" y="274" on="0"/>
        <pt x="705" y="351" on="1"/>
        <pt x="705" y="475" on="0"/>
        <pt x="528" y="652" on="0"/>
        <pt x="280" y="652" on="0"/>
        <pt x="102" y="475" on="0"/>
        <pt x="102" y="226" on="0"/>
        <pt x="280" y="49" on="0"/>
        <pt x="404" y="49" on="1"/>
        <pt x="450" y="49" on="0"/>
        <pt x="479" y="57" on="1"/>
        <pt x="489" y="59" on="0"/>
        <pt x="506" y="50" on="0"/>
        <pt x="507" y="40" on="1"/>
        <pt x="511" y="30" on="0"/>
        <pt x="500" y="13" on="0"/>
        <pt x="490" y="11" on="1"/>
        <pt x="448" y="0" on="0"/>
        <pt x="404" y="0" on="1"/>
        <pt x="258" y="0" on="0"/>
      </contour>
      <contour>
        <pt x="277" y="408" on="0"/>
        <pt x="277" y="294" on="0"/>
        <pt x="351" y="214" on="0"/>
        <pt x="456" y="214" on="0"/>
        <pt x="532" y="294" on="0"/>
        <pt x="532" y="408" on="0"/>
        <pt x="456" y="489" on="0"/>
        <pt x="352" y="489" on="0"/>
      </contour>
    </TTGlyph>
    <TTGlyph name="atilde" xMin="63" yMin="0" xMax="527" yMax="685">
      <contour>
        <pt x="493" y="490" on="0"/>
        <pt x="513" y="490" on="0"/>
        <pt x="527" y="476" on="0"/>
        <pt x="527" y="466" on="1"/>
        <pt x="527" y="24" on="1"/>
        <pt x="527" y="14" on="0"/>
        <pt x="513" y="0" on="0"/>
        <pt x="493" y="0" on="0"/>
        <pt x="479" y="14" on="0"/>
        <pt x="479" y="24" on="1"/>
        <pt x="479" y="97" on="1"/>
        <pt x="447" y="52" on="0"/>
        <pt x="350" y="0" on="0"/>
        <pt x="295" y="0" on="1"/>
        <pt x="199" y="0" on="0"/>
        <pt x="63" y="144" on="0"/>
        <pt x="63" y="346" on="0"/>
        <pt x="199" y="490" on="0"/>
        <pt x="295" y="490" on="1"/>
        <pt x="350" y="490" on="0"/>
        <pt x="447" y="438" on="0"/>
        <pt x="479" y="394" on="1"/>
        <pt x="479" y="466" on="1"/>
        <pt x="479" y="476" on="0"/>
      </contour>
      <contour>
        <pt x="111" y="163" on="0"/>
        <pt x="220" y="48" on="0"/>
        <pt x="371" y="48" on="0"/>
        <pt x="479" y="163" on="0"/>
        <pt x="479" y="327" on="0"/>
        <pt x="371" y="443" on="0"/>
        <pt x="220" y="443" on="0"/>
        <pt x="111" y="327" on="0"/>
      </contour>
      <contour>
        <pt x="186" y="584" on="1"/>
        <pt x="179" y="570" on="0"/>
        <pt x="168" y="570" on="1"/>
        <pt x="150" y="570" on="0"/>
        <pt x="150" y="587" on="1"/>
        <pt x="150" y="593" on="0"/>
        <pt x="152" y="599" on="1"/>
        <pt x="166" y="641" on="0"/>
        <pt x="203" y="674" on="0"/>
        <pt x="250" y="674" on="0"/>
        <pt x="342" y="633" on="0"/>
        <pt x="375" y="633" on="0"/>
        <pt x="395" y="650" on="0"/>
        <pt x="404" y="671" on="1"/>
        <pt x="411" y="685" on="0"/>
        <pt x="422" y="685" on="1"/>
        <pt x="440" y="685" on="0"/>
        <pt x="440" y="668" on="1"/>
        <pt x="440" y="662" on="0"/>
        <pt x="438" y="656" on="1"/>
        <pt x="424" y="614" on="0"/>
        <pt x="387" y="581" on="0"/>
        <pt x="340" y="581" on="0"/>
        <pt x="248" y="622" on="0"/>
        <pt x="215" y="622" on="0"/>
        <pt x="195" y="605" on="0"/>
      </contour>
    </TTGlyph>
    <TTGlyph name="b" xMin="93" yMin="0" xMax="567" yMax="700">
      <contour>
        <pt x="93" y="24" on="1"/>
        <pt x="93" y="676" on="1"/>
        <pt x="93" y="686" on="0"/>
        <pt x="107" y="700" on="0"/>
        <pt x="127" y="700" on="0"/>
        <pt x="142" y="686" on="0"/>
        <pt x="142" y="676" on="1"/>
        <pt x="142" y="394" on="1"/>
        <pt x="175" y="438" on="0"/>
        <pt x="273" y="490" on="0"/>
        <pt x="330" y="490" on="1"/>
        <pt x="429" y="490" on="0"/>
        <pt x="567" y="346" on="0"/>
        <pt x="567" y="143" on="0"/>
        <pt x="429" y="0" on="0"/>
        <pt x="330" y="0" on="1"/>
        <pt x="273" y="0" on="0"/>
        <pt x="175" y="51" on="0"/>
        <pt x="142" y="95" on="1"/>
        <pt x="142" y="24" on="1"/>
        <pt x="142" y="14" on="0"/>
        <pt x="127" y="0" on="0"/>
        <pt x="107" y="0" on="0"/>
        <pt x="93" y="14" on="0"/>
      </contour>
      <contour>
        <pt x="142" y="252" on="1"/>
        <pt x="142" y="244" on="1"/>
        <pt x="142" y="163" on="0"/>
        <pt x="253" y="49" on="0"/>
        <pt x="408" y="49" on="0"/>
        <pt x="518" y="163" on="0"/>
        <pt x="518" y="326" on="0"/>
        <pt x="408" y="441" on="0"/>
        <pt x="254" y="441" on="0"/>
        <pt x="145" y="331" on="0"/>
      </contour>
    </TTGlyph>
    <TTGlyph name="backslash" xMin="66" yMin="2" xMax="385" yMax="697">
      <contour>
        <pt x="372" y="3" on="1"/>
        <pt x="369" y="2" on="0"/>
        <pt x="346" y="2" on="0"/>
        <pt x="340" y="17" on="1"/>
        <pt x="67" y="665" on="1"/>
        <pt x="63" y="675" on="0"/>
        <pt x="70" y="693" on="0"/>
        <pt x="80" y="697" on="1"/>
        <pt x="101" y="705" on="0"/>
        <pt x="112" y="684" on="1"/>
        <pt x="385" y="36" on="1"/>
        <pt x="394" y="14" on="0"/>
      </contour>
    </TTGlyph>
    <TTGlyph name="bar" xMin="121" yMin="-132" xMax="165" yMax="802">
      <contour>
        <pt x="121" y="-110" on="1"/>
        <pt x="121" y="780" on="1"/>
        <pt x="121" y="789" on="0"/>
        <pt x="134" y="802" on="0"/>
        <pt x="152" y="802" on="0"/>
        <pt x="165" y="789" on="0"/>
        <pt x="165" y="780" on="1"/>
        <pt x="165" y="-110" on="1"/>
        <pt x="165" y="-119" on="0"/>
        <pt x="152" y="-132" on="0"/>
        <pt x="134" y="-132" on="0"/>
        <pt x="121" y="-119" on="0"/>
      </contour>
    </TTGlyph>
    <TTGlyph name="braceleft" xMin="55" yMin="-139" xMax="427" yMax="713">
      <contour>
        <pt x="406" y="-139" on="1"/>
        <pt x="287" y="-115" on="0"/>
        <pt x="205" y="-22" on="0"/>
        <pt x="205" y="62" on="1"/>
        <pt x="205" y="141" on="1"/>
        <pt x="205" y="205" on="0"/>
        <pt x="152" y="268" on="0"/>
        <pt x="79" y="268" on="1"/>
        <pt x="55" y="268" on="0"/>
        <pt x="55" y="306" on="0"/>
        <pt x="79" y="306" on="1"/>
        <pt x="152" y="306" on="0"/>
        <pt x="205" y="369" on="0"/>
        <pt x="205" y="433" on="1"/>
        <pt x="205" y="512" on="1"/>
        <pt x="205" y="596" on="0"/>
        <pt x="287" y="689" on="0"/>
        <pt x="406" y="713" on="1"/>
        <pt x="415" y="715" on="0"/>
        <pt x="427" y="706" on="0"/>
        <pt x="427" y="685" on="0"/>
        <pt x="415" y="681" on="1"/>
        <pt x="311" y="654" on="0"/>
        <pt x="254" y="585" on="0"/>
        <pt x="254" y="506" on="1"/>
        <pt x="254" y="431" on="1"/>
        <pt x="254" y="368" on="0"/>
        <pt x="201" y="302" on="0"/>
        <pt x="150" y="287" on="1"/>
        <pt x="204" y="269" on="0"/>
        <pt x="254" y="206" on="0"/>
        <pt x="254" y="143" on="1"/>
        <pt x="254" y="68" on="1"/>
        <pt x="254" y="-11" on="0"/>
        <pt x="311" y="-80" on="0"/>
        <pt x="415" y="-107" on="1"/>
        <pt x="427" y="-111" on="0"/>
        <pt x="427" y="-132" on="0"/>
        <pt x="415" y="-141" on="0"/>
      </contour>
    </TTGlyph>
    <TTGlyph name="braceright" xMin="53" yMin="-139" xMax="425" yMax="713">
      <contour>
        <pt x="74" y="713" on="1"/>
        <pt x="193" y="689" on="0"/>
        <pt x="275" y="596" on="0"/>
        <pt x="275" y="512" on="1"/>
        <pt x="275" y="433" on="1"/>
        <pt x="275" y="369" on="0"/>
        <pt x="328" y="306" on="0"/>
        <pt x="401" y="306" on="1"/>
        <pt x="425" y="306" on="0"/>
        <pt x="425" y="268" on="0"/>
        <pt x="401" y="268" on="1"/>
        <pt x="328" y="268" on="0"/>
        <pt x="275" y="205" on="0"/>
        <pt x="275" y="141" on="1"/>
        <pt x="275" y="62" on="1"/>
        <pt x="275" y="-22" on="0"/>
        <pt x="193" y="-115" on="0"/>
        <pt x="74" y="-139" on="1"/>
        <pt x="65" y="-141" on="0"/>
        <pt x="53" y="-132" on="0"/>
        <pt x="53" y="-111" on="0"/>
        <pt x="65" y="-107" on="1"/>
        <pt x="169" y="-80" on="0"/>
        <pt x="226" y="-11" on="0"/>
        <pt x="226" y="68" on="1"/>
        <pt x="226" y="143" on="1"/>
        <pt x="226" y="206" on="0"/>
        <pt x="279" y="272" on="0"/>
        <pt x="330" y="287" on="1"/>
        <pt x="276" y="305" on="0"/>
        <pt x="226" y="368" on="0"/>
        <pt x="226" y="431" on="1"/>
        <pt x="226" y="506" on="1"/>
        <pt x="226" y="585" on="0"/>
        <pt x="169" y="654" on="0"/>
        <pt x="65" y="681" on="1"/>
        <pt x="53" y="685" on="0"/>
        <pt x="53" y="706" on="0"/>
        <pt x="65" y="715" on="0"/>
      </contour>
    </TTGlyph>
    <TTGlyph name="bracketleft" xMin="98" yMin="-130" xMax="375" yMax="700">
      <contour>
        <pt x="98" y="-104" on="1"/>
        <pt x="98" y="674" on="1"/>
        <pt x="98" y="684" on="0"/>
        <pt x="114" y="700" on="0"/>
        <pt x="124" y="700" on="1"/>
        <pt x="356" y="700" on="1"/>
        <pt x="364" y="700" on="0"/>
        <pt x="375" y="688" on="0"/>
        <pt x="375" y="674" on="0"/>
        <pt x="364" y="662" on="0"/>
        <pt x="356" y="662" on="1"/>
        <pt x="144" y="662" on="1"/>
        <pt x="144" y="-92" on="1"/>
        <pt x="356" y="-92" on="1"/>
        <pt x="364" y="-92" on="0"/>
        <pt x="375" y="-104" on="0"/>
        <pt x="375" y="-118" on="0"/>
        <pt x="364" y="-130" on="0"/>
        <pt x="356" y="-130" on="1"/>
        <pt x="124" y="-130" on="1"/>
        <pt x="114" y="-130" on="0"/>
        <pt x="98" y="-114" on="0"/>
      </contour>
    </TTGlyph>
    <TTGlyph name="bracketright" xMin="55" yMin="-130" xMax="332" yMax="700">
      <contour>
        <pt x="332" y="674" on="1"/>
        <pt x="332" y="-104" on="1"/>
        <pt x="332" y="-114" on="0"/>
        <pt x="316" y="-130" on="0"/>
        <pt x="306" y="-130" on="1"/>
        <pt x="74" y="-130" on="1"/>
        <pt x="66" y="-130" on="0"/>
        <pt x="55" y="-118" on="0"/>
        <pt x="55" y="-104" on="0"/>
        <pt x="66" y="-92" on="0"/>
        <pt x="74" y="-92" on="1"/>
        <pt x="286" y="-92" on="1"/>
        <pt x="286" y="662" on="1"/>
        <pt x="74" y="662" on="1"/>
        <pt x="66" y="662" on="0"/>
        <pt x="55" y="674" on="0"/>
        <pt x="55" y="688" on="0"/>
        <pt x="66" y="700" on="0"/>
        <pt x="74" y="700" on="1"/>
        <pt x="306" y="700" on="1"/>
        <pt x="316" y="700" on="0"/>
        <pt x="332" y="684" on="0"/>
      </contour>
    </TTGlyph>
    <TTGlyph name="bullet" xMin="111" yMin="228" xMax="359" yMax="476">
      <contour>
        <pt x="286" y="228" on="0"/>
        <pt x="184" y="228" on="0"/>
        <pt x="111" y="300" on="0"/>
        <pt x="111" y="351" on="1"/>
        <pt x="111" y="353" on="1"/>
        <pt x="111" y="403" on="0"/>
        <pt x="186" y="476" on="0"/>
        <pt x="284" y="476" on="0"/>
        <pt x="359" y="403" on="0"/>
        <pt x="359" y="353" on="1"/>
        <pt x="359" y="351" on="1"/>
        <pt x="359" y="300" on="0"/>
      </contour>
    </TTGlyph>
    <TTGlyph name="c" xMin="58" yMin="0" xMax="475" yMax="490">
      <contour>
        <pt x="205" y="0" on="0"/>
        <pt x="58" y="143" on="0"/>
        <pt x="58" y="348" on="0"/>
        <pt x="205" y="490" on="0"/>
        <pt x="398" y="490" on="0"/>
        <pt x="466" y="436" on="1"/>
        <pt x="474" y="431" on="0"/>
        <pt x="476" y="411" on="0"/>
        <pt x="469" y="403" on="1"/>
        <pt x="454" y="386" on="0"/>
        <pt x="436" y="399" on="1"/>
        <pt x="381" y="443" on="0"/>
        <pt x="225" y="443" on="0"/>
        <pt x="106" y="327" on="0"/>
        <pt x="106" y="163" on="0"/>
        <pt x="225" y="48" on="0"/>
        <pt x="380" y="48" on="0"/>
        <pt x="436" y="91" on="1"/>
        <pt x="454" y="104" on="0"/>
        <pt x="485" y="68" on="0"/>
        <pt x="464" y="52" on="1"/>
        <pt x="397" y="0" on="0"/>
        <pt x="310" y="0" on="1"/>
      </contour>
    </TTGlyph>
    <TTGlyph name="ccedilla" xMin="58" yMin="-142" xMax="475" yMax="490">
      <contour>
        <pt x="205" y="0" on="0"/>
        <pt x="58" y="143" on="0"/>
        <pt x="58" y="348" on="0"/>
        <pt x="205" y="490" on="0"/>
        <pt x="398" y="490" on="0"/>
        <pt x="466" y="436" on="1"/>
        <pt x="474" y="431" on="0"/>
        <pt x="476" y="411" on="0"/>
        <pt x="469" y="403" on="1"/>
        <pt x="454" y="386" on="0"/>
        <pt x="436" y="399" on="1"/>
        <pt x="381" y="443" on="0"/>
        <pt x="225" y="443" on="0"/>
        <pt x="106" y="327" on="0"/>
        <pt x="106" y="163" on="0"/>
        <pt x="225" y="48" on="0"/>
        <pt x="380" y="48" on="0"/>
        <pt x="436" y="91" on="1"/>
        <pt x="454" y="104" on="0"/>
        <pt x="485" y="68" on="0"/>
        <pt x="464" y="52" on="1"/>
        <pt x="397" y="0" on="0"/>
        <pt x="310" y="0" on="1"/>
      </contour>
      <contour>
        <pt x="348" y="10" on="1"/>
        <pt x="283" y="-122" on="1"/>
        <pt x="273" y="-142" on="0"/>
        <pt x="245" y="-142" on="0"/>
        <pt x="223" y="-126" on="0"/>
        <pt x="223" y="-112" on="0"/>
        <pt x="228" y="-103" on="1"/>
        <pt x="305" y="10" on="1"/>
      </contour>
    </TTGlyph>
    <TTGlyph name="cedilla" xMin="170" yMin="-142" xMax="295" yMax="10">
      <contour>
        <pt x="295" y="10" on="1"/>
        <pt x="230" y="-122" on="1"/>
        <pt x="220" y="-142" on="0"/>
        <pt x="192" y="-142" on="0"/>
        <pt x="170" y="-126" on="0"/>
        <pt x="170" y="-112" on="0"/>
        <pt x="175" y="-103" on="1"/>
        <pt x="252" y="10" on="1"/>
      </contour>
    </TTGlyph>
    <TTGlyph name="cent" xMin="62" yMin="-10" xMax="526" yMax="710">
      <contour>
        <pt x="219" y="21" on="1"/>
        <pt x="236" y="103" on="1"/>
        <pt x="158" y="130" on="0"/>
        <pt x="62" y="268" on="0"/>
        <pt x="62" y="353" on="1"/>
        <pt x="62" y="355" on="1"/>
        <pt x="62" y="463" on="0"/>
        <pt x="214" y="622" on="0"/>
        <pt x="322" y="622" on="1"/>
        <pt x="337" y="622" on="1"/>
        <pt x="350" y="690" on="1"/>
        <pt x="354" y="710" on="0"/>
        <pt x="374" y="710" on="1"/>
        <pt x="386" y="710" on="0"/>
        <pt x="401" y="692" on="0"/>
        <pt x="398" y="679" on="1"/>
        <pt x="385" y="615" on="1"/>
        <pt x="451" y="599" on="0"/>
        <pt x="514" y="540" on="1"/>
        <pt x="523" y="531" on="0"/>
        <pt x="523" y="509" on="0"/>
        <pt x="509" y="495" on="0"/>
        <pt x="488" y="495" on="0"/>
        <pt x="480" y="503" on="1"/>
        <pt x="426" y="556" on="0"/>
        <pt x="373" y="569" on="1"/>
        <pt x="289" y="137" on="1"/>
        <pt x="307" y="134" on="0"/>
        <pt x="325" y="134" on="1"/>
        <pt x="412" y="134" on="0"/>
        <pt x="485" y="207" on="1"/>
        <pt x="494" y="216" on="0"/>
        <pt x="513" y="216" on="0"/>
        <pt x="526" y="202" on="0"/>
        <pt x="526" y="184" on="0"/>
        <pt x="519" y="177" on="1"/>
        <pt x="435" y="88" on="0"/>
        <pt x="322" y="88" on="1"/>
        <pt x="296" y="88" on="0"/>
        <pt x="283" y="90" on="1"/>
        <pt x="267" y="10" on="1"/>
        <pt x="263" y="-10" on="0"/>
        <pt x="243" y="-10" on="1"/>
        <pt x="231" y="-10" on="0"/>
        <pt x="216" y="8" on="0"/>
      </contour>
      <contour>
        <pt x="115" y="355" on="1"/>
        <pt x="115" y="285" on="0"/>
        <pt x="189" y="173" on="0"/>
        <pt x="248" y="149" on="1"/>
        <pt x="330" y="576" on="1"/>
        <pt x="321" y="576" on="1"/>
        <pt x="234" y="576" on="0"/>
        <pt x="115" y="449" on="0"/>
        <pt x="115" y="357" on="1"/>
      </contour>
    </TTGlyph>
    <TTGlyph name="circumflex" xMin="141" yMin="592" xMax="359" yMax="720">
      <contour>
        <pt x="249" y="663" on="1"/>
        <pt x="186" y="605" on="1"/>
        <pt x="172" y="592" on="0"/>
        <pt x="141" y="592" on="0"/>
        <pt x="141" y="602" on="1"/>
        <pt x="141" y="608" on="0"/>
        <pt x="146" y="614" on="1"/>
        <pt x="218" y="702" on="1"/>
        <pt x="233" y="720" on="0"/>
        <pt x="246" y="720" on="1"/>
        <pt x="254" y="720" on="1"/>
        <pt x="267" y="720" on="0"/>
        <pt x="282" y="702" on="1"/>
        <pt x="354" y="614" on="1"/>
        <pt x="359" y="608" on="0"/>
        <pt x="359" y="602" on="1"/>
        <pt x="359" y="592" on="0"/>
        <pt x="326" y="592" on="0"/>
        <pt x="312" y="605" on="1"/>
      </contour>
    </TTGlyph>
    <TTGlyph name="colon" xMin="87" yMin="0" xMax="187" yMax="520">
      <contour>
        <pt x="87" y="29" on="0"/>
        <pt x="87" y="71" on="0"/>
        <pt x="116" y="100" on="0"/>
        <pt x="158" y="100" on="0"/>
        <pt x="187" y="71" on="0"/>
        <pt x="187" y="29" on="0"/>
        <pt x="158" y="0" on="0"/>
        <pt x="116" y="0" on="0"/>
      </contour>
      <contour>
        <pt x="87" y="449" on="0"/>
        <pt x="87" y="491" on="0"/>
        <pt x="116" y="520" on="0"/>
        <pt x="158" y="520" on="0"/>
        <pt x="187" y="491" on="0"/>
        <pt x="187" y="449" on="0"/>
        <pt x="158" y="420" on="0"/>
        <pt x="116" y="420" on="0"/>
      </contour>
    </TTGlyph>
    <TTGlyph name="comma" xMin="54" yMin="-105" xMax="148" yMax="89">
      <contour>
        <pt x="54" y="-90" on="1"/>
        <pt x="54" y="-82" on="0"/>
        <pt x="62" y="-77" on="1"/>
        <pt x="113" y="-49" on="0"/>
        <pt x="109" y="0" on="1"/>
        <pt x="82" y="7" on="0"/>
        <pt x="82" y="35" on="1"/>
        <pt x="82" y="56" on="1"/>
        <pt x="82" y="70" on="0"/>
        <pt x="101" y="89" on="0"/>
        <pt x="129" y="89" on="0"/>
        <pt x="148" y="70" on="0"/>
        <pt x="148" y="56" on="1"/>
        <pt x="148" y="31" on="1"/>
        <pt x="148" y="-46" on="0"/>
        <pt x="89" y="-105" on="0"/>
        <pt x="54" y="-105" on="0"/>
      </contour>
    </TTGlyph>
    <TTGlyph name="copyright" xMin="53" yMin="-12" xMax="777" yMax="712">
      <contour>
        <pt x="565" y="-12" on="0"/>
        <pt x="263" y="-12" on="0"/>
        <pt x="53" y="199" on="0"/>
        <pt x="53" y="348" on="1"/>
        <pt x="53" y="350" on="1"/>
        <pt x="53" y="499" on="0"/>
        <pt x="265" y="712" on="0"/>
        <pt x="567" y="712" on="0"/>
        <pt x="777" y="501" on="0"/>
        <pt x="777" y="352" on="1"/>
        <pt x="777" y="350" on="1"/>
        <pt x="777" y="201" on="0"/>
      </contour>
      <contour>
        <pt x="273" y="16" on="0"/>
        <pt x="555" y="16" on="0"/>
        <pt x="747" y="211" on="0"/>
        <pt x="747" y="350" on="1"/>
        <pt x="747" y="352" on="1"/>
        <pt x="747" y="490" on="0"/>
        <pt x="557" y="684" on="0"/>
        <pt x="275" y="684" on="0"/>
        <pt x="83" y="489" on="0"/>
        <pt x="83" y="350" on="1"/>
        <pt x="83" y="348" on="1"/>
        <pt x="83" y="210" on="0"/>
      </contour>
      <contour>
        <pt x="553" y="220" on="1"/>
        <pt x="491" y="166" on="0"/>
        <pt x="342" y="166" on="0"/>
        <pt x="237" y="276" on="0"/>
        <pt x="237" y="354" on="1"/>
        <pt x="237" y="356" on="1"/>
        <pt x="237" y="433" on="0"/>
        <pt x="343" y="545" on="0"/>
        <pt x="492" y="545" on="0"/>
        <pt x="549" y="495" on="1"/>
        <pt x="558" y="488" on="0"/>
        <pt x="558" y="468" on="0"/>
        <pt x="545" y="456" on="0"/>
        <pt x="529" y="456" on="0"/>
        <pt x="520" y="463" on="1"/>
        <pt x="471" y="505" on="0"/>
        <pt x="360" y="505" on="0"/>
        <pt x="281" y="418" on="0"/>
        <pt x="281" y="357" on="1"/>
        <pt x="281" y="355" on="1"/>
        <pt x="281" y="294" on="0"/>
        <pt x="362" y="206" on="0"/>
        <pt x="477" y="206" on="0"/>
        <pt x="526" y="250" on="1"/>
        <pt x="534" y="255" on="0"/>
        <pt x="548" y="255" on="0"/>
        <pt x="560" y="243" on="0"/>
        <pt x="560" y="225" on="0"/>
      </contour>
    </TTGlyph>
    <TTGlyph name="d" xMin="60" yMin="0" xMax="534" yMax="700">
      <contour>
        <pt x="485" y="24" on="1"/>
        <pt x="485" y="95" on="1"/>
        <pt x="452" y="51" on="0"/>
        <pt x="354" y="0" on="0"/>
        <pt x="297" y="0" on="1"/>
        <pt x="198" y="0" on="0"/>
        <pt x="60" y="143" on="0"/>
        <pt x="60" y="346" on="0"/>
        <pt x="198" y="490" on="0"/>
        <pt x="297" y="490" on="1"/>
        <pt x="354" y="490" on="0"/>
        <pt x="452" y="438" on="0"/>
        <pt x="485" y="394" on="1"/>
        <pt x="485" y="676" on="1"/>
        <pt x="485" y="686" on="0"/>
        <pt x="500" y="700" on="0"/>
        <pt x="520" y="700" on="0"/>
        <pt x="534" y="686" on="0"/>
        <pt x="534" y="676" on="1"/>
        <pt x="534" y="24" on="1"/>
        <pt x="534" y="14" on="0"/>
        <pt x="520" y="0" on="0"/>
        <pt x="500" y="0" on="0"/>
        <pt x="485" y="14" on="0"/>
      </contour>
      <contour>
        <pt x="109" y="163" on="0"/>
        <pt x="220" y="49" on="0"/>
        <pt x="373" y="49" on="0"/>
        <pt x="482" y="158" on="0"/>
        <pt x="485" y="236" on="1"/>
        <pt x="485" y="252" on="1"/>
        <pt x="482" y="331" on="0"/>
        <pt x="373" y="441" on="0"/>
        <pt x="220" y="441" on="0"/>
        <pt x="109" y="326" on="0"/>
      </contour>
    </TTGlyph>
    <TTGlyph name="dagger" xMin="59" yMin="234" xMax="351" yMax="704">
      <contour>
        <pt x="183" y="257" on="1"/>
        <pt x="188" y="524" on="1"/>
        <pt x="82" y="518" on="1"/>
        <pt x="73" y="517" on="0"/>
        <pt x="59" y="530" on="0"/>
        <pt x="59" y="548" on="0"/>
        <pt x="73" y="562" on="0"/>
        <pt x="82" y="561" on="1"/>
        <pt x="187" y="555" on="1"/>
        <pt x="181" y="678" on="1"/>
        <pt x="180" y="689" on="0"/>
        <pt x="194" y="704" on="0"/>
        <pt x="216" y="704" on="0"/>
        <pt x="230" y="689" on="0"/>
        <pt x="229" y="678" on="1"/>
        <pt x="223" y="555" on="1"/>
        <pt x="328" y="561" on="1"/>
        <pt x="337" y="562" on="0"/>
        <pt x="351" y="548" on="0"/>
        <pt x="351" y="530" on="0"/>
        <pt x="337" y="517" on="0"/>
        <pt x="328" y="518" on="1"/>
        <pt x="222" y="524" on="1"/>
        <pt x="227" y="257" on="1"/>
        <pt x="227" y="247" on="0"/>
        <pt x="214" y="234" on="0"/>
        <pt x="196" y="234" on="0"/>
        <pt x="183" y="247" on="0"/>
      </contour>
    </TTGlyph>
    <TTGlyph name="daggerdbl" xMin="69" yMin="-4" xMax="361" yMax="704">
      <contour>
        <pt x="191" y="22" on="1"/>
        <pt x="197" y="145" on="1"/>
        <pt x="92" y="139" on="1"/>
        <pt x="83" y="138" on="0"/>
        <pt x="69" y="152" on="0"/>
        <pt x="69" y="170" on="0"/>
        <pt x="83" y="183" on="0"/>
        <pt x="92" y="182" on="1"/>
        <pt x="198" y="176" on="1"/>
        <pt x="193" y="350" on="1"/>
        <pt x="198" y="524" on="1"/>
        <pt x="92" y="518" on="1"/>
        <pt x="83" y="517" on="0"/>
        <pt x="69" y="530" on="0"/>
        <pt x="69" y="548" on="0"/>
        <pt x="83" y="562" on="0"/>
        <pt x="92" y="561" on="1"/>
        <pt x="197" y="555" on="1"/>
        <pt x="191" y="678" on="1"/>
        <pt x="190" y="689" on="0"/>
        <pt x="204" y="704" on="0"/>
        <pt x="226" y="704" on="0"/>
        <pt x="240" y="689" on="0"/>
        <pt x="239" y="678" on="1"/>
        <pt x="233" y="555" on="1"/>
        <pt x="338" y="561" on="1"/>
        <pt x="347" y="562" on="0"/>
        <pt x="361" y="548" on="0"/>
        <pt x="361" y="530" on="0"/>
        <pt x="347" y="517" on="0"/>
        <pt x="338" y="518" on="1"/>
        <pt x="232" y="524" on="1"/>
        <pt x="237" y="350" on="1"/>
        <pt x="232" y="176" on="1"/>
        <pt x="338" y="182" on="1"/>
        <pt x="347" y="183" on="0"/>
        <pt x="361" y="170" on="0"/>
        <pt x="361" y="152" on="0"/>
        <pt x="347" y="138" on="0"/>
        <pt x="338" y="139" on="1"/>
        <pt x="233" y="145" on="1"/>
        <pt x="239" y="22" on="1"/>
        <pt x="240" y="11" on="0"/>
        <pt x="226" y="-4" on="0"/>
        <pt x="204" y="-4" on="0"/>
        <pt x="190" y="11" on="0"/>
      </contour>
    </TTGlyph>
    <TTGlyph name="degree" xMin="74" yMin="412" xMax="376" yMax="706">
      <contour>
        <pt x="285" y="412" on="0"/>
        <pt x="165" y="412" on="0"/>
        <pt x="74" y="500" on="0"/>
        <pt x="74" y="558" on="1"/>
        <pt x="74" y="560" on="1"/>
        <pt x="74" y="618" on="0"/>
        <pt x="165" y="706" on="0"/>
        <pt x="285" y="706" on="0"/>
        <pt x="376" y="618" on="0"/>
        <pt x="376" y="560" on="1"/>
        <pt x="376" y="558" on="1"/>
        <pt x="376" y="500" on="0"/>
      </contour>
      <contour>
        <pt x="182" y="456" on="0"/>
        <pt x="268" y="456" on="0"/>
        <pt x="326" y="517" on="0"/>
        <pt x="326" y="558" on="1"/>
        <pt x="326" y="560" on="1"/>
        <pt x="326" y="601" on="0"/>
        <pt x="268" y="662" on="0"/>
        <pt x="182" y="662" on="0"/>
        <pt x="124" y="601" on="0"/>
        <pt x="124" y="560" on="1"/>
        <pt x="124" y="558" on="1"/>
        <pt x="124" y="517" on="0"/>
      </contour>
    </TTGlyph>
    <TTGlyph name="dieresis" xMin="133" yMin="594" xMax="384" yMax="680">
      <contour>
        <pt x="133" y="619" on="0"/>
        <pt x="133" y="655" on="0"/>
        <pt x="158" y="680" on="0"/>
        <pt x="194" y="680" on="0"/>
        <pt x="219" y="655" on="0"/>
        <pt x="219" y="619" on="0"/>
        <pt x="194" y="594" on="0"/>
        <pt x="158" y="594" on="0"/>
      </contour>
      <contour>
        <pt x="298" y="619" on="0"/>
        <pt x="298" y="655" on="0"/>
        <pt x="323" y="680" on="0"/>
        <pt x="359" y="680" on="0"/>
        <pt x="384" y="655" on="0"/>
        <pt x="384" y="619" on="0"/>
        <pt x="359" y="594" on="0"/>
        <pt x="323" y="594" on="0"/>
      </contour>
    </TTGlyph>
    <TTGlyph name="divide" xMin="64" yMin="111" xMax="556" yMax="593">
      <contour>
        <pt x="88" y="328" on="1"/>
        <pt x="532" y="328" on="1"/>
        <pt x="542" y="328" on="0"/>
        <pt x="556" y="342" on="0"/>
        <pt x="556" y="362" on="0"/>
        <pt x="542" y="376" on="0"/>
        <pt x="532" y="376" on="1"/>
        <pt x="88" y="376" on="1"/>
        <pt x="78" y="376" on="0"/>
        <pt x="64" y="362" on="0"/>
        <pt x="64" y="342" on="0"/>
        <pt x="78" y="328" on="0"/>
      </contour>
      <contour>
        <pt x="294" y="593" on="0"/>
        <pt x="326" y="593" on="0"/>
        <pt x="350" y="570" on="0"/>
        <pt x="350" y="553" on="1"/>
        <pt x="350" y="536" on="1"/>
        <pt x="350" y="520" on="0"/>
        <pt x="326" y="496" on="0"/>
        <pt x="294" y="496" on="0"/>
        <pt x="270" y="520" on="0"/>
        <pt x="270" y="536" on="1"/>
        <pt x="270" y="553" on="1"/>
        <pt x="270" y="570" on="0"/>
      </contour>
      <contour>
        <pt x="294" y="208" on="0"/>
        <pt x="326" y="208" on="0"/>
        <pt x="350" y="184" on="0"/>
        <pt x="350" y="168" on="1"/>
        <pt x="350" y="151" on="1"/>
        <pt x="350" y="134" on="0"/>
        <pt x="326" y="111" on="0"/>
        <pt x="294" y="111" on="0"/>
        <pt x="270" y="134" on="0"/>
        <pt x="270" y="151" on="1"/>
        <pt x="270" y="168" on="1"/>
        <pt x="270" y="184" on="0"/>
      </contour>
    </TTGlyph>
    <TTGlyph name="dollar" xMin="61" yMin="-102" xMax="559" yMax="762">
      <contour>
        <pt x="297" y="738" on="1"/>
        <pt x="297" y="748" on="0"/>
        <pt x="311" y="762" on="0"/>
        <pt x="331" y="762" on="0"/>
        <pt x="345" y="748" on="0"/>
        <pt x="345" y="738" on="1"/>
        <pt x="345" y="698" on="1"/>
        <pt x="439" y="690" on="0"/>
        <pt x="523" y="628" on="1"/>
        <pt x="537" y="617" on="0"/>
        <pt x="537" y="595" on="0"/>
        <pt x="522" y="580" on="0"/>
        <pt x="501" y="580" on="0"/>
        <pt x="493" y="587" on="1"/>
        <pt x="423" y="643" on="0"/>
        <pt x="343" y="652" on="1"/>
        <pt x="343" y="372" on="1"/>
        <pt x="457" y="348" on="0"/>
        <pt x="559" y="259" on="0"/>
        <pt x="559" y="106" on="0"/>
        <pt x="439" y="3" on="0"/>
        <pt x="345" y="0" on="1"/>
        <pt x="345" y="-78" on="1"/>
        <pt x="345" y="-88" on="0"/>
        <pt x="331" y="-102" on="0"/>
        <pt x="311" y="-102" on="0"/>
        <pt x="297" y="-88" on="0"/>
        <pt x="297" y="-78" on="1"/>
        <pt x="297" y="1" on="1"/>
        <pt x="172" y="11" on="0"/>
        <pt x="72" y="98" on="1"/>
        <pt x="61" y="107" on="0"/>
        <pt x="61" y="129" on="0"/>
        <pt x="76" y="144" on="0"/>
        <pt x="97" y="144" on="0"/>
        <pt x="104" y="137" on="1"/>
        <pt x="190" y="57" on="0"/>
        <pt x="299" y="46" on="1"/>
        <pt x="299" y="331" on="1"/>
        <pt x="187" y="356" on="0"/>
        <pt x="87" y="444" on="0"/>
        <pt x="87" y="595" on="0"/>
        <pt x="206" y="698" on="0"/>
        <pt x="297" y="700" on="1"/>
      </contour>
      <contour>
        <pt x="417" y="46" on="0"/>
        <pt x="508" y="123" on="0"/>
        <pt x="508" y="235" on="0"/>
        <pt x="437" y="300" on="0"/>
        <pt x="343" y="321" on="1"/>
        <pt x="343" y="45" on="1"/>
      </contour>
      <contour>
        <pt x="227" y="654" on="0"/>
        <pt x="138" y="578" on="0"/>
        <pt x="138" y="469" on="0"/>
        <pt x="206" y="404" on="0"/>
        <pt x="299" y="382" on="1"/>
        <pt x="299" y="655" on="1"/>
      </contour>
    </TTGlyph>
    <TTGlyph name="e" xMin="58" yMin="0" xMax="532" yMax="490">
      <contour>
        <pt x="532" y="262" on="1"/>
        <pt x="532" y="258" on="1"/>
        <pt x="532" y="248" on="0"/>
        <pt x="518" y="236" on="0"/>
        <pt x="508" y="236" on="1"/>
        <pt x="106" y="236" on="1"/>
        <pt x="110" y="156" on="0"/>
        <pt x="220" y="48" on="0"/>
        <pt x="296" y="48" on="1"/>
        <pt x="345" y="48" on="0"/>
        <pt x="429" y="96" on="0"/>
        <pt x="454" y="137" on="1"/>
        <pt x="466" y="157" on="0"/>
        <pt x="486" y="145" on="1"/>
        <pt x="506" y="131" on="0"/>
        <pt x="494" y="111" on="1"/>
        <pt x="462" y="60" on="0"/>
        <pt x="357" y="0" on="0"/>
        <pt x="296" y="0" on="1"/>
        <pt x="197" y="0" on="0"/>
        <pt x="58" y="143" on="0"/>
        <pt x="58" y="346" on="0"/>
        <pt x="197" y="490" on="0"/>
        <pt x="390" y="490" on="0"/>
        <pt x="524" y="359" on="0"/>
      </contour>
      <contour>
        <pt x="468" y="352" on="0"/>
        <pt x="364" y="442" on="0"/>
        <pt x="227" y="442" on="0"/>
        <pt x="123" y="353" on="0"/>
        <pt x="109" y="283" on="1"/>
        <pt x="480" y="283" on="1"/>
      </contour>
    </TTGlyph>
    <TTGlyph name="eacute" xMin="58" yMin="0" xMax="532" yMax="701">
      <contour>
        <pt x="532" y="258" on="1"/>
        <pt x="532" y="262" on="1"/>
        <pt x="524" y="359" on="0"/>
        <pt x="390" y="490" on="0"/>
        <pt x="197" y="490" on="0"/>
        <pt x="58" y="346" on="0"/>
        <pt x="58" y="143" on="0"/>
        <pt x="197" y="0" on="0"/>
        <pt x="296" y="0" on="1"/>
        <pt x="357" y="0" on="0"/>
        <pt x="462" y="60" on="0"/>
        <pt x="494" y="111" on="1"/>
        <pt x="506" y="131" on="0"/>
        <pt x="486" y="145" on="1"/>
        <pt x="466" y="157" on="0"/>
        <pt x="454" y="137" on="1"/>
        <pt x="429" y="96" on="0"/>
        <pt x="345" y="48" on="0"/>
        <pt x="296" y="48" on="1"/>
        <pt x="220" y="48" on="0"/>
        <pt x="110" y="156" on="0"/>
        <pt x="106" y="236" on="1"/>
        <pt x="508" y="236" on="1"/>
        <pt x="518" y="236" on="0"/>
        <pt x="532" y="248" on="0"/>
      </contour>
      <contour>
        <pt x="123" y="353" on="0"/>
        <pt x="227" y="442" on="0"/>
        <pt x="364" y="442" on="0"/>
        <pt x="468" y="352" on="0"/>
        <pt x="480" y="283" on="1"/>
        <pt x="109" y="283" on="1"/>
      </contour>
      <contour>
        <pt x="272" y="583" on="1"/>
        <pt x="258" y="570" on="0"/>
        <pt x="227" y="570" on="0"/>
        <pt x="227" y="579" on="1"/>
        <pt x="227" y="584" on="0"/>
        <pt x="231" y="590" on="1"/>
        <pt x="293" y="683" on="1"/>
        <pt x="305" y="701" on="0"/>
        <pt x="335" y="701" on="0"/>
        <pt x="363" y="686" on="0"/>
        <pt x="363" y="671" on="0"/>
        <pt x="352" y="660" on="1"/>
      </contour>
    </TTGlyph>
    <TTGlyph name="ecircumflex" xMin="58" yMin="0" xMax="532" yMax="698">
      <component glyphName="e" x="0" y="0" flags="0x1004"/>
      <component glyphName="circumflex" x="46" y="-22" flags="0x1004"/>
    </TTGlyph>
    <TTGlyph name="edieresis" xMin="61" yMin="0" xMax="535" yMax="656">
      <contour>
        <pt x="535" y="258" on="1"/>
        <pt x="535" y="262" on="1"/>
        <pt x="527" y="359" on="0"/>
        <pt x="393" y="490" on="0"/>
        <pt x="200" y="490" on="0"/>
        <pt x="61" y="346" on="0"/>
        <pt x="61" y="143" on="0"/>
        <pt x="200" y="0" on="0"/>
        <pt x="299" y="0" on="1"/>
        <pt x="360" y="0" on="0"/>
        <pt x="465" y="60" on="0"/>
        <pt x="497" y="111" on="1"/>
        <pt x="509" y="131" on="0"/>
        <pt x="489" y="145" on="1"/>
        <pt x="469" y="157" on="0"/>
        <pt x="457" y="137" on="1"/>
        <pt x="432" y="96" on="0"/>
        <pt x="348" y="48" on="0"/>
        <pt x="299" y="48" on="1"/>
        <pt x="223" y="48" on="0"/>
        <pt x="113" y="156" on="0"/>
        <pt x="109" y="236" on="1"/>
        <pt x="511" y="236" on="1"/>
        <pt x="521" y="236" on="0"/>
        <pt x="535" y="248" on="0"/>
      </contour>
      <contour>
        <pt x="126" y="353" on="0"/>
        <pt x="230" y="442" on="0"/>
        <pt x="367" y="442" on="0"/>
        <pt x="471" y="352" on="0"/>
        <pt x="483" y="283" on="1"/>
        <pt x="112" y="283" on="1"/>
      </contour>
      <contour>
        <pt x="173" y="595" on="0"/>
        <pt x="173" y="631" on="0"/>
        <pt x="198" y="656" on="0"/>
        <pt x="234" y="656" on="0"/>
        <pt x="259" y="631" on="0"/>
        <pt x="259" y="595" on="0"/>
        <pt x="234" y="570" on="0"/>
        <pt x="198" y="570" on="0"/>
      </contour>
      <contour>
        <pt x="338" y="595" on="0"/>
        <pt x="338" y="631" on="0"/>
        <pt x="363" y="656" on="0"/>
        <pt x="399" y="656" on="0"/>
        <pt x="424" y="631" on="0"/>
        <pt x="424" y="595" on="0"/>
        <pt x="399" y="570" on="0"/>
        <pt x="363" y="570" on="0"/>
      </contour>
    </TTGlyph>
    <TTGlyph name="egrave" xMin="58" yMin="0" xMax="532" yMax="701">
      <component glyphName="e" x="0" y="0" flags="0x1004"/>
      <component glyphName="grave" x="64" y="-22" flags="0x1004"/>
    </TTGlyph>
    <TTGlyph name="eight" xMin="55" yMin="0" xMax="509" yMax="700">
      <contour>
        <pt x="195" y="437" on="1"/>
        <pt x="137" y="482" on="0"/>
        <pt x="137" y="615" on="0"/>
        <pt x="221" y="700" on="0"/>
        <pt x="342" y="700" on="0"/>
        <pt x="428" y="615" on="0"/>
        <pt x="428" y="482" on="0"/>
        <pt x="368" y="437" on="1"/>
        <pt x="431" y="411" on="0"/>
        <pt x="509" y="297" on="0"/>
        <pt x="509" y="227" on="1"/>
        <pt x="509" y="132" on="0"/>
        <pt x="376" y="0" on="0"/>
        <pt x="188" y="0" on="0"/>
        <pt x="55" y="133" on="0"/>
        <pt x="55" y="227" on="1"/>
        <pt x="55" y="297" on="0"/>
        <pt x="133" y="411" on="0"/>
      </contour>
      <contour>
        <pt x="103" y="301" on="0"/>
        <pt x="103" y="153" on="0"/>
        <pt x="208" y="48" on="0"/>
        <pt x="357" y="48" on="0"/>
        <pt x="461" y="153" on="0"/>
        <pt x="461" y="301" on="0"/>
        <pt x="357" y="406" on="0"/>
        <pt x="208" y="406" on="0"/>
      </contour>
      <contour>
        <pt x="185" y="596" on="0"/>
        <pt x="185" y="514" on="0"/>
        <pt x="242" y="457" on="0"/>
        <pt x="282" y="456" on="1"/>
        <pt x="323" y="457" on="0"/>
        <pt x="380" y="515" on="0"/>
        <pt x="380" y="595" on="0"/>
        <pt x="323" y="652" on="0"/>
        <pt x="242" y="652" on="0"/>
      </contour>
    </TTGlyph>
    <TTGlyph name="ellipsis" xMin="82" yMin="0" xMax="636" yMax="100">
      <contour>
        <pt x="82" y="29" on="0"/>
        <pt x="82" y="71" on="0"/>
        <pt x="111" y="100" on="0"/>
        <pt x="153" y="100" on="0"/>
        <pt x="182" y="71" on="0"/>
        <pt x="182" y="29" on="0"/>
        <pt x="153" y="0" on="0"/>
        <pt x="111" y="0" on="0"/>
      </contour>
      <contour>
        <pt x="309" y="29" on="0"/>
        <pt x="309" y="71" on="0"/>
        <pt x="338" y="100" on="0"/>
        <pt x="380" y="100" on="0"/>
        <pt x="409" y="71" on="0"/>
        <pt x="409" y="29" on="0"/>
        <pt x="380" y="0" on="0"/>
        <pt x="338" y="0" on="0"/>
      </contour>
      <contour>
        <pt x="536" y="29" on="0"/>
        <pt x="536" y="71" on="0"/>
        <pt x="565" y="100" on="0"/>
        <pt x="607" y="100" on="0"/>
        <pt x="636" y="71" on="0"/>
        <pt x="636" y="29" on="0"/>
        <pt x="607" y="0" on="0"/>
        <pt x="565" y="0" on="0"/>
      </contour>
    </TTGlyph>
    <TTGlyph name="emdash" xMin="66" yMin="271" xMax="832" yMax="323">
      <contour>
        <pt x="92" y="271" on="1"/>
        <pt x="82" y="271" on="0"/>
        <pt x="66" y="286" on="0"/>
        <pt x="66" y="308" on="0"/>
        <pt x="82" y="323" on="0"/>
        <pt x="92" y="323" on="1"/>
        <pt x="806" y="323" on="1"/>
        <pt x="816" y="323" on="0"/>
        <pt x="832" y="308" on="0"/>
        <pt x="832" y="286" on="0"/>
        <pt x="816" y="271" on="0"/>
        <pt x="806" y="271" on="1"/>
      </contour>
    </TTGlyph>
    <TTGlyph name="endash" xMin="66" yMin="271" xMax="462" yMax="323">
      <contour>
        <pt x="92" y="271" on="1"/>
        <pt x="82" y="271" on="0"/>
        <pt x="66" y="286" on="0"/>
        <pt x="66" y="308" on="0"/>
        <pt x="82" y="323" on="0"/>
        <pt x="92" y="323" on="1"/>
        <pt x="436" y="323" on="1"/>
        <pt x="446" y="323" on="0"/>
        <pt x="462" y="308" on="0"/>
        <pt x="462" y="286" on="0"/>
        <pt x="446" y="271" on="0"/>
        <pt x="436" y="271" on="1"/>
      </contour>
    </TTGlyph>
    <TTGlyph name="equal" xMin="79" yMin="214" xMax="491" yMax="485">
      <contour>
        <pt x="107" y="214" on="1"/>
        <pt x="95" y="214" on="0"/>
        <pt x="79" y="230" on="0"/>
        <pt x="79" y="253" on="0"/>
        <pt x="95" y="269" on="0"/>
        <pt x="107" y="269" on="1"/>
        <pt x="463" y="269" on="1"/>
        <pt x="475" y="269" on="0"/>
        <pt x="491" y="253" on="0"/>
        <pt x="491" y="230" on="0"/>
        <pt x="475" y="214" on="0"/>
        <pt x="463" y="214" on="1"/>
      </contour>
      <contour>
        <pt x="107" y="430" on="1"/>
        <pt x="95" y="430" on="0"/>
        <pt x="79" y="446" on="0"/>
        <pt x="79" y="469" on="0"/>
        <pt x="95" y="485" on="0"/>
        <pt x="107" y="485" on="1"/>
        <pt x="463" y="485" on="1"/>
        <pt x="475" y="485" on="0"/>
        <pt x="491" y="469" on="0"/>
        <pt x="491" y="446" on="0"/>
        <pt x="475" y="430" on="0"/>
        <pt x="463" y="430" on="1"/>
      </contour>
    </TTGlyph>
    <TTGlyph name="eth" xMin="58" yMin="-12" xMax="568" yMax="736">
      <contour>
        <pt x="475" y="423" on="1"/>
        <pt x="328" y="631" on="1"/>
        <pt x="206" y="569" on="1"/>
        <pt x="200" y="566" on="0"/>
        <pt x="185" y="566" on="0"/>
        <pt x="172" y="580" on="0"/>
        <pt x="172" y="602" on="0"/>
        <pt x="186" y="609" on="1"/>
        <pt x="303" y="666" on="1"/>
        <pt x="285" y="692" on="1"/>
        <pt x="279" y="700" on="0"/>
        <pt x="279" y="720" on="0"/>
        <pt x="294" y="734" on="0"/>
        <pt x="318" y="734" on="0"/>
        <pt x="327" y="721" on="1"/>
        <pt x="348" y="689" on="1"/>
        <pt x="434" y="733" on="1"/>
        <pt x="440" y="736" on="0"/>
        <pt x="455" y="736" on="0"/>
        <pt x="468" y="722" on="0"/>
        <pt x="468" y="700" on="0"/>
        <pt x="454" y="693" on="1"/>
        <pt x="373" y="653" on="1"/>
        <pt x="481" y="492" on="1"/>
        <pt x="525" y="427" on="0"/>
        <pt x="568" y="316" on="0"/>
        <pt x="568" y="248" on="1"/>
        <pt x="568" y="141" on="0"/>
        <pt x="423" y="-12" on="0"/>
        <pt x="202" y="-12" on="0"/>
        <pt x="58" y="139" on="0"/>
        <pt x="58" y="350" on="0"/>
        <pt x="200" y="486" on="0"/>
        <pt x="393" y="486" on="0"/>
      </contour>
      <contour>
        <pt x="402" y="34" on="0"/>
        <pt x="515" y="157" on="0"/>
        <pt x="515" y="325" on="0"/>
        <pt x="393" y="442" on="0"/>
        <pt x="217" y="442" on="0"/>
        <pt x="111" y="328" on="0"/>
        <pt x="111" y="158" on="0"/>
        <pt x="228" y="34" on="0"/>
      </contour>
    </TTGlyph>
    <TTGlyph name="exclam" xMin="93" yMin="0" xMax="142" yMax="700">
      <contour>
        <pt x="93" y="174" on="1"/>
        <pt x="93" y="676" on="1"/>
        <pt x="93" y="686" on="0"/>
        <pt x="107" y="700" on="0"/>
        <pt x="127" y="700" on="0"/>
        <pt x="142" y="686" on="0"/>
        <pt x="142" y="676" on="1"/>
        <pt x="142" y="174" on="1"/>
        <pt x="142" y="164" on="0"/>
        <pt x="128" y="149" on="0"/>
        <pt x="107" y="149" on="0"/>
        <pt x="93" y="164" on="0"/>
      </contour>
      <contour>
        <pt x="93" y="24" on="1"/>
        <pt x="93" y="48" on="1"/>
        <pt x="93" y="58" on="0"/>
        <pt x="107" y="72" on="0"/>
        <pt x="127" y="72" on="0"/>
        <pt x="142" y="58" on="0"/>
        <pt x="142" y="48" on="1"/>
        <pt x="142" y="24" on="1"/>
        <pt x="142" y="14" on="0"/>
        <pt x="127" y="0" on="0"/>
        <pt x="107" y="0" on="0"/>
        <pt x="93" y="14" on="0"/>
      </contour>
    </TTGlyph>
    <TTGlyph name="exclamdown" xMin="93" yMin="0" xMax="142" yMax="700">
      <contour>
        <pt x="93" y="526" on="1"/>
        <pt x="93" y="536" on="0"/>
        <pt x="107" y="551" on="0"/>
        <pt x="128" y="551" on="0"/>
        <pt x="142" y="536" on="0"/>
        <pt x="142" y="526" on="1"/>
        <pt x="142" y="24" on="1"/>
        <pt x="142" y="14" on="0"/>
        <pt x="127" y="0" on="0"/>
        <pt x="107" y="0" on="0"/>
        <pt x="93" y="14" on="0"/>
        <pt x="93" y="24" on="1"/>
      </contour>
      <contour>
        <pt x="93" y="676" on="1"/>
        <pt x="93" y="686" on="0"/>
        <pt x="107" y="700" on="0"/>
        <pt x="127" y="700" on="0"/>
        <pt x="142" y="686" on="0"/>
        <pt x="142" y="676" on="1"/>
        <pt x="142" y="652" on="1"/>
        <pt x="142" y="642" on="0"/>
        <pt x="127" y="628" on="0"/>
        <pt x="107" y="628" on="0"/>
        <pt x="93" y="642" on="0"/>
        <pt x="93" y="652" on="1"/>
      </contour>
    </TTGlyph>
    <TTGlyph name="f" xMin="65" yMin="-1" xMax="309" yMax="699">
      <contour>
        <pt x="285" y="699" on="1"/>
        <pt x="295" y="699" on="0"/>
        <pt x="309" y="684" on="0"/>
        <pt x="309" y="664" on="0"/>
        <pt x="295" y="650" on="0"/>
        <pt x="285" y="650" on="1"/>
        <pt x="239" y="650" on="0"/>
        <pt x="203" y="609" on="0"/>
        <pt x="203" y="550" on="1"/>
        <pt x="203" y="498" on="1"/>
        <pt x="272" y="498" on="1"/>
        <pt x="282" y="498" on="0"/>
        <pt x="297" y="484" on="0"/>
        <pt x="297" y="464" on="0"/>
        <pt x="282" y="449" on="0"/>
        <pt x="272" y="449" on="1"/>
        <pt x="203" y="449" on="1"/>
        <pt x="203" y="23" on="1"/>
        <pt x="203" y="13" on="0"/>
        <pt x="189" y="-1" on="0"/>
        <pt x="169" y="-1" on="0"/>
        <pt x="154" y="13" on="0"/>
        <pt x="154" y="23" on="1"/>
        <pt x="154" y="449" on="1"/>
        <pt x="89" y="449" on="1"/>
        <pt x="79" y="449" on="0"/>
        <pt x="65" y="464" on="0"/>
        <pt x="65" y="484" on="0"/>
        <pt x="79" y="498" on="0"/>
        <pt x="89" y="498" on="1"/>
        <pt x="154" y="498" on="1"/>
        <pt x="154" y="550" on="1"/>
        <pt x="156" y="628" on="0"/>
        <pt x="186" y="664" on="1"/>
        <pt x="218" y="699" on="0"/>
      </contour>
    </TTGlyph>
    <TTGlyph name="five" xMin="62" yMin="0" xMax="475" yMax="700">
      <contour>
        <pt x="64" y="381" on="1"/>
        <pt x="63" y="383" on="0"/>
        <pt x="64" y="393" on="0"/>
        <pt x="64" y="394" on="1"/>
        <pt x="98" y="676" on="1"/>
        <pt x="98" y="687" on="0"/>
        <pt x="108" y="694" on="1"/>
        <pt x="114" y="700" on="0"/>
        <pt x="124" y="700" on="1"/>
        <pt x="450" y="700" on="1"/>
        <pt x="460" y="700" on="0"/>
        <pt x="475" y="686" on="0"/>
        <pt x="475" y="664" on="0"/>
        <pt x="461" y="650" on="0"/>
        <pt x="450" y="650" on="1"/>
        <pt x="145" y="650" on="1"/>
        <pt x="120" y="442" on="1"/>
        <pt x="175" y="474" on="0"/>
        <pt x="239" y="474" on="1"/>
        <pt x="338" y="474" on="0"/>
        <pt x="475" y="337" on="0"/>
        <pt x="475" y="137" on="0"/>
        <pt x="335" y="0" on="0"/>
        <pt x="139" y="0" on="0"/>
        <pt x="70" y="69" on="1"/>
        <pt x="62" y="76" on="0"/>
        <pt x="62" y="97" on="0"/>
        <pt x="78" y="112" on="0"/>
        <pt x="98" y="112" on="0"/>
        <pt x="106" y="104" on="1"/>
        <pt x="162" y="50" on="0"/>
        <pt x="315" y="50" on="0"/>
        <pt x="425" y="160" on="0"/>
        <pt x="425" y="316" on="0"/>
        <pt x="317" y="424" on="0"/>
        <pt x="161" y="424" on="0"/>
        <pt x="106" y="369" on="1"/>
        <pt x="98" y="362" on="0"/>
        <pt x="88" y="362" on="1"/>
        <pt x="71" y="362" on="0"/>
        <pt x="65" y="377" on="1"/>
        <pt x="65" y="378" on="1"/>
        <pt x="64" y="379" on="0"/>
      </contour>
    </TTGlyph>
    <TTGlyph name="florin" xMin="56" yMin="-5" xMax="474" yMax="705">
      <contour>
        <pt x="94" y="-5" on="1"/>
        <pt x="56" y="-5" on="0"/>
        <pt x="56" y="39" on="0"/>
        <pt x="87" y="39" on="1"/>
        <pt x="154" y="39" on="0"/>
        <pt x="169" y="121" on="1"/>
        <pt x="218" y="384" on="1"/>
        <pt x="128" y="384" on="1"/>
        <pt x="119" y="384" on="0"/>
        <pt x="105" y="397" on="0"/>
        <pt x="105" y="416" on="0"/>
        <pt x="119" y="429" on="0"/>
        <pt x="128" y="429" on="1"/>
        <pt x="226" y="429" on="1"/>
        <pt x="252" y="565" on="1"/>
        <pt x="266" y="639" on="0"/>
        <pt x="335" y="705" on="0"/>
        <pt x="395" y="705" on="1"/>
        <pt x="430" y="705" on="0"/>
        <pt x="474" y="694" on="0"/>
        <pt x="474" y="676" on="1"/>
        <pt x="474" y="667" on="0"/>
        <pt x="461" y="655" on="0"/>
        <pt x="451" y="655" on="0"/>
        <pt x="415" y="661" on="0"/>
        <pt x="400" y="661" on="1"/>
        <pt x="359" y="661" on="0"/>
        <pt x="315" y="615" on="0"/>
        <pt x="305" y="562" on="1"/>
        <pt x="280" y="429" on="1"/>
        <pt x="416" y="429" on="1"/>
        <pt x="425" y="429" on="0"/>
        <pt x="439" y="415" on="0"/>
        <pt x="439" y="397" on="0"/>
        <pt x="425" y="384" on="0"/>
        <pt x="416" y="384" on="1"/>
        <pt x="272" y="384" on="1"/>
        <pt x="222" y="118" on="1"/>
        <pt x="198" y="-5" on="0"/>
      </contour>
    </TTGlyph>
    <TTGlyph name="four" xMin="50" yMin="0" xMax="577" yMax="691">
      <contour>
        <pt x="496" y="691" on="1"/>
        <pt x="501" y="688" on="0"/>
        <pt x="505" y="675" on="1"/>
        <pt x="505" y="192" on="1"/>
        <pt x="552" y="192" on="1"/>
        <pt x="562" y="192" on="0"/>
        <pt x="577" y="178" on="0"/>
        <pt x="577" y="158" on="0"/>
        <pt x="562" y="144" on="0"/>
        <pt x="552" y="144" on="1"/>
        <pt x="505" y="144" on="1"/>
        <pt x="505" y="24" on="1"/>
        <pt x="505" y="14" on="0"/>
        <pt x="490" y="0" on="0"/>
        <pt x="470" y="0" on="0"/>
        <pt x="456" y="14" on="0"/>
        <pt x="456" y="24" on="1"/>
        <pt x="456" y="144" on="1"/>
        <pt x="74" y="144" on="1"/>
        <pt x="64" y="144" on="0"/>
        <pt x="51" y="155" on="0"/>
        <pt x="49" y="176" on="0"/>
        <pt x="56" y="183" on="1"/>
        <pt x="461" y="687" on="1"/>
        <pt x="462" y="688" on="1"/>
        <pt x="477" y="706" on="0"/>
      </contour>
      <contour>
        <pt x="125" y="192" on="1"/>
        <pt x="456" y="192" on="1"/>
        <pt x="456" y="602" on="1"/>
      </contour>
    </TTGlyph>
    <TTGlyph name="g" xMin="60" yMin="-191" xMax="521" yMax="490">
      <contour>
        <pt x="521" y="466" on="1"/>
        <pt x="521" y="39" on="1"/>
        <pt x="521" y="-56" on="0"/>
        <pt x="386" y="-191" on="0"/>
        <pt x="290" y="-191" on="1"/>
        <pt x="241" y="-191" on="0"/>
        <pt x="188" y="-168" on="1"/>
        <pt x="168" y="-154" on="0"/>
        <pt x="178" y="-136" on="1"/>
        <pt x="189" y="-113" on="0"/>
        <pt x="210" y="-125" on="1"/>
        <pt x="248" y="-143" on="0"/>
        <pt x="290" y="-143" on="1"/>
        <pt x="366" y="-143" on="0"/>
        <pt x="473" y="-37" on="0"/>
        <pt x="473" y="39" on="1"/>
        <pt x="473" y="99" on="1"/>
        <pt x="442" y="54" on="0"/>
        <pt x="346" y="3" on="0"/>
        <pt x="290" y="3" on="1"/>
        <pt x="194" y="3" on="0"/>
        <pt x="60" y="146" on="0"/>
        <pt x="60" y="347" on="0"/>
        <pt x="195" y="490" on="0"/>
        <pt x="290" y="490" on="1"/>
        <pt x="345" y="490" on="0"/>
        <pt x="442" y="438" on="0"/>
        <pt x="473" y="394" on="1"/>
        <pt x="473" y="466" on="1"/>
        <pt x="473" y="476" on="0"/>
        <pt x="488" y="490" on="0"/>
        <pt x="507" y="490" on="0"/>
        <pt x="521" y="476" on="0"/>
      </contour>
      <contour>
        <pt x="108" y="165" on="0"/>
        <pt x="215" y="50" on="0"/>
        <pt x="366" y="50" on="0"/>
        <pt x="473" y="165" on="0"/>
        <pt x="473" y="329" on="0"/>
        <pt x="366" y="442" on="0"/>
        <pt x="215" y="442" on="0"/>
        <pt x="108" y="328" on="0"/>
      </contour>
    </TTGlyph>
    <TTGlyph name="germandbls" xMin="93" yMin="-4" xMax="557" yMax="737">
      <contour>
        <pt x="285" y="11" on="0"/>
        <pt x="285" y="29" on="0"/>
        <pt x="297" y="41" on="0"/>
        <pt x="306" y="42" on="1"/>
        <pt x="396" y="47" on="0"/>
        <pt x="504" y="119" on="0"/>
        <pt x="504" y="187" on="1"/>
        <pt x="504" y="189" on="1"/>
        <pt x="504" y="253" on="0"/>
        <pt x="397" y="328" on="0"/>
        <pt x="310" y="339" on="1"/>
        <pt x="285" y="342" on="0"/>
        <pt x="285" y="363" on="1"/>
        <pt x="285" y="381" on="0"/>
        <pt x="305" y="388" on="1"/>
        <pt x="459" y="442" on="0"/>
        <pt x="459" y="558" on="1"/>
        <pt x="459" y="560" on="1"/>
        <pt x="459" y="617" on="0"/>
        <pt x="376" y="691" on="0"/>
        <pt x="236" y="691" on="0"/>
        <pt x="142" y="587" on="0"/>
        <pt x="142" y="500" on="1"/>
        <pt x="142" y="20" on="1"/>
        <pt x="142" y="10" on="0"/>
        <pt x="128" y="-4" on="0"/>
        <pt x="106" y="-4" on="0"/>
        <pt x="93" y="10" on="0"/>
        <pt x="93" y="20" on="1"/>
        <pt x="93" y="500" on="1"/>
        <pt x="93" y="605" on="0"/>
        <pt x="213" y="737" on="0"/>
        <pt x="402" y="737" on="0"/>
        <pt x="512" y="637" on="0"/>
        <pt x="512" y="562" on="1"/>
        <pt x="512" y="560" on="1"/>
        <pt x="512" y="492" on="0"/>
        <pt x="421" y="394" on="0"/>
        <pt x="355" y="370" on="1"/>
        <pt x="443" y="355" on="0"/>
        <pt x="557" y="266" on="0"/>
        <pt x="557" y="191" on="1"/>
        <pt x="557" y="189" on="1"/>
        <pt x="557" y="100" on="0"/>
        <pt x="419" y="2" on="0"/>
        <pt x="306" y="-2" on="1"/>
        <pt x="298" y="-2" on="0"/>
      </contour>
    </TTGlyph>
    <TTGlyph name="grave" xMin="163" yMin="592" xMax="299" yMax="723">
      <contour>
        <pt x="299" y="601" on="1"/>
        <pt x="299" y="592" on="0"/>
        <pt x="268" y="592" on="0"/>
        <pt x="254" y="605" on="1"/>
        <pt x="174" y="682" on="1"/>
        <pt x="163" y="693" on="0"/>
        <pt x="163" y="708" on="0"/>
        <pt x="191" y="723" on="0"/>
        <pt x="221" y="723" on="0"/>
        <pt x="233" y="705" on="1"/>
        <pt x="295" y="612" on="1"/>
        <pt x="299" y="606" on="0"/>
      </contour>
    </TTGlyph>
    <TTGlyph name="greater" xMin="92" yMin="0" xMax="465" yMax="697">
      <contour>
        <pt x="132" y="0" on="0"/>
        <pt x="108" y="0" on="0"/>
        <pt x="92" y="17" on="0"/>
        <pt x="92" y="40" on="0"/>
        <pt x="99" y="48" on="1"/>
        <pt x="397" y="348" on="1"/>
        <pt x="99" y="647" on="1"/>
        <pt x="92" y="656" on="0"/>
        <pt x="92" y="680" on="0"/>
        <pt x="99" y="689" on="1"/>
        <pt x="107" y="697" on="0"/>
        <pt x="132" y="697" on="0"/>
        <pt x="140" y="689" on="1"/>
        <pt x="457" y="368" on="1"/>
        <pt x="465" y="360" on="0"/>
        <pt x="465" y="349" on="1"/>
        <pt x="465" y="336" on="0"/>
        <pt x="456" y="327" on="1"/>
        <pt x="140" y="9" on="1"/>
      </contour>
    </TTGlyph>
    <TTGlyph name="guillemotleft" xMin="55" yMin="43" xMax="447" yMax="467">
      <contour>
        <pt x="425" y="43" on="1"/>
        <pt x="414" y="43" on="0"/>
        <pt x="406" y="54" on="1"/>
        <pt x="269" y="233" on="1"/>
        <pt x="259" y="246" on="0"/>
        <pt x="259" y="264" on="0"/>
        <pt x="269" y="277" on="1"/>
        <pt x="406" y="456" on="1"/>
        <pt x="414" y="467" on="0"/>
        <pt x="434" y="467" on="0"/>
        <pt x="447" y="455" on="0"/>
        <pt x="447" y="437" on="0"/>
        <pt x="441" y="429" on="1"/>
        <pt x="315" y="256" on="1"/>
        <pt x="441" y="81" on="1"/>
        <pt x="447" y="72" on="0"/>
        <pt x="447" y="64" on="1"/>
        <pt x="445" y="43" on="0"/>
      </contour>
      <contour>
        <pt x="243" y="55" on="0"/>
        <pt x="230" y="43" on="0"/>
        <pt x="210" y="43" on="0"/>
        <pt x="202" y="54" on="1"/>
        <pt x="65" y="233" on="1"/>
        <pt x="55" y="246" on="0"/>
        <pt x="55" y="264" on="0"/>
        <pt x="65" y="277" on="1"/>
        <pt x="202" y="456" on="1"/>
        <pt x="210" y="467" on="0"/>
        <pt x="230" y="467" on="0"/>
        <pt x="243" y="455" on="0"/>
        <pt x="243" y="437" on="0"/>
        <pt x="237" y="429" on="1"/>
        <pt x="111" y="256" on="1"/>
        <pt x="237" y="81" on="1"/>
        <pt x="243" y="74" on="0"/>
      </contour>
    </TTGlyph>
    <TTGlyph name="guillemotright" xMin="68" yMin="43" xMax="460" yMax="467">
      <contour>
        <pt x="272" y="455" on="0"/>
        <pt x="285" y="467" on="0"/>
        <pt x="305" y="467" on="0"/>
        <pt x="313" y="456" on="1"/>
        <pt x="450" y="277" on="1"/>
        <pt x="460" y="264" on="0"/>
        <pt x="460" y="246" on="0"/>
        <pt x="450" y="233" on="1"/>
        <pt x="313" y="54" on="1"/>
        <pt x="305" y="43" on="0"/>
        <pt x="285" y="43" on="0"/>
        <pt x="272" y="55" on="0"/>
        <pt x="272" y="73" on="0"/>
        <pt x="278" y="81" on="1"/>
        <pt x="404" y="254" on="1"/>
        <pt x="278" y="429" on="1"/>
        <pt x="272" y="437" on="0"/>
      </contour>
      <contour>
        <pt x="90" y="467" on="1"/>
        <pt x="101" y="467" on="0"/>
        <pt x="109" y="456" on="1"/>
        <pt x="246" y="277" on="1"/>
        <pt x="256" y="264" on="0"/>
        <pt x="256" y="246" on="0"/>
        <pt x="246" y="233" on="1"/>
        <pt x="109" y="54" on="1"/>
        <pt x="101" y="43" on="0"/>
        <pt x="81" y="43" on="0"/>
        <pt x="68" y="55" on="0"/>
        <pt x="68" y="73" on="0"/>
        <pt x="74" y="81" on="1"/>
        <pt x="200" y="254" on="1"/>
        <pt x="74" y="429" on="1"/>
        <pt x="67" y="439" on="0"/>
        <pt x="68" y="446" on="1"/>
        <pt x="70" y="467" on="0"/>
      </contour>
    </TTGlyph>
    <TTGlyph name="guilsinglleft" xMin="55" yMin="43" xMax="243" yMax="467">
      <contour>
        <pt x="243" y="55" on="0"/>
        <pt x="230" y="43" on="0"/>
        <pt x="210" y="43" on="0"/>
        <pt x="202" y="54" on="1"/>
        <pt x="65" y="233" on="1"/>
        <pt x="55" y="246" on="0"/>
        <pt x="55" y="264" on="0"/>
        <pt x="65" y="277" on="1"/>
        <pt x="202" y="456" on="1"/>
        <pt x="210" y="467" on="0"/>
        <pt x="230" y="467" on="0"/>
        <pt x="243" y="455" on="0"/>
        <pt x="243" y="437" on="0"/>
        <pt x="237" y="429" on="1"/>
        <pt x="111" y="256" on="1"/>
        <pt x="237" y="81" on="1"/>
        <pt x="243" y="74" on="0"/>
      </contour>
    </TTGlyph>
    <TTGlyph name="guilsinglright" xMin="68" yMin="43" xMax="256" yMax="467">
      <contour>
        <pt x="90" y="467" on="1"/>
        <pt x="101" y="467" on="0"/>
        <pt x="109" y="456" on="1"/>
        <pt x="246" y="277" on="1"/>
        <pt x="256" y="264" on="0"/>
        <pt x="256" y="246" on="0"/>
        <pt x="246" y="233" on="1"/>
        <pt x="109" y="54" on="1"/>
        <pt x="101" y="43" on="0"/>
        <pt x="81" y="43" on="0"/>
        <pt x="68" y="55" on="0"/>
        <pt x="68" y="73" on="0"/>
        <pt x="74" y="81" on="1"/>
        <pt x="200" y="254" on="1"/>
        <pt x="74" y="429" on="1"/>
        <pt x="67" y="439" on="0"/>
        <pt x="68" y="446" on="1"/>
        <pt x="70" y="467" on="0"/>
      </contour>
    </TTGlyph>
    <TTGlyph name="h" xMin="93" yMin="0" xMax="502" yMax="700">
      <contour>
        <pt x="122" y="0" on="1"/>
        <pt x="117" y="0" on="1"/>
        <pt x="93" y="0" on="0"/>
        <pt x="93" y="24" on="1"/>
        <pt x="93" y="676" on="1"/>
        <pt x="93" y="686" on="0"/>
        <pt x="107" y="700" on="0"/>
        <pt x="127" y="700" on="0"/>
        <pt x="142" y="686" on="0"/>
        <pt x="142" y="676" on="1"/>
        <pt x="142" y="418" on="1"/>
        <pt x="203" y="490" on="0"/>
        <pt x="383" y="490" on="0"/>
        <pt x="502" y="381" on="0"/>
        <pt x="502" y="297" on="1"/>
        <pt x="502" y="24" on="1"/>
        <pt x="502" y="14" on="0"/>
        <pt x="487" y="0" on="0"/>
        <pt x="467" y="0" on="0"/>
        <pt x="453" y="14" on="0"/>
        <pt x="453" y="24" on="1"/>
        <pt x="453" y="297" on="1"/>
        <pt x="453" y="360" on="0"/>
        <pt x="363" y="441" on="0"/>
        <pt x="232" y="441" on="0"/>
        <pt x="142" y="360" on="0"/>
        <pt x="142" y="297" on="1"/>
        <pt x="142" y="21" on="1"/>
        <pt x="142" y="19" on="0"/>
        <pt x="134" y="4" on="0"/>
        <pt x="124" y="1" on="1"/>
        <pt x="123" y="0" on="0"/>
      </contour>
    </TTGlyph>
    <TTGlyph name="hyphen" xMin="66" yMin="328" xMax="317" yMax="366">
      <contour>
        <pt x="85" y="328" on="1"/>
        <pt x="66" y="328" on="0"/>
        <pt x="66" y="366" on="0"/>
        <pt x="85" y="366" on="1"/>
        <pt x="298" y="366" on="1"/>
        <pt x="317" y="366" on="0"/>
        <pt x="317" y="348" on="1"/>
        <pt x="317" y="339" on="0"/>
        <pt x="306" y="328" on="0"/>
        <pt x="298" y="328" on="1"/>
      </contour>
    </TTGlyph>
    <TTGlyph name="i" xMin="94" yMin="0" xMax="143" yMax="650">
      <contour>
        <pt x="94" y="24" on="1"/>
        <pt x="94" y="466" on="1"/>
        <pt x="94" y="476" on="0"/>
        <pt x="108" y="490" on="0"/>
        <pt x="129" y="490" on="0"/>
        <pt x="143" y="476" on="0"/>
        <pt x="143" y="466" on="1"/>
        <pt x="143" y="24" on="1"/>
        <pt x="143" y="14" on="0"/>
        <pt x="128" y="0" on="0"/>
        <pt x="108" y="0" on="0"/>
        <pt x="94" y="14" on="0"/>
      </contour>
      <contour>
        <pt x="94" y="603" on="1"/>
        <pt x="94" y="626" on="1"/>
        <pt x="94" y="636" on="0"/>
        <pt x="108" y="650" on="0"/>
        <pt x="128" y="650" on="0"/>
        <pt x="143" y="636" on="0"/>
        <pt x="143" y="626" on="1"/>
        <pt x="143" y="603" on="1"/>
        <pt x="143" y="592" on="0"/>
        <pt x="128" y="577" on="0"/>
        <pt x="108" y="577" on="0"/>
        <pt x="94" y="592" on="0"/>
      </contour>
    </TTGlyph>
    <TTGlyph name="iacute" xMin="50" yMin="0" xMax="186" yMax="701">
      <contour>
        <pt x="94" y="24" on="1"/>
        <pt x="94" y="14" on="0"/>
        <pt x="108" y="0" on="0"/>
        <pt x="128" y="0" on="0"/>
        <pt x="143" y="14" on="0"/>
        <pt x="143" y="24" on="1"/>
        <pt x="143" y="466" on="1"/>
        <pt x="143" y="476" on="0"/>
        <pt x="129" y="490" on="0"/>
        <pt x="108" y="490" on="0"/>
        <pt x="94" y="476" on="0"/>
        <pt x="94" y="466" on="1"/>
      </contour>
      <contour>
        <pt x="95" y="583" on="1"/>
        <pt x="81" y="570" on="0"/>
        <pt x="50" y="570" on="0"/>
        <pt x="50" y="579" on="1"/>
        <pt x="50" y="584" on="0"/>
        <pt x="54" y="590" on="1"/>
        <pt x="116" y="683" on="1"/>
        <pt x="128" y="701" on="0"/>
        <pt x="158" y="701" on="0"/>
        <pt x="186" y="686" on="0"/>
        <pt x="186" y="671" on="0"/>
        <pt x="175" y="660" on="1"/>
      </contour>
    </TTGlyph>
    <TTGlyph name="icircumflex" xMin="9" yMin="0" xMax="227" yMax="698">
      <contour>
        <pt x="94" y="24" on="1"/>
        <pt x="94" y="14" on="0"/>
        <pt x="108" y="0" on="0"/>
        <pt x="128" y="0" on="0"/>
        <pt x="143" y="14" on="0"/>
        <pt x="143" y="24" on="1"/>
        <pt x="143" y="466" on="1"/>
        <pt x="143" y="476" on="0"/>
        <pt x="129" y="490" on="0"/>
        <pt x="108" y="490" on="0"/>
        <pt x="94" y="476" on="0"/>
        <pt x="94" y="466" on="1"/>
      </contour>
      <contour>
        <pt x="117" y="641" on="1"/>
        <pt x="54" y="583" on="1"/>
        <pt x="40" y="570" on="0"/>
        <pt x="9" y="570" on="0"/>
        <pt x="9" y="580" on="1"/>
        <pt x="9" y="586" on="0"/>
        <pt x="14" y="592" on="1"/>
        <pt x="86" y="680" on="1"/>
        <pt x="101" y="698" on="0"/>
        <pt x="114" y="698" on="1"/>
        <pt x="122" y="698" on="1"/>
        <pt x="135" y="698" on="0"/>
        <pt x="150" y="680" on="1"/>
        <pt x="222" y="592" on="1"/>
        <pt x="227" y="586" on="0"/>
        <pt x="227" y="580" on="1"/>
        <pt x="227" y="570" on="0"/>
        <pt x="194" y="570" on="0"/>
        <pt x="180" y="583" on="1"/>
      </contour>
    </TTGlyph>
    <TTGlyph name="idieresis" xMin="-6" yMin="0" xMax="245" yMax="656">
      <contour>
        <pt x="94" y="24" on="1"/>
        <pt x="94" y="14" on="0"/>
        <pt x="108" y="0" on="0"/>
        <pt x="128" y="0" on="0"/>
        <pt x="143" y="14" on="0"/>
        <pt x="143" y="24" on="1"/>
        <pt x="143" y="466" on="1"/>
        <pt x="143" y="476" on="0"/>
        <pt x="129" y="490" on="0"/>
        <pt x="108" y="490" on="0"/>
        <pt x="94" y="476" on="0"/>
        <pt x="94" y="466" on="1"/>
      </contour>
      <contour>
        <pt x="-6" y="595" on="0"/>
        <pt x="-6" y="631" on="0"/>
        <pt x="19" y="656" on="0"/>
        <pt x="55" y="656" on="0"/>
        <pt x="80" y="631" on="0"/>
        <pt x="80" y="595" on="0"/>
        <pt x="55" y="570" on="0"/>
        <pt x="19" y="570" on="0"/>
      </contour>
      <contour>
        <pt x="159" y="595" on="0"/>
        <pt x="159" y="631" on="0"/>
        <pt x="184" y="656" on="0"/>
        <pt x="220" y="656" on="0"/>
        <pt x="245" y="631" on="0"/>
        <pt x="245" y="595" on="0"/>
        <pt x="220" y="570" on="0"/>
        <pt x="184" y="570" on="0"/>
      </contour>
    </TTGlyph>
    <TTGlyph name="igrave" xMin="50" yMin="0" xMax="186" yMax="701">
      <contour>
        <pt x="94" y="24" on="1"/>
        <pt x="94" y="14" on="0"/>
        <pt x="108" y="0" on="0"/>
        <pt x="128" y="0" on="0"/>
        <pt x="143" y="14" on="0"/>
        <pt x="143" y="24" on="1"/>
        <pt x="143" y="466" on="1"/>
        <pt x="143" y="476" on="0"/>
        <pt x="129" y="490" on="0"/>
        <pt x="108" y="490" on="0"/>
        <pt x="94" y="476" on="0"/>
        <pt x="94" y="466" on="1"/>
      </contour>
      <contour>
        <pt x="186" y="579" on="1"/>
        <pt x="186" y="570" on="0"/>
        <pt x="155" y="570" on="0"/>
        <pt x="141" y="583" on="1"/>
        <pt x="61" y="660" on="1"/>
        <pt x="50" y="671" on="0"/>
        <pt x="50" y="686" on="0"/>
        <pt x="78" y="701" on="0"/>
        <pt x="108" y="701" on="0"/>
        <pt x="120" y="683" on="1"/>
        <pt x="182" y="590" on="1"/>
        <pt x="186" y="584" on="0"/>
      </contour>
    </TTGlyph>
    <TTGlyph name="j" xMin="-5" yMin="-191" xMax="106" yMax="650">
      <contour>
        <pt x="57" y="603" on="1"/>
        <pt x="57" y="626" on="1"/>
        <pt x="57" y="636" on="0"/>
        <pt x="73" y="650" on="0"/>
        <pt x="92" y="650" on="0"/>
        <pt x="106" y="636" on="0"/>
        <pt x="106" y="626" on="1"/>
        <pt x="106" y="603" on="1"/>
        <pt x="106" y="593" on="0"/>
        <pt x="92" y="578" on="0"/>
        <pt x="73" y="578" on="0"/>
        <pt x="57" y="593" on="0"/>
      </contour>
      <contour>
        <pt x="9" y="-191" on="0"/>
        <pt x="-5" y="-178" on="0"/>
        <pt x="-5" y="-157" on="0"/>
        <pt x="9" y="-143" on="0"/>
        <pt x="33" y="-143" on="0"/>
        <pt x="55" y="-121" on="0"/>
        <pt x="55" y="-106" on="1"/>
        <pt x="55" y="465" on="1"/>
        <pt x="55" y="475" on="0"/>
        <pt x="70" y="490" on="0"/>
        <pt x="90" y="490" on="0"/>
        <pt x="104" y="475" on="0"/>
        <pt x="104" y="465" on="1"/>
        <pt x="104" y="-106" on="1"/>
        <pt x="104" y="-142" on="0"/>
        <pt x="55" y="-191" on="0"/>
        <pt x="19" y="-191" on="1"/>
      </contour>
    </TTGlyph>
    <TTGlyph name="k" xMin="93" yMin="0" xMax="474" yMax="700">
      <contour>
        <pt x="93" y="24" on="1"/>
        <pt x="93" y="676" on="1"/>
        <pt x="93" y="686" on="0"/>
        <pt x="107" y="700" on="0"/>
        <pt x="127" y="700" on="0"/>
        <pt x="142" y="686" on="0"/>
        <pt x="142" y="676" on="1"/>
        <pt x="142" y="205" on="1"/>
        <pt x="432" y="494" on="1"/>
        <pt x="449" y="511" on="0"/>
        <pt x="466" y="494" on="1"/>
        <pt x="474" y="487" on="0"/>
        <pt x="474" y="468" on="0"/>
        <pt x="466" y="460" on="1"/>
        <pt x="277" y="271" on="1"/>
        <pt x="467" y="40" on="1"/>
        <pt x="482" y="22" on="0"/>
        <pt x="465" y="5" on="1"/>
        <pt x="459" y="0" on="0"/>
        <pt x="435" y="0" on="0"/>
        <pt x="430" y="9" on="1"/>
        <pt x="242" y="236" on="1"/>
        <pt x="142" y="136" on="1"/>
        <pt x="142" y="24" on="1"/>
        <pt x="142" y="14" on="0"/>
        <pt x="127" y="0" on="0"/>
        <pt x="107" y="0" on="0"/>
        <pt x="93" y="14" on="0"/>
      </contour>
    </TTGlyph>
    <TTGlyph name="l" xMin="100" yMin="0" xMax="149" yMax="700">
      <contour>
        <pt x="100" y="24" on="1"/>
        <pt x="100" y="676" on="1"/>
        <pt x="100" y="686" on="0"/>
        <pt x="114" y="700" on="0"/>
        <pt x="134" y="700" on="0"/>
        <pt x="149" y="686" on="0"/>
        <pt x="149" y="676" on="1"/>
        <pt x="149" y="24" on="1"/>
        <pt x="149" y="14" on="0"/>
        <pt x="134" y="0" on="0"/>
        <pt x="114" y="0" on="0"/>
        <pt x="100" y="14" on="0"/>
      </contour>
    </TTGlyph>
    <TTGlyph name="less" xMin="60" yMin="0" xMax="434" yMax="697">
      <contour>
        <pt x="386" y="9" on="1"/>
        <pt x="69" y="328" on="1"/>
        <pt x="61" y="336" on="0"/>
        <pt x="60" y="342" on="1"/>
        <pt x="59" y="349" on="0"/>
        <pt x="65" y="364" on="0"/>
        <pt x="70" y="369" on="1"/>
        <pt x="386" y="689" on="1"/>
        <pt x="394" y="697" on="0"/>
        <pt x="419" y="697" on="0"/>
        <pt x="427" y="689" on="1"/>
        <pt x="434" y="680" on="0"/>
        <pt x="434" y="656" on="0"/>
        <pt x="427" y="647" on="1"/>
        <pt x="129" y="348" on="1"/>
        <pt x="427" y="48" on="1"/>
        <pt x="434" y="40" on="0"/>
        <pt x="434" y="17" on="0"/>
        <pt x="420" y="0" on="0"/>
        <pt x="395" y="0" on="0"/>
      </contour>
    </TTGlyph>
    <TTGlyph name="m" xMin="93" yMin="0" xMax="841" yMax="489">
      <contour>
        <pt x="119" y="0" on="1"/>
        <pt x="113" y="0" on="1"/>
        <pt x="98" y="2" on="0"/>
        <pt x="93" y="18" on="1"/>
        <pt x="93" y="466" on="1"/>
        <pt x="93" y="476" on="0"/>
        <pt x="107" y="489" on="0"/>
        <pt x="126" y="489" on="0"/>
        <pt x="140" y="476" on="0"/>
        <pt x="140" y="466" on="1"/>
        <pt x="140" y="419" on="1"/>
        <pt x="199" y="489" on="0"/>
        <pt x="291" y="489" on="1"/>
        <pt x="347" y="489" on="0"/>
        <pt x="440" y="432" on="0"/>
        <pt x="466" y="385" on="1"/>
        <pt x="493" y="432" on="0"/>
        <pt x="587" y="489" on="0"/>
        <pt x="642" y="489" on="1"/>
        <pt x="724" y="489" on="0"/>
        <pt x="841" y="372" on="0"/>
        <pt x="841" y="290" on="1"/>
        <pt x="841" y="23" on="1"/>
        <pt x="841" y="14" on="0"/>
        <pt x="827" y="0" on="0"/>
        <pt x="807" y="0" on="0"/>
        <pt x="794" y="14" on="0"/>
        <pt x="794" y="23" on="1"/>
        <pt x="794" y="290" on="1"/>
        <pt x="792" y="353" on="0"/>
        <pt x="704" y="442" on="0"/>
        <pt x="580" y="442" on="0"/>
        <pt x="491" y="352" on="0"/>
        <pt x="491" y="290" on="1"/>
        <pt x="491" y="20" on="1"/>
        <pt x="490" y="18" on="1"/>
        <pt x="490" y="16" on="1"/>
        <pt x="488" y="9" on="0"/>
        <pt x="472" y="0" on="0"/>
        <pt x="466" y="0" on="1"/>
        <pt x="461" y="0" on="1"/>
        <pt x="453" y="4" on="1"/>
        <pt x="452" y="4" on="0"/>
        <pt x="445" y="12" on="0"/>
        <pt x="444" y="14" on="0"/>
        <pt x="443" y="17" on="0"/>
        <pt x="442" y="18" on="1"/>
        <pt x="442" y="290" on="1"/>
        <pt x="442" y="353" on="0"/>
        <pt x="354" y="442" on="0"/>
        <pt x="228" y="442" on="0"/>
        <pt x="140" y="353" on="0"/>
        <pt x="140" y="290" on="1"/>
        <pt x="140" y="23" on="1"/>
        <pt x="140" y="10" on="0"/>
        <pt x="129" y="4" on="1"/>
        <pt x="125" y="0" on="0"/>
      </contour>
    </TTGlyph>
    <TTGlyph name="multiply" xMin="100" yMin="142" xMax="520" yMax="562">
      <contour>
        <pt x="512" y="520" on="1"/>
        <pt x="343" y="353" on="1"/>
        <pt x="511" y="187" on="1"/>
        <pt x="520" y="178" on="0"/>
        <pt x="520" y="156" on="0"/>
        <pt x="506" y="142" on="0"/>
        <pt x="484" y="142" on="0"/>
        <pt x="475" y="151" on="1"/>
        <pt x="309" y="319" on="1"/>
        <pt x="142" y="150" on="1"/>
        <pt x="134" y="142" on="0"/>
        <pt x="114" y="142" on="0"/>
        <pt x="100" y="156" on="0"/>
        <pt x="100" y="176" on="0"/>
        <pt x="108" y="184" on="1"/>
        <pt x="277" y="351" on="1"/>
        <pt x="109" y="517" on="1"/>
        <pt x="100" y="526" on="0"/>
        <pt x="100" y="548" on="0"/>
        <pt x="114" y="562" on="0"/>
        <pt x="136" y="562" on="0"/>
        <pt x="145" y="553" on="1"/>
        <pt x="311" y="385" on="1"/>
        <pt x="478" y="554" on="1"/>
        <pt x="486" y="562" on="0"/>
        <pt x="506" y="562" on="0"/>
        <pt x="520" y="548" on="0"/>
        <pt x="520" y="528" on="0"/>
      </contour>
    </TTGlyph>
    <TTGlyph name="n" xMin="93" yMin="0" xMax="491" yMax="489">
      <contour>
        <pt x="140" y="20" on="1"/>
        <pt x="135" y="0" on="0"/>
        <pt x="117" y="0" on="1"/>
        <pt x="111" y="0" on="1"/>
        <pt x="100" y="3" on="0"/>
        <pt x="95" y="13" on="1"/>
        <pt x="94" y="14" on="0"/>
        <pt x="94" y="16" on="1"/>
        <pt x="93" y="18" on="1"/>
        <pt x="93" y="465" on="1"/>
        <pt x="93" y="475" on="0"/>
        <pt x="107" y="489" on="0"/>
        <pt x="127" y="489" on="0"/>
        <pt x="140" y="475" on="0"/>
        <pt x="140" y="465" on="1"/>
        <pt x="140" y="418" on="1"/>
        <pt x="199" y="489" on="0"/>
        <pt x="374" y="489" on="0"/>
        <pt x="491" y="372" on="0"/>
        <pt x="491" y="290" on="1"/>
        <pt x="491" y="24" on="1"/>
        <pt x="491" y="14" on="0"/>
        <pt x="477" y="0" on="0"/>
        <pt x="457" y="0" on="0"/>
        <pt x="443" y="14" on="0"/>
        <pt x="443" y="24" on="1"/>
        <pt x="443" y="290" on="1"/>
        <pt x="443" y="352" on="0"/>
        <pt x="355" y="441" on="0"/>
        <pt x="230" y="441" on="0"/>
        <pt x="142" y="353" on="0"/>
        <pt x="140" y="290" on="1"/>
      </contour>
    </TTGlyph>
    <TTGlyph name="nine" xMin="66" yMin="0" xMax="531" yMax="700">
      <contour>
        <pt x="528" y="494" on="1"/>
        <pt x="531" y="431" on="1"/>
        <pt x="531" y="270" on="0"/>
        <pt x="464" y="152" on="1"/>
        <pt x="379" y="6" on="0"/>
        <pt x="219" y="0" on="1"/>
        <pt x="218" y="0" on="1"/>
        <pt x="207" y="0" on="0"/>
        <pt x="193" y="13" on="0"/>
        <pt x="193" y="23" on="1"/>
        <pt x="193" y="47" on="0"/>
        <pt x="217" y="49" on="1"/>
        <pt x="349" y="54" on="0"/>
        <pt x="421" y="176" on="1"/>
        <pt x="457" y="239" on="0"/>
        <pt x="471" y="316" on="1"/>
        <pt x="404" y="239" on="0"/>
        <pt x="201" y="239" on="0"/>
        <pt x="66" y="374" on="0"/>
        <pt x="66" y="565" on="0"/>
        <pt x="202" y="700" on="0"/>
        <pt x="386" y="700" on="0"/>
        <pt x="517" y="583" on="0"/>
        <pt x="527" y="496" on="1"/>
        <pt x="528" y="495" on="0"/>
      </contour>
      <contour>
        <pt x="115" y="394" on="0"/>
        <pt x="222" y="288" on="0"/>
        <pt x="374" y="288" on="0"/>
        <pt x="480" y="394" on="0"/>
        <pt x="480" y="545" on="0"/>
        <pt x="373" y="651" on="0"/>
        <pt x="222" y="651" on="0"/>
        <pt x="115" y="545" on="0"/>
      </contour>
    </TTGlyph>
    <TTGlyph name="ntilde" xMin="94" yMin="0" xMax="492" yMax="675">
      <contour>
        <pt x="118" y="0" on="1"/>
        <pt x="136" y="0" on="0"/>
        <pt x="141" y="20" on="1"/>
        <pt x="141" y="290" on="1"/>
        <pt x="143" y="353" on="0"/>
        <pt x="231" y="441" on="0"/>
        <pt x="356" y="441" on="0"/>
        <pt x="444" y="352" on="0"/>
        <pt x="444" y="290" on="1"/>
        <pt x="444" y="24" on="1"/>
        <pt x="444" y="14" on="0"/>
        <pt x="458" y="0" on="0"/>
        <pt x="478" y="0" on="0"/>
        <pt x="492" y="14" on="0"/>
        <pt x="492" y="24" on="1"/>
        <pt x="492" y="290" on="1"/>
        <pt x="492" y="372" on="0"/>
        <pt x="375" y="489" on="0"/>
        <pt x="200" y="489" on="0"/>
        <pt x="141" y="418" on="1"/>
        <pt x="141" y="465" on="1"/>
        <pt x="141" y="475" on="0"/>
        <pt x="128" y="489" on="0"/>
        <pt x="108" y="489" on="0"/>
        <pt x="94" y="475" on="0"/>
        <pt x="94" y="465" on="1"/>
        <pt x="94" y="18" on="1"/>
        <pt x="95" y="17" on="0"/>
        <pt x="95" y="14" on="0"/>
        <pt x="96" y="13" on="1"/>
        <pt x="101" y="3" on="0"/>
        <pt x="112" y="0" on="1"/>
      </contour>
      <contour>
        <pt x="185" y="574" on="1"/>
        <pt x="178" y="560" on="0"/>
        <pt x="167" y="560" on="1"/>
        <pt x="149" y="560" on="0"/>
        <pt x="149" y="577" on="1"/>
        <pt x="149" y="583" on="0"/>
        <pt x="151" y="589" on="1"/>
        <pt x="165" y="631" on="0"/>
        <pt x="202" y="664" on="0"/>
        <pt x="250" y="664" on="0"/>
        <pt x="342" y="623" on="0"/>
        <pt x="374" y="623" on="0"/>
        <pt x="394" y="640" on="0"/>
        <pt x="403" y="661" on="1"/>
        <pt x="410" y="675" on="0"/>
        <pt x="421" y="675" on="1"/>
        <pt x="439" y="675" on="0"/>
        <pt x="439" y="658" on="1"/>
        <pt x="439" y="652" on="0"/>
        <pt x="437" y="646" on="1"/>
        <pt x="423" y="604" on="0"/>
        <pt x="386" y="571" on="0"/>
        <pt x="338" y="571" on="0"/>
        <pt x="246" y="612" on="0"/>
        <pt x="214" y="612" on="0"/>
        <pt x="194" y="595" on="0"/>
      </contour>
    </TTGlyph>
    <TTGlyph name="numbersign" xMin="45" yMin="-4" xMax="654" yMax="704">
      <contour>
        <pt x="142" y="25" on="1"/>
        <pt x="170" y="187" on="1"/>
        <pt x="69" y="187" on="1"/>
        <pt x="59" y="187" on="0"/>
        <pt x="45" y="200" on="0"/>
        <pt x="45" y="220" on="0"/>
        <pt x="59" y="234" on="0"/>
        <pt x="69" y="234" on="1"/>
        <pt x="178" y="234" on="1"/>
        <pt x="219" y="470" on="1"/>
        <pt x="109" y="470" on="1"/>
        <pt x="99" y="470" on="0"/>
        <pt x="85" y="483" on="0"/>
        <pt x="85" y="503" on="0"/>
        <pt x="99" y="517" on="0"/>
        <pt x="109" y="517" on="1"/>
        <pt x="227" y="517" on="1"/>
        <pt x="255" y="682" on="1"/>
        <pt x="258" y="704" on="0"/>
        <pt x="280" y="704" on="1"/>
        <pt x="292" y="704" on="0"/>
        <pt x="304" y="686" on="0"/>
        <pt x="302" y="675" on="1"/>
        <pt x="275" y="517" on="1"/>
        <pt x="482" y="517" on="1"/>
        <pt x="510" y="682" on="1"/>
        <pt x="513" y="704" on="0"/>
        <pt x="535" y="704" on="1"/>
        <pt x="547" y="704" on="0"/>
        <pt x="559" y="686" on="0"/>
        <pt x="557" y="675" on="1"/>
        <pt x="530" y="517" on="1"/>
        <pt x="630" y="517" on="1"/>
        <pt x="640" y="517" on="0"/>
        <pt x="654" y="504" on="0"/>
        <pt x="654" y="484" on="0"/>
        <pt x="640" y="470" on="0"/>
        <pt x="630" y="470" on="1"/>
        <pt x="522" y="470" on="1"/>
        <pt x="481" y="234" on="1"/>
        <pt x="590" y="234" on="1"/>
        <pt x="600" y="234" on="0"/>
        <pt x="614" y="221" on="0"/>
        <pt x="614" y="201" on="0"/>
        <pt x="600" y="187" on="0"/>
        <pt x="590" y="187" on="1"/>
        <pt x="473" y="187" on="1"/>
        <pt x="444" y="18" on="1"/>
        <pt x="441" y="-4" on="0"/>
        <pt x="419" y="-4" on="1"/>
        <pt x="407" y="-4" on="0"/>
        <pt x="395" y="14" on="0"/>
        <pt x="397" y="25" on="1"/>
        <pt x="425" y="187" on="1"/>
        <pt x="218" y="187" on="1"/>
        <pt x="189" y="18" on="1"/>
        <pt x="186" y="-4" on="0"/>
        <pt x="164" y="-4" on="1"/>
        <pt x="152" y="-4" on="0"/>
        <pt x="140" y="14" on="0"/>
      </contour>
      <contour>
        <pt x="226" y="234" on="1"/>
        <pt x="433" y="234" on="1"/>
        <pt x="474" y="470" on="1"/>
        <pt x="267" y="470" on="1"/>
      </contour>
    </TTGlyph>
    <TTGlyph name="o" xMin="70" yMin="0" xMax="534" yMax="490">
      <contour>
        <pt x="70" y="145" on="0"/>
        <pt x="70" y="345" on="0"/>
        <pt x="206" y="490" on="0"/>
        <pt x="398" y="490" on="0"/>
        <pt x="534" y="345" on="0"/>
        <pt x="534" y="145" on="0"/>
        <pt x="398" y="0" on="0"/>
        <pt x="206" y="0" on="0"/>
      </contour>
      <contour>
        <pt x="227" y="443" on="0"/>
        <pt x="118" y="327" on="0"/>
        <pt x="118" y="164" on="0"/>
        <pt x="227" y="48" on="0"/>
        <pt x="377" y="48" on="0"/>
        <pt x="486" y="164" on="0"/>
        <pt x="486" y="327" on="0"/>
        <pt x="377" y="443" on="0"/>
      </contour>
    </TTGlyph>
    <TTGlyph name="oacute" xMin="58" yMin="0" xMax="522" yMax="701">
      <contour>
        <pt x="58" y="345" on="0"/>
        <pt x="58" y="145" on="0"/>
        <pt x="194" y="0" on="0"/>
        <pt x="386" y="0" on="0"/>
        <pt x="522" y="145" on="0"/>
        <pt x="522" y="345" on="0"/>
        <pt x="386" y="490" on="0"/>
        <pt x="194" y="490" on="0"/>
      </contour>
      <contour>
        <pt x="215" y="48" on="0"/>
        <pt x="106" y="164" on="0"/>
        <pt x="106" y="327" on="0"/>
        <pt x="215" y="443" on="0"/>
        <pt x="365" y="443" on="0"/>
        <pt x="474" y="327" on="0"/>
        <pt x="474" y="164" on="0"/>
        <pt x="365" y="48" on="0"/>
      </contour>
      <contour>
        <pt x="269" y="583" on="1"/>
        <pt x="255" y="570" on="0"/>
        <pt x="224" y="570" on="0"/>
        <pt x="224" y="579" on="1"/>
        <pt x="224" y="584" on="0"/>
        <pt x="228" y="590" on="1"/>
        <pt x="290" y="683" on="1"/>
        <pt x="302" y="701" on="0"/>
        <pt x="332" y="701" on="0"/>
        <pt x="360" y="686" on="0"/>
        <pt x="360" y="671" on="0"/>
        <pt x="349" y="660" on="1"/>
      </contour>
    </TTGlyph>
    <TTGlyph name="ocircumflex" xMin="58" yMin="0" xMax="522" yMax="698">
      <contour>
        <pt x="58" y="345" on="0"/>
        <pt x="58" y="145" on="0"/>
        <pt x="194" y="0" on="0"/>
        <pt x="386" y="0" on="0"/>
        <pt x="522" y="145" on="0"/>
        <pt x="522" y="345" on="0"/>
        <pt x="386" y="490" on="0"/>
        <pt x="194" y="490" on="0"/>
      </contour>
      <contour>
        <pt x="215" y="48" on="0"/>
        <pt x="106" y="164" on="0"/>
        <pt x="106" y="327" on="0"/>
        <pt x="215" y="443" on="0"/>
        <pt x="365" y="443" on="0"/>
        <pt x="474" y="327" on="0"/>
        <pt x="474" y="164" on="0"/>
        <pt x="365" y="48" on="0"/>
      </contour>
      <contour>
        <pt x="289" y="641" on="1"/>
        <pt x="226" y="583" on="1"/>
        <pt x="212" y="570" on="0"/>
        <pt x="181" y="570" on="0"/>
        <pt x="181" y="580" on="1"/>
        <pt x="181" y="586" on="0"/>
        <pt x="186" y="592" on="1"/>
        <pt x="258" y="680" on="1"/>
        <pt x="273" y="698" on="0"/>
        <pt x="286" y="698" on="1"/>
        <pt x="294" y="698" on="1"/>
        <pt x="307" y="698" on="0"/>
        <pt x="322" y="680" on="1"/>
        <pt x="394" y="592" on="1"/>
        <pt x="399" y="586" on="0"/>
        <pt x="399" y="580" on="1"/>
        <pt x="399" y="570" on="0"/>
        <pt x="366" y="570" on="0"/>
        <pt x="352" y="583" on="1"/>
      </contour>
    </TTGlyph>
    <TTGlyph name="odieresis" xMin="58" yMin="0" xMax="522" yMax="656">
      <contour>
        <pt x="58" y="345" on="0"/>
        <pt x="58" y="145" on="0"/>
        <pt x="194" y="0" on="0"/>
        <pt x="386" y="0" on="0"/>
        <pt x="522" y="145" on="0"/>
        <pt x="522" y="345" on="0"/>
        <pt x="386" y="490" on="0"/>
        <pt x="194" y="490" on="0"/>
      </contour>
      <contour>
        <pt x="215" y="48" on="0"/>
        <pt x="106" y="164" on="0"/>
        <pt x="106" y="327" on="0"/>
        <pt x="215" y="443" on="0"/>
        <pt x="365" y="443" on="0"/>
        <pt x="474" y="327" on="0"/>
        <pt x="474" y="164" on="0"/>
        <pt x="365" y="48" on="0"/>
      </contour>
      <contour>
        <pt x="164" y="595" on="0"/>
        <pt x="164" y="631" on="0"/>
        <pt x="189" y="656" on="0"/>
        <pt x="225" y="656" on="0"/>
        <pt x="250" y="631" on="0"/>
        <pt x="250" y="595" on="0"/>
        <pt x="225" y="570" on="0"/>
        <pt x="189" y="570" on="0"/>
      </contour>
      <contour>
        <pt x="329" y="595" on="0"/>
        <pt x="329" y="631" on="0"/>
        <pt x="354" y="656" on="0"/>
        <pt x="390" y="656" on="0"/>
        <pt x="415" y="631" on="0"/>
        <pt x="415" y="595" on="0"/>
        <pt x="390" y="570" on="0"/>
        <pt x="354" y="570" on="0"/>
      </contour>
    </TTGlyph>
    <TTGlyph name="oe" xMin="58" yMin="0" xMax="957" yMax="492">
      <contour>
        <pt x="886" y="60" on="0"/>
        <pt x="782" y="0" on="0"/>
        <pt x="648" y="0" on="0"/>
        <pt x="529" y="80" on="0"/>
        <pt x="501" y="146" on="1"/>
        <pt x="474" y="80" on="0"/>
        <pt x="360" y="0" on="0"/>
        <pt x="289" y="0" on="1"/>
        <pt x="193" y="0" on="0"/>
        <pt x="58" y="144" on="0"/>
        <pt x="58" y="345" on="0"/>
        <pt x="193" y="489" on="0"/>
        <pt x="289" y="489" on="1"/>
        <pt x="359" y="489" on="0"/>
        <pt x="473" y="409" on="0"/>
        <pt x="501" y="344" on="1"/>
        <pt x="529" y="410" on="0"/>
        <pt x="648" y="492" on="0"/>
        <pt x="720" y="492" on="1"/>
        <pt x="814" y="492" on="0"/>
        <pt x="949" y="360" on="0"/>
        <pt x="957" y="264" on="1"/>
        <pt x="957" y="260" on="1"/>
        <pt x="957" y="250" on="0"/>
        <pt x="943" y="236" on="0"/>
        <pt x="933" y="236" on="1"/>
        <pt x="529" y="236" on="1"/>
        <pt x="533" y="156" on="0"/>
        <pt x="643" y="48" on="0"/>
        <pt x="720" y="48" on="1"/>
        <pt x="769" y="48" on="0"/>
        <pt x="853" y="96" on="0"/>
        <pt x="878" y="137" on="1"/>
        <pt x="883" y="146" on="0"/>
        <pt x="904" y="150" on="0"/>
        <pt x="911" y="145" on="1"/>
        <pt x="931" y="131" on="0"/>
        <pt x="919" y="112" on="1"/>
      </contour>
      <contour>
        <pt x="106" y="327" on="0"/>
        <pt x="106" y="163" on="0"/>
        <pt x="214" y="48" on="0"/>
        <pt x="365" y="48" on="0"/>
        <pt x="473" y="163" on="0"/>
        <pt x="473" y="327" on="0"/>
        <pt x="365" y="442" on="0"/>
        <pt x="214" y="442" on="0"/>
      </contour>
      <contour>
        <pt x="892" y="354" on="0"/>
        <pt x="788" y="444" on="0"/>
        <pt x="651" y="444" on="0"/>
        <pt x="546" y="354" on="0"/>
        <pt x="532" y="285" on="1"/>
        <pt x="905" y="285" on="1"/>
      </contour>
    </TTGlyph>
    <TTGlyph name="ograve" xMin="58" yMin="0" xMax="522" yMax="701">
      <contour>
        <pt x="58" y="345" on="0"/>
        <pt x="58" y="145" on="0"/>
        <pt x="194" y="0" on="0"/>
        <pt x="386" y="0" on="0"/>
        <pt x="522" y="145" on="0"/>
        <pt x="522" y="345" on="0"/>
        <pt x="386" y="490" on="0"/>
        <pt x="194" y="490" on="0"/>
      </contour>
      <contour>
        <pt x="215" y="48" on="0"/>
        <pt x="106" y="164" on="0"/>
        <pt x="106" y="327" on="0"/>
        <pt x="215" y="443" on="0"/>
        <pt x="365" y="443" on="0"/>
        <pt x="474" y="327" on="0"/>
        <pt x="474" y="164" on="0"/>
        <pt x="365" y="48" on="0"/>
      </contour>
      <contour>
        <pt x="358" y="579" on="1"/>
        <pt x="358" y="570" on="0"/>
        <pt x="327" y="570" on="0"/>
        <pt x="313" y="583" on="1"/>
        <pt x="233" y="660" on="1"/>
        <pt x="222" y="671" on="0"/>
        <pt x="222" y="686" on="0"/>
        <pt x="250" y="701" on="0"/>
        <pt x="280" y="701" on="0"/>
        <pt x="292" y="683" on="1"/>
        <pt x="354" y="590" on="1"/>
        <pt x="358" y="584" on="0"/>
      </contour>
    </TTGlyph>
    <TTGlyph name="one" xMin="37" yMin="0" xMax="217" yMax="696">
      <contour>
        <pt x="169" y="24" on="1"/>
        <pt x="169" y="629" on="1"/>
        <pt x="70" y="571" on="1"/>
        <pt x="64" y="567" on="0"/>
        <pt x="44" y="567" on="0"/>
        <pt x="37" y="579" on="1"/>
        <pt x="25" y="601" on="0"/>
        <pt x="46" y="612" on="1"/>
        <pt x="181" y="694" on="1"/>
        <pt x="189" y="699" on="0"/>
        <pt x="200" y="696" on="1"/>
        <pt x="221" y="690" on="0"/>
        <pt x="217" y="667" on="1"/>
        <pt x="217" y="24" on="1"/>
        <pt x="217" y="14" on="0"/>
        <pt x="203" y="0" on="0"/>
        <pt x="183" y="0" on="0"/>
        <pt x="169" y="14" on="0"/>
      </contour>
    </TTGlyph>
    <TTGlyph name="ordfeminine" xMin="58" yMin="293" xMax="353" yMax="691">
      <contour>
        <pt x="106" y="293" on="1"/>
        <pt x="98" y="293" on="0"/>
        <pt x="86" y="305" on="0"/>
        <pt x="86" y="321" on="0"/>
        <pt x="98" y="333" on="0"/>
        <pt x="106" y="333" on="1"/>
        <pt x="326" y="333" on="1"/>
        <pt x="334" y="333" on="0"/>
        <pt x="346" y="321" on="0"/>
        <pt x="346" y="305" on="0"/>
        <pt x="334" y="293" on="0"/>
        <pt x="326" y="293" on="1"/>
      </contour>
      <contour>
        <pt x="331" y="691" on="0"/>
        <pt x="343" y="691" on="0"/>
        <pt x="353" y="682" on="0"/>
        <pt x="353" y="676" on="1"/>
        <pt x="353" y="395" on="1"/>
        <pt x="353" y="389" on="0"/>
        <pt x="343" y="380" on="0"/>
        <pt x="331" y="380" on="0"/>
        <pt x="322" y="389" on="0"/>
        <pt x="322" y="395" on="1"/>
        <pt x="322" y="442" on="1"/>
        <pt x="277" y="380" on="0"/>
        <pt x="144" y="380" on="0"/>
        <pt x="58" y="472" on="0"/>
        <pt x="58" y="600" on="0"/>
        <pt x="144" y="691" on="0"/>
        <pt x="277" y="691" on="0"/>
        <pt x="322" y="630" on="1"/>
        <pt x="322" y="676" on="1"/>
        <pt x="322" y="682" on="0"/>
      </contour>
      <contour>
        <pt x="89" y="483" on="0"/>
        <pt x="157" y="411" on="0"/>
        <pt x="254" y="411" on="0"/>
        <pt x="322" y="483" on="0"/>
        <pt x="322" y="588" on="0"/>
        <pt x="254" y="661" on="0"/>
        <pt x="158" y="661" on="0"/>
        <pt x="89" y="588" on="0"/>
      </contour>
    </TTGlyph>
    <TTGlyph name="ordmasculine" xMin="47" yMin="293" xMax="343" yMax="705">
      <contour>
        <pt x="339" y="498" on="0"/>
        <pt x="256" y="411" on="0"/>
        <pt x="133" y="411" on="0"/>
        <pt x="51" y="496" on="0"/>
        <pt x="51" y="556" on="1"/>
        <pt x="51" y="558" on="1"/>
        <pt x="51" y="618" on="0"/>
        <pt x="134" y="705" on="0"/>
        <pt x="257" y="705" on="0"/>
        <pt x="339" y="620" on="0"/>
        <pt x="339" y="560" on="1"/>
        <pt x="339" y="558" on="1"/>
      </contour>
      <contour>
        <pt x="67" y="293" on="1"/>
        <pt x="59" y="293" on="0"/>
        <pt x="47" y="305" on="0"/>
        <pt x="47" y="321" on="0"/>
        <pt x="59" y="333" on="0"/>
        <pt x="67" y="333" on="1"/>
        <pt x="323" y="333" on="1"/>
        <pt x="331" y="333" on="0"/>
        <pt x="343" y="321" on="0"/>
        <pt x="343" y="305" on="0"/>
        <pt x="331" y="293" on="0"/>
        <pt x="323" y="293" on="1"/>
      </contour>
      <contour>
        <pt x="94" y="513" on="0"/>
        <pt x="153" y="450" on="0"/>
        <pt x="240" y="450" on="0"/>
        <pt x="296" y="512" on="0"/>
        <pt x="296" y="556" on="1"/>
        <pt x="296" y="558" on="1"/>
        <pt x="296" y="603" on="0"/>
        <pt x="237" y="666" on="0"/>
        <pt x="150" y="666" on="0"/>
        <pt x="94" y="604" on="0"/>
        <pt x="94" y="560" on="1"/>
        <pt x="94" y="558" on="1"/>
      </contour>
    </TTGlyph>
    <TTGlyph name="oslash" xMin="58" yMin="-12" xMax="582" yMax="522">
      <contour>
        <pt x="582" y="146" on="0"/>
        <pt x="431" y="-12" on="0"/>
        <pt x="223" y="-12" on="0"/>
        <pt x="152" y="48" on="1"/>
        <pt x="104" y="-1" on="1"/>
        <pt x="96" y="-9" on="0"/>
        <pt x="78" y="-9" on="0"/>
        <pt x="66" y="2" on="0"/>
        <pt x="66" y="19" on="0"/>
        <pt x="72" y="25" on="1"/>
        <pt x="122" y="77" on="1"/>
        <pt x="58" y="154" on="0"/>
        <pt x="58" y="253" on="1"/>
        <pt x="58" y="255" on="1"/>
        <pt x="58" y="364" on="0"/>
        <pt x="209" y="522" on="0"/>
        <pt x="417" y="522" on="0"/>
        <pt x="488" y="461" on="1"/>
        <pt x="536" y="513" on="1"/>
        <pt x="544" y="521" on="0"/>
        <pt x="562" y="521" on="0"/>
        <pt x="574" y="510" on="0"/>
        <pt x="574" y="493" on="0"/>
        <pt x="568" y="487" on="1"/>
        <pt x="517" y="433" on="1"/>
        <pt x="582" y="358" on="0"/>
        <pt x="582" y="257" on="1"/>
        <pt x="582" y="255" on="1"/>
      </contour>
      <contour>
        <pt x="184" y="86" on="1"/>
        <pt x="242" y="34" on="0"/>
        <pt x="411" y="34" on="0"/>
        <pt x="529" y="162" on="0"/>
        <pt x="529" y="253" on="1"/>
        <pt x="529" y="255" on="1"/>
        <pt x="529" y="335" on="0"/>
        <pt x="481" y="396" on="1"/>
      </contour>
      <contour>
        <pt x="111" y="255" on="1"/>
        <pt x="111" y="174" on="0"/>
        <pt x="158" y="114" on="1"/>
        <pt x="456" y="423" on="1"/>
        <pt x="397" y="476" on="0"/>
        <pt x="229" y="476" on="0"/>
        <pt x="111" y="348" on="0"/>
        <pt x="111" y="257" on="1"/>
      </contour>
    </TTGlyph>
    <TTGlyph name="otilde" xMin="58" yMin="0" xMax="522" yMax="685">
      <contour>
        <pt x="58" y="345" on="0"/>
        <pt x="58" y="145" on="0"/>
        <pt x="194" y="0" on="0"/>
        <pt x="386" y="0" on="0"/>
        <pt x="522" y="145" on="0"/>
        <pt x="522" y="345" on="0"/>
        <pt x="386" y="490" on="0"/>
        <pt x="194" y="490" on="0"/>
      </contour>
      <contour>
        <pt x="215" y="48" on="0"/>
        <pt x="106" y="164" on="0"/>
        <pt x="106" y="327" on="0"/>
        <pt x="215" y="443" on="0"/>
        <pt x="365" y="443" on="0"/>
        <pt x="474" y="327" on="0"/>
        <pt x="474" y="164" on="0"/>
        <pt x="365" y="48" on="0"/>
      </contour>
      <contour>
        <pt x="181" y="584" on="1"/>
        <pt x="174" y="570" on="0"/>
        <pt x="163" y="570" on="1"/>
        <pt x="145" y="570" on="0"/>
        <pt x="145" y="587" on="1"/>
        <pt x="145" y="593" on="0"/>
        <pt x="147" y="599" on="1"/>
        <pt x="161" y="641" on="0"/>
        <pt x="198" y="674" on="0"/>
        <pt x="245" y="674" on="0"/>
        <pt x="338" y="633" on="0"/>
        <pt x="370" y="633" on="0"/>
        <pt x="390" y="650" on="0"/>
        <pt x="399" y="671" on="1"/>
        <pt x="406" y="685" on="0"/>
        <pt x="417" y="685" on="1"/>
        <pt x="435" y="685" on="0"/>
        <pt x="435" y="668" on="1"/>
        <pt x="435" y="662" on="0"/>
        <pt x="433" y="656" on="1"/>
        <pt x="419" y="614" on="0"/>
        <pt x="382" y="581" on="0"/>
        <pt x="334" y="581" on="0"/>
        <pt x="242" y="622" on="0"/>
        <pt x="210" y="622" on="0"/>
        <pt x="190" y="605" on="0"/>
      </contour>
    </TTGlyph>
    <TTGlyph name="p" xMin="93" yMin="-205" xMax="565" yMax="490">
      <contour>
        <pt x="93" y="-181" on="1"/>
        <pt x="93" y="466" on="1"/>
        <pt x="93" y="476" on="0"/>
        <pt x="107" y="490" on="0"/>
        <pt x="127" y="490" on="0"/>
        <pt x="142" y="476" on="0"/>
        <pt x="142" y="466" on="1"/>
        <pt x="142" y="395" on="1"/>
        <pt x="174" y="439" on="0"/>
        <pt x="272" y="490" on="0"/>
        <pt x="328" y="490" on="1"/>
        <pt x="427" y="490" on="0"/>
        <pt x="565" y="348" on="0"/>
        <pt x="565" y="147" on="0"/>
        <pt x="427" y="3" on="0"/>
        <pt x="328" y="3" on="1"/>
        <pt x="272" y="3" on="0"/>
        <pt x="174" y="55" on="0"/>
        <pt x="142" y="99" on="1"/>
        <pt x="142" y="-181" on="1"/>
        <pt x="142" y="-191" on="0"/>
        <pt x="127" y="-205" on="0"/>
        <pt x="107" y="-205" on="0"/>
        <pt x="93" y="-191" on="0"/>
      </contour>
      <contour>
        <pt x="142" y="255" on="1"/>
        <pt x="142" y="247" on="1"/>
        <pt x="142" y="166" on="0"/>
        <pt x="252" y="52" on="0"/>
        <pt x="328" y="51" on="1"/>
        <pt x="406" y="52" on="0"/>
        <pt x="516" y="166" on="0"/>
        <pt x="516" y="328" on="0"/>
        <pt x="406" y="441" on="0"/>
        <pt x="254" y="441" on="0"/>
        <pt x="145" y="333" on="0"/>
      </contour>
    </TTGlyph>
    <TTGlyph name="paragraph" xMin="53" yMin="-4" xMax="386" yMax="700">
      <contour>
        <pt x="333" y="22" on="1"/>
        <pt x="333" y="277" on="1"/>
        <pt x="327" y="277" on="1"/>
        <pt x="208" y="277" on="0"/>
        <pt x="53" y="390" on="0"/>
        <pt x="53" y="488" on="1"/>
        <pt x="53" y="490" on="1"/>
        <pt x="53" y="587" on="0"/>
        <pt x="197" y="700" on="0"/>
        <pt x="312" y="700" on="1"/>
        <pt x="359" y="700" on="1"/>
        <pt x="370" y="700" on="0"/>
        <pt x="386" y="684" on="0"/>
        <pt x="386" y="673" on="1"/>
        <pt x="386" y="22" on="1"/>
        <pt x="386" y="11" on="0"/>
        <pt x="371" y="-4" on="0"/>
        <pt x="349" y="-4" on="0"/>
        <pt x="333" y="11" on="0"/>
      </contour>
    </TTGlyph>
    <TTGlyph name="parenleft" xMin="71" yMin="-97" xMax="320" yMax="703">
      <contour>
        <pt x="119" y="28" on="1"/>
        <pt x="71" y="131" on="0"/>
        <pt x="71" y="474" on="0"/>
        <pt x="119" y="578" on="1"/>
        <pt x="176" y="703" on="0"/>
        <pt x="293" y="703" on="1"/>
        <pt x="304" y="703" on="0"/>
        <pt x="320" y="686" on="0"/>
        <pt x="320" y="664" on="0"/>
        <pt x="304" y="647" on="0"/>
        <pt x="293" y="647" on="1"/>
        <pt x="213" y="646" on="0"/>
        <pt x="169" y="554" on="1"/>
        <pt x="127" y="462" on="0"/>
        <pt x="127" y="144" on="0"/>
        <pt x="169" y="52" on="1"/>
        <pt x="214" y="-41" on="0"/>
        <pt x="293" y="-41" on="1"/>
        <pt x="304" y="-41" on="0"/>
        <pt x="320" y="-58" on="0"/>
        <pt x="320" y="-81" on="0"/>
        <pt x="304" y="-97" on="0"/>
        <pt x="293" y="-97" on="1"/>
        <pt x="291" y="-97" on="1"/>
        <pt x="232" y="-97" on="0"/>
        <pt x="144" y="-29" on="0"/>
      </contour>
    </TTGlyph>
</ttFont>
